<svg width="281" height="277" viewBox="0 0 281 277" fill="none" xmlns="http://www.w3.org/2000/svg">
<g clip-path="url(#clip0_88_201)">
<rect x="42" width="195" height="196" rx="97.5" fill="white"/>
<path d="M202.151 20.4289C201.328 20.2852 198.941 19.3511 198.282 19.1355C197.624 18.9199 195.812 18.0576 194.742 17.4828C193.776 17.0286 192.841 16.5247 191.943 15.9738C191.202 15.3989 191.12 14.8959 189.473 14.8959C187.827 14.8959 186.839 14.7522 186.592 14.9678C186.345 15.1834 186.345 15.9019 185.522 16.0456C184.699 16.1894 184.616 15.4708 183.546 15.3271C182.317 15.2008 181.079 15.1528 179.841 15.1834C178.442 15.1834 177.207 14.9678 177.125 14.6804C177.042 14.3929 177.783 13.6025 176.384 12.9558C175.108 12.3231 173.65 12.0238 172.185 12.0935C171.115 12.3091 170.292 12.8121 169.551 12.0217C168.81 11.2312 168.316 10.2971 167.575 10.0815C166.666 9.67744 165.696 9.38716 164.693 9.21924C164.035 9.21924 163.047 8.35696 162.224 8.35696C161.4 8.35696 160.495 7.56653 160.33 8.42881C160.166 9.2911 161.153 10.0097 160.248 10.2971C159.422 10.6205 158.505 10.7206 157.614 10.5845L154.732 10.1534C154.074 10.0815 153.991 9.21924 153.415 10.0097C152.839 10.8001 153.25 11.1594 152.509 10.9438C151.768 10.7282 150.204 10.6564 150.698 9.72223C151.192 8.78809 151.851 8.64438 151.604 8.06953C151.357 7.49467 150.616 6.20125 150.204 6.12939C149.393 5.97544 148.564 5.90311 147.735 5.91382C147.197 6.04066 146.674 6.20899 146.17 6.41682C145.374 6.82694 144.459 7.02664 143.536 6.99168C142.383 6.99168 141.642 7.06353 141.807 6.63239C141.972 6.20125 142.383 5.55454 141.642 5.55454C140.433 5.57212 139.223 5.52412 138.02 5.41082C137.032 5.33896 136.621 4.83597 135.221 5.1234C133.822 5.41083 133.492 6.12939 132.257 5.84197C131.022 5.55454 132.175 4.40483 134.727 3.54254C137.279 2.68026 138.432 1.45869 138.679 0.740122C138.926 0.0215534 135.55 -1.34373 134.48 -1.41558C133.41 -1.48744 133.492 -1.84672 133.245 -1.27187C132.998 -0.697012 132.257 -0.122158 131.763 -0.840727C131.269 -1.5593 130.776 -2.20601 130.446 -2.27787C130.117 -2.34972 129.211 -3.212 128.306 -2.27787C127.4 -1.34373 127.318 -0.840729 126.577 -0.697015C125.836 -0.553302 124.107 -0.553297 123.366 -0.26587C122.056 0.07654 120.7 0.269753 119.332 0.308982C118.344 0.308982 117.357 -0.0503035 116.451 0.380838C115.545 0.811979 115.051 1.38684 115.298 1.88984C115.545 2.39284 115.792 2.60841 115.628 3.32698C115.463 4.04554 115.051 3.97368 114.31 4.18926C113.57 4.40483 112.746 4.18925 111.676 4.33297C110.606 4.47668 110.03 3.54254 109.783 4.33297C109.698 4.73406 109.755 5.14812 109.946 5.52027C110.137 5.89242 110.453 6.20508 110.853 6.41682C111.758 6.7761 112.499 6.63239 112.252 7.2791C112.005 7.92582 110.935 8.21324 110.524 7.85396C110.1 7.41501 109.52 7.11166 108.877 6.99168C108.054 6.91982 107.971 6.56054 107.148 6.91982C106.325 7.2791 106.819 8.21324 106.407 8.35696C105.996 8.50067 105.419 7.99767 105.584 7.35096C105.749 6.70425 106.16 5.98568 105.584 5.98568C105.008 5.98568 104.184 5.69825 104.349 6.63239C104.514 7.56653 104.184 8.42881 104.349 9.07553C104.514 9.72224 104.925 10.4408 105.09 10.9438C105.255 11.4468 105.913 11.5905 106.819 11.9498C107.724 12.3091 107.807 13.6744 107.807 13.6744C107.807 13.6744 107.313 12.6684 106.654 12.6684C105.996 12.6684 105.172 12.0217 105.09 12.6684C105.008 13.3151 105.419 13.6025 104.761 14.3211C104.165 15.0053 103.407 15.5691 102.538 15.9738C101.715 16.2612 100.809 16.0456 100.974 15.7582C101.138 15.4708 102.62 15.4708 103.197 15.0396C103.464 14.8652 103.678 14.6367 103.822 14.3738C103.965 14.1109 104.033 13.8216 104.02 13.5307C103.932 12.957 103.677 12.4126 103.279 11.9498C102.885 11.3097 102.687 10.5922 102.703 9.86595C102.703 8.85995 102.126 9.14738 102.456 8.14138C102.785 7.13539 103.197 6.91982 103.361 6.27311C103.526 5.62639 103.855 4.83597 103.114 4.76411C102.373 4.69226 101.632 4.26111 100.727 4.69225C99.8212 5.12339 99.4096 4.6204 99.3273 5.69825C99.245 6.7761 99.7389 7.35096 99.245 7.92581C98.751 8.50067 98.1747 7.99767 98.4217 9.00367C98.4392 9.75641 98.7272 10.4853 99.245 11.0875C99.8212 11.7342 100.48 11.9498 100.315 12.5247C100.151 13.0995 99.8212 14.1774 99.3273 13.2432C98.8347 12.3929 98.0602 11.6918 97.1045 11.2312C96.5527 10.811 95.8592 10.5587 95.1287 10.5127C93.8115 10.369 93.3176 9.93781 92.9883 10.3689C92.659 10.8001 93.1529 10.9438 93.3999 11.4468C93.6469 11.9498 93.8115 12.2372 92.3296 12.3091C90.8478 12.3809 88.5427 12.8839 88.378 12.8121C88.2134 12.7402 88.7073 12.0935 87.4725 12.0935C86.9713 12.0845 86.4732 12.1625 86.0068 12.3228C85.5405 12.4832 85.1152 12.7228 84.7557 13.0277C84.4264 13.3869 83.1916 13.7462 82.286 14.2492C81.3804 14.7522 79.8985 14.6804 79.5692 14.8959C79.2399 15.1115 79.4046 15.3271 78.6637 15.7582C77.9227 16.1894 76.9349 15.6864 76.5232 15.9738C76.0466 16.5548 75.4941 17.0853 74.8767 17.5546C74.1358 17.9139 73.5595 17.5546 73.3125 18.0576C73.0656 18.5606 74.3828 18.8481 73.8888 19.3511C73.5718 19.5985 73.1615 19.7353 72.7363 19.7353C72.311 19.7353 71.9007 19.5985 71.5837 19.3511C71.0074 18.8481 71.2544 18.8481 71.0898 17.5546C70.9251 16.2612 71.3367 16.1894 70.6781 15.5426C70.2776 15.2403 69.9907 14.8397 69.8549 14.3929C70.4315 14.8473 71.1462 15.1468 71.913 15.2552C73.0656 15.3989 73.8888 15.7582 74.6297 15.4708C75.324 15.1638 75.9852 14.8031 76.6055 14.3929C77.3465 13.9618 78.0051 13.3869 76.9349 12.8121C76.0518 12.3687 75.0684 12.0989 74.0535 12.0217C73.0315 11.7685 72.0392 11.4317 71.0898 11.0157C69.8549 10.5127 69.5256 11.2312 69.0316 10.4408C68.5377 9.65038 68.4554 9.50667 67.3851 9.57852C66.3149 9.65038 68.2907 8.57252 67.3851 8.2851C66.4796 7.99767 66.2326 7.7821 65.4916 7.92581C64.7507 8.06953 65.2447 7.7821 64.0098 8.42881C62.7749 9.07553 64.7507 7.56653 63.7628 7.42282C62.7749 7.2791 62.4456 7.56653 61.7047 8.21324C60.649 8.98287 59.4875 9.63462 58.247 10.1534C56.7703 10.9813 55.6207 12.1854 54.954 13.6025C53.8166 15.8612 52.196 17.9098 50.1792 19.6385C48.368 20.9319 46.2276 20.5008 46.0629 21.3631C45.6719 22.7022 45.6158 24.0991 45.8983 25.4589C46.3922 26.6086 46.3099 26.7523 47.1331 26.393C48.1317 25.9602 49.0707 25.4299 49.9322 24.8122C50.6731 24.1655 51.1671 23.9499 51.4141 24.884C51.661 25.8182 52.4843 27.1835 52.7312 28.0457C52.9782 28.908 52.155 29.914 53.1429 29.7703C53.5966 29.6884 54.0148 29.4967 54.3496 29.2171C54.6844 28.9376 54.9224 28.5815 55.0364 28.1895C55.1826 27.2349 55.6398 26.337 56.3536 25.6026C56.9231 25.0369 57.4458 24.4366 57.9177 23.8062C58.0001 23.5906 56.6005 23.1595 56.6005 22.5128C56.6005 21.866 57.0121 20.2852 57.7531 19.9259C58.494 19.5666 59.9759 19.0636 60.0582 18.7043C60.1405 18.3451 59.7289 17.1954 60.3875 16.6205C60.7188 16.302 61.1793 16.1088 61.6713 16.0819C62.1632 16.0551 62.6477 16.1968 63.0219 16.4768C63.7628 17.1235 63.7628 17.7702 62.8572 18.1295C61.9517 18.4888 61.9517 19.0636 61.2107 19.7103C60.4698 20.3571 59.5642 19.9978 59.8112 21.4349C60.0582 22.872 59.7289 24.2373 60.7168 23.9499C61.7047 23.6625 63.1865 23.6625 64.3391 23.5188C65.4916 23.375 66.8912 23.1595 67.3028 23.5906C67.7144 24.0218 66.6442 24.5248 65.4916 24.5248C64.3391 24.5248 62.7749 24.2373 61.9517 24.6685C61.1284 25.0996 61.54 25.0996 62.1163 25.9619C62.6926 26.8242 63.1866 27.0397 62.528 27.4709C61.8693 27.902 61.1284 28.1895 60.8814 27.6146C60.6345 27.0398 60.3052 25.9619 59.8935 27.0397C59.725 27.775 59.725 28.5321 59.8935 29.2673C59.8935 29.8422 58.988 30.3452 57.9177 30.417C56.8475 30.4889 56.4359 29.5547 55.3656 30.7044C54.2954 31.8542 52.6489 31.5667 51.5787 31.4949C51.3363 31.487 51.0985 31.4347 50.8808 31.3413C50.6631 31.2479 50.4703 31.1156 50.315 30.953C50.1597 30.7903 50.0454 30.6009 49.9794 30.3972C49.9135 30.1934 49.8974 29.9798 49.9322 29.7703C50.0968 28.8362 50.9201 28.1176 50.7554 27.3272C50.5908 26.5367 50.0145 25.4589 49.4382 26.3212C49.159 26.6595 48.9697 27.0479 48.8843 27.4581C48.7988 27.8683 48.8193 28.29 48.9443 28.6925C49.1771 29.2953 49.2057 29.944 49.0266 30.5607C48.9443 31.4949 46.4745 31.6386 46.1452 31.7823C45.8159 31.926 45.8159 33.435 45.2397 34.2254C44.6634 35.0159 43.6755 34.5847 43.2639 34.8003C42.8522 35.0159 42.3583 34.2973 42.3583 33.7224C42.3583 33.1476 42.2759 31.8542 41.6997 31.2793C41.0341 30.7043 40.428 30.0792 39.8885 29.411C38.9006 28.1176 38.1597 28.1895 38.6536 27.6146C39.1476 27.0398 39.0653 25.6026 38.4067 25.5308C37.7481 25.4589 38.736 24.2373 37.3364 24.5248C35.9369 24.8122 35.196 25.0996 35.443 26.0338C35.6899 26.9679 34.8667 27.2553 35.6899 28.1895C36.5132 29.1236 35.9369 28.908 36.6778 29.3392C37.4188 29.7703 38.4067 29.2673 37.995 30.4889C37.5834 31.7104 38.3243 31.2793 37.6657 31.7104C37.0071 32.1416 36.3485 31.423 36.5955 32.2134C36.8425 33.0039 38.489 32.7883 38.4067 33.2913C38.4009 33.4935 38.3377 33.6912 38.2227 33.8668C38.1078 34.0424 37.9447 34.1903 37.7481 34.2973C37.1465 34.5442 36.5684 34.8325 36.0192 35.1596C36.0192 35.1596 33.8788 35.1596 35.1137 35.7344C36.3485 36.3093 38.489 35.6626 38.489 35.6626C39.4863 35.4203 40.5052 35.252 41.535 35.1596C41.9466 35.2314 42.6052 35.0159 42.9345 35.1596C43.2638 35.3033 43.5932 35.6626 43.0169 36.0937C42.5125 36.4905 41.8799 36.7415 41.2057 36.8123C40.5471 36.8841 39.8885 36.8841 39.6415 37.3871C39.3946 37.8901 38.9829 37.3153 38.0774 37.8183C37.1718 38.3213 38.489 38.7524 39.3122 39.5428C40.1355 40.3333 41.1234 41.9141 41.0411 42.7046C40.9588 43.495 41.3704 43.9261 40.3825 44.0698C39.3341 44.0878 38.2863 44.0156 37.2541 43.8543C36.6778 43.8543 34.6197 43.0638 34.4551 43.4231C34.2904 43.7824 33.2202 44.3573 33.4671 45.2914C33.7141 46.2255 33.3848 47.8064 33.4671 48.9561C33.5495 50.1058 34.5374 50.3214 35.3606 50.6088C36.1839 50.8962 37.4188 50.9681 38.3243 51.1118C38.8227 51.1996 39.338 51.18 39.8257 51.0548C40.3134 50.9296 40.7588 50.7025 41.1234 50.3932C41.9234 49.4753 42.5616 48.458 43.0169 47.3753C43.6755 46.0818 44.828 43.8543 45.569 43.495C46.3099 43.1357 47.6271 43.495 48.6973 43.3513C49.7675 43.2075 49.6029 42.2734 50.5085 43.4231C51.414 44.5728 51.8257 45.7225 52.9782 46.3692C54.1308 47.016 55.201 47.3034 55.3656 47.9501C55.4304 48.096 55.4603 48.2519 55.4535 48.4083C55.4468 48.5646 55.4036 48.7182 55.3265 48.8594C55.2494 49.0007 55.1402 49.1267 55.0053 49.2299C54.8705 49.333 54.713 49.411 54.5424 49.4591C53.5545 49.7465 52.5666 49.3872 52.8136 50.1058C53.0826 50.5892 53.5132 50.99 54.0484 51.2555C54.6062 50.8226 55.079 50.3129 55.448 49.7465C55.695 49.2435 56.1066 49.3872 56.7652 48.5968C57.4238 47.8064 58 47.2315 57.2591 46.6567C56.5182 46.0818 55.448 46.01 54.7071 45.0758C53.9661 44.1417 52.155 43.8543 52.5666 42.6327C52.9782 41.4111 53.1429 40.6926 53.8015 41.1956C54.4601 41.6986 53.3898 42.7764 55.2833 43.7824C57.1768 44.7884 58.3293 44.1417 58.494 45.2914C58.6586 46.4411 58.3294 47.4471 58.6587 48.3094C58.988 49.1717 60.5521 49.531 60.5521 50.2495C60.5521 50.9681 61.9517 50.2495 62.1163 49.6747C62.281 49.0998 61.2931 48.4531 61.787 47.3753C62.281 46.2974 62.8572 46.01 63.8451 46.1537C64.833 46.2974 66.0679 46.4411 66.1503 46.1537C66.2326 45.8662 66.0679 45.5788 66.2326 44.1417C66.3972 42.7046 66.3149 42.8483 67.3851 41.3393C68.4554 39.8303 68.9493 39.6147 69.6079 39.9021C70.2665 40.1896 71.1721 40.477 70.7605 40.7644C70.3488 41.0518 69.3609 40.7644 69.8549 41.7704C70.3488 42.7764 71.0074 43.2075 71.5837 42.9201C72.16 42.6327 73.0656 42.6327 72.7363 41.9141C72.407 41.1956 71.9953 41.6267 72.0777 40.7644C72.064 40.494 72.1537 40.2274 72.3325 40.0063C72.5113 39.7852 72.7691 39.6222 73.0656 39.5428C73.4772 39.3991 74.1358 38.3931 74.5474 39.3273C74.959 40.2614 74.7121 40.6926 74.1358 40.98C73.5595 41.2674 72.8186 40.477 73.1479 41.4111C73.4772 42.3453 73.8888 42.3453 74.4651 42.6327C75.0414 42.9201 75.2883 43.2076 75.9469 43.7824C76.6055 44.3573 77.3465 43.8543 77.3465 44.9321C77.3465 46.01 76.4409 46.2255 75.5353 46.3692C74.6297 46.513 74.1358 47.2315 73.2302 46.4411C72.3246 45.6507 72.16 44.9321 71.0074 45.0758C69.8549 45.2195 69.8549 45.5788 68.9493 46.0818C68.0437 46.5848 67.5498 46.5848 66.1503 46.8004C64.7507 47.016 64.0921 46.5848 63.9275 47.3753C63.9043 47.9791 64.0754 48.5765 64.4214 49.0998C64.7507 49.6747 64.1744 49.6028 64.7507 50.3214C65.327 51.0399 67.1382 51.7585 67.7968 51.3992C68.4554 51.0399 68.9493 50.3932 69.4433 50.6807C69.9372 50.9681 70.5958 51.5429 71.3367 51.1837C72.0777 50.8244 72.4893 50.8244 72.5716 51.4711C72.6539 52.1178 71.9953 52.9801 71.5837 54.0579C71.1721 55.1358 70.9251 55.7825 69.4433 56.1418C68.4224 56.3716 67.3682 56.4684 66.3149 56.4292C65.3289 56.4861 64.3415 56.3384 63.4335 55.9981C62.3633 55.7107 62.281 54.9202 60.9638 54.9202C59.6465 54.9202 59.0703 54.6328 58.6587 55.2795C58.247 55.9262 58.6587 56.2855 58.247 56.8604C57.8354 57.4352 57.8354 56.8604 55.8596 56.1418C54.5255 55.5649 53.2333 54.917 51.9903 54.2017C51.0024 53.7705 51.2494 51.3274 51.0024 50.8962C50.8479 50.6452 50.6028 50.4457 50.305 50.3287C50.0073 50.2118 49.6736 50.1839 49.3559 50.2495L46.2276 50.8244C45.1573 50.9681 43.4285 50.9681 42.9345 51.2555C42.4406 51.5429 42.3583 51.9741 40.9587 52.1897C40.2006 52.3233 39.4259 52.3716 38.6536 52.3334C36.8425 52.3334 36.5132 51.9022 35.9369 52.6208C35.3606 53.3394 35.443 54.0579 35.0313 54.3454C34.6197 54.6328 34.2081 54.3454 33.8788 55.1358C33.5495 55.9262 34.5374 56.7166 33.3025 57.5789C32.0676 58.4412 30.3388 59.3754 29.5979 61.0281C28.8569 62.6808 27.6221 65.4832 27.6221 65.4832C27.6221 65.4832 28.61 65.1958 28.1983 67.2796C27.7867 69.3635 27.2104 70.1539 28.1983 71.3755C29.5981 73.148 31.1097 74.8513 32.7262 76.4773C33.6674 77.0264 34.6586 77.5071 35.6899 77.9144L41.6173 76.9803C41.6173 76.9803 45.1573 75.8306 46.4745 76.8366C47.7917 77.8426 48.0387 76.9803 49.0266 78.2019C50.0145 79.4234 53.3899 90.9205 52.5666 92.1421C51.7433 93.3637 51.1671 94.6571 51.8257 96.0942C52.4843 97.5314 52.5666 99.8308 53.1429 101.052C53.7191 102.274 54.1308 102.921 55.201 104.861C56.2712 106.801 55.201 107.591 56.7652 108.31C58.3294 109.028 58.741 109.603 60.8814 109.1C63.0219 108.597 64.1744 107.448 65.7386 106.873C67.3028 106.298 68.7023 105.364 68.867 104.501C69.0316 103.639 68.5377 102.921 68.867 102.13C69.1963 101.34 69.2786 100.693 69.8549 100.406C70.4312 100.118 71.8307 97.3158 72.8186 96.3817C73.8065 95.4475 74.6297 95.2319 75.453 93.8667C76.2762 92.5014 76.9348 91.9265 76.1939 89.3397C75.453 86.7528 73.6418 87.184 75.453 84.7408C76.7019 83.0212 78.1353 81.4092 79.7339 79.9264C81.5451 78.2019 84.4264 75.3276 84.6734 74.9683C84.9204 74.609 86.2376 73.1 84.5088 73.0282C82.7799 72.9563 81.7097 74.7527 79.8985 72.8845C78.0874 71.0162 78.4167 70.2976 76.0293 67.9263C73.6418 65.555 72.6539 64.9802 72.0777 62.8963C71.5014 60.8125 70.8428 59.1598 71.3367 59.3035C71.8307 59.4472 73.8888 60.1658 75.206 62.7526C76.5232 65.3395 78.746 72.5252 81.545 70.8725C84.3441 69.2197 86.0729 69.6509 87.3901 68.573C88.7073 67.4952 88.378 68.07 90.3538 66.561C92.3296 65.052 93.5645 64.6209 92.5766 63.6149C91.5887 62.6089 91.5064 61.6029 89.9422 61.8903C88.378 62.1778 87.9664 63.1119 86.6492 62.6089C85.332 62.1059 85.4967 62.8963 84.2618 60.6688C83.0269 58.4412 79.9809 57.5789 82.6976 57.9382C85.4143 58.2975 85.9906 59.0161 87.2255 59.6628C88.4604 60.3095 90.5185 59.8784 92.3296 60.6688C94.1408 61.4592 96.4459 62.0341 97.4338 61.8903C98.4217 61.7466 98.5864 61.0281 99.5743 62.4652C100.562 63.9023 101.55 64.6928 101.797 65.4832C102.044 66.2736 102.538 63.6149 103.114 64.9802C103.691 66.3455 101.55 66.7047 103.691 69.5072C105.831 72.3096 106.325 73.8904 107.066 74.4653C107.807 75.0402 109.289 73.0282 109.289 72.3814C109.289 71.7347 108.63 70.8006 109.453 69.6509C110.277 68.5012 110.277 68.1419 112.252 67.4233C114.228 66.7048 114.31 67.4233 115.545 65.555C116.78 63.6868 118.262 63.1119 119.25 63.7586C120.238 64.4053 120.814 64.1179 121.061 65.8425C121.308 67.567 120.896 66.8485 121.473 67.9263C122.049 69.0042 122.872 66.3455 123.449 67.9263C124.025 69.5072 124.848 69.8665 124.848 71.5192C124.848 73.1719 124.519 75.0402 125.424 75.4713C126.33 75.9024 125.918 75.2557 126.742 76.2617C127.565 77.2677 127.153 77.0522 127.729 78.2737C128.072 79.0221 128.716 79.6354 129.541 79.9983C129.763 80.0479 129.998 80.0223 130.199 79.9264C130.199 79.5671 129.87 79.5671 129.623 79.0641C129.376 78.5611 129.623 77.9863 129.376 77.4833C129.164 77.0462 128.888 76.6355 128.553 76.2617C128.306 76.118 127.812 76.118 127.4 75.5432C126.989 74.9683 126.824 75.112 126.412 74.4653C126.001 73.8186 125.671 73.6749 125.754 73.1719C125.916 72.8324 126.138 72.5172 126.412 72.2377C126.412 72.2377 126.412 71.4473 126.824 71.1599C127.236 70.8725 127.565 70.8006 127.894 71.088L129.211 72.3814C129.623 72.7407 130.199 72.4533 130.446 73.0282C130.531 73.5284 130.586 74.032 130.611 74.5371C130.775 74.8246 132.093 74.3934 132.834 73.4593C133.575 72.5252 134.151 72.597 134.315 71.591C134.48 70.585 134.645 70.0102 133.986 69.2197C133.328 68.4293 133.163 68.2138 132.587 67.6389C132.01 67.064 131.516 66.8485 131.434 66.6329C131.712 66.0566 132.168 65.5591 132.751 65.1958L134.398 64.4772L136.127 64.6209C136.95 64.6209 139.502 64.2616 139.831 63.9742C140.365 63.4127 140.942 62.8845 141.56 62.3933L142.877 61.2436C143.297 60.8633 143.683 60.4549 144.03 60.0221C144.51 59.5884 144.826 59.0366 144.935 58.4412C144.705 57.7353 144.54 57.0144 144.441 56.2855C144.536 55.6247 144.422 54.954 144.112 54.3454C143.783 53.9142 143.042 53.6268 143.124 53.0519C143.207 52.4771 144.606 51.7585 144.771 51.4711C144.935 51.1837 145.265 50.537 144.771 50.537C144.277 50.537 142.63 50.9681 142.219 50.6088C141.807 50.2495 141.642 50.3214 141.642 49.8902C141.642 49.4591 141.807 49.1717 142.054 49.0998C142.301 49.028 143.618 48.8842 144.03 48.3812C144.441 47.8782 144.771 47.1597 145.182 47.3753C145.594 47.5908 145.676 48.4531 146.582 48.3812C147.488 48.3094 148.311 48.525 148.311 49.2435C148.311 49.9621 148.558 50.3214 148.969 50.3932C149.381 50.4651 149.381 51.4711 149.381 51.4711C149.381 51.4711 148.887 52.5489 149.134 52.9801C149.381 53.4112 149.381 53.7705 149.546 53.8424C149.71 53.9142 150.122 54.2016 150.369 53.9142C150.726 53.5495 151.055 53.1655 151.357 52.7645C151.498 51.8621 151.356 50.9432 150.945 50.1058C150.627 49.8521 150.351 49.562 150.122 49.2435C150.038 48.9607 150.038 48.664 150.122 48.3812C150.287 48.0938 151.192 47.7345 151.357 47.519C151.521 47.3034 151.521 46.9441 151.851 46.3692C152.18 45.7944 152.345 45.2914 152.839 45.1477C153.334 45.0946 153.835 45.119 154.321 45.2195C154.567 45.2195 154.897 45.6507 155.391 45.1477C155.885 44.6447 158.437 43.0638 159.425 41.2674C160.413 39.471 161.647 36.8123 161.647 36.8123C161.647 36.8123 161.565 34.1536 161.483 33.7224C161.4 33.2913 160.577 32.7883 160.413 32.8602L159.754 33.2194C159.425 33.435 158.601 33.8662 158.354 33.5069C158.107 33.1476 156.955 33.0757 156.955 32.0697C156.955 31.0637 156.626 31.2793 158.601 30.3452C160.274 29.6007 161.802 28.6307 163.129 27.4709C163.554 26.9819 164.123 26.6031 164.776 26.3752C165.429 26.1473 166.14 26.079 166.834 26.1775C168.316 26.393 170.209 26.1775 170.703 26.896C171.197 27.6146 171.115 27.902 171.856 27.5427C172.532 27.0561 173.14 26.5013 173.667 25.89C173.667 25.89 175.149 24.5248 175.89 24.381C176.631 24.2373 177.783 23.8062 178.03 23.9499C178.349 24.2292 178.626 24.5431 178.853 24.884C178.853 24.884 179.1 25.0278 179.43 24.5248C179.759 24.0218 179.759 23.3032 180.335 23.6625C180.912 24.0218 181.652 25.6026 180.335 26.3212C179.018 27.0398 177.125 28.1895 176.054 28.8362C174.984 29.4829 173.42 29.2673 173.255 29.9859C173.161 31.4887 173.471 32.9899 174.161 34.3692C174.984 35.5907 175.313 37.0997 176.301 36.3093C177.289 35.5189 177.372 34.441 177.783 33.5069C178.195 32.5727 178.853 32.2134 179.265 31.423C179.664 30.6313 179.994 29.8146 180.253 28.9799C180.253 28.9799 178.524 29.2673 178.524 28.9799C178.524 28.6925 178.853 27.7583 180.994 27.3272C183.134 26.896 184.287 26.6086 184.945 26.7523C185.556 26.9154 186.205 26.9348 186.826 26.8086C187.448 26.6824 188.02 26.4151 188.485 26.0338C189.234 25.2425 190.238 24.6665 191.367 24.381C191.943 24.3092 192.766 24.9559 193.096 24.4529C193.425 23.9499 192.684 23.0876 192.602 22.8002C192.519 22.5128 192.108 22.0098 193.013 21.866C193.919 21.7223 194.413 22.0098 194.66 21.4349C194.907 20.8601 194.578 19.7103 195.648 20.1415C196.463 20.3516 197.164 20.8107 197.624 21.4349C197.871 22.0098 197.294 22.1535 198.776 22.3691C200.258 22.5846 199.846 22.8002 200.587 22.3691C201.328 21.9379 200.917 21.5068 202.069 21.6505C203.222 21.7942 202.975 20.5726 202.151 20.4289Z" fill="#3DACFF"/>
<path d="M173.443 117.658C173.598 116.124 172.516 115.702 172.613 114.626C172.73 113.386 172.585 112.138 172.187 110.944C171.82 109.359 171.348 109.11 171.584 107.957C171.671 107.071 171.933 106.205 172.358 105.397C172.756 104.635 173.06 103.838 173.265 103.02C173.621 101.629 173.022 101.877 172.321 99.9656C171.621 98.0545 172.375 98.8287 172.687 97.3776C172.999 95.9265 172.916 96.4838 172.705 94.9821C172.495 93.4804 172.455 94.0985 171.722 92.5461C170.989 90.9937 170.832 90.9106 170.074 89.4575C169.315 88.0044 169.006 88.5171 167.981 87.6376C166.957 86.758 166.275 87.5626 165.898 87.1755C165.521 86.7884 165.824 86.5351 165.428 85.9879L164.067 84.1031C163.502 83.0533 163.974 83.3026 163.962 82.8831C164.179 82.3389 164.591 81.8709 165.137 81.5495C165.947 81.3018 166.726 80.9833 167.463 80.5991C168.252 80.0762 167.553 79.7823 167.089 79.2736C166.572 78.5902 166.242 77.8113 166.124 76.9977C166.296 76.562 167.403 76.8842 167.977 76.7363C168.431 76.6842 168.853 76.5003 169.174 76.2138C169.496 75.9273 169.698 75.5547 169.75 75.1555C169.873 73.9801 168.372 74.7279 167.893 74.738C167.33 74.6559 166.793 74.4672 166.321 74.1852C165.848 73.9031 165.451 73.5344 165.158 73.1046C164.48 72.0325 164.917 71.0232 164.982 70.3058C164.973 69.6729 165.215 69.0569 165.667 68.5629C166.209 67.9633 166.967 67.5425 167.817 67.3692C168.504 67.2435 169.838 67.6104 169.91 66.6335C169.981 65.6567 170.566 65.9282 171.001 65.8573C171.436 65.7864 173.246 67.0814 173.868 67.6732C174.49 68.265 174.093 68.6561 174.167 69.2965C174.198 69.6339 174.322 69.9597 174.528 70.2457C174.735 70.5317 175.018 70.7693 175.353 70.9381C176.296 71.4366 175.353 70.9381 175.663 70.4253C175.972 69.9126 176.067 69.7748 176.532 70.2835C176.905 70.7403 177.098 71.2908 177.082 71.8521C177.677 72.3414 178.321 72.7823 179.006 73.1694C179.434 73.3579 178.088 75.1271 177.716 75.419C176.988 75.9554 176.302 76.535 175.665 77.1538C175.475 77.4294 176.368 78.1266 176.923 77.8185C177.478 77.5105 180.791 74.5637 181.522 74.4989C182.253 74.434 183.196 74.9326 185.027 75.4494C186.859 75.9662 186.576 75.4413 186.576 75.4413C186.576 75.4413 188.537 74.5232 189.76 73.9294C190.984 73.3356 190.364 74.3611 190.364 74.3611C190.632 74.4845 190.931 74.547 191.233 74.5427C191.536 74.5385 191.833 74.4677 192.096 74.3368C193.085 73.9578 192.984 74.355 193.971 74.9144C194.958 75.4737 194.619 75.4068 195.456 75.6237C195.693 75.6879 195.944 75.7042 196.189 75.6712C196.435 75.6382 196.669 75.5568 196.873 75.4332C197.379 75.1582 197.975 75.0371 198.568 75.0887C199.682 75.1515 199.46 75.7858 200.543 76.2074C201.625 76.6289 201.361 76.2641 202.607 76.5093C203.854 76.7545 202.126 77.4578 202.126 77.4578C202.126 77.4578 200.043 76.9957 200.161 77.6969C200.279 78.3982 200.702 77.9077 201.419 78.3617C201.971 78.7402 202.622 78.9935 203.313 79.0994C204.175 79.2169 203.766 79.1885 204.483 79.6425C205.199 80.0965 205.287 80.2181 206.159 79.1379C207.031 78.0577 205.246 79.2189 205.246 79.2189C205.246 79.2189 204.076 78.6758 204.631 78.3678C205.186 78.0597 203.738 77.6706 204.073 77.0586C204.334 76.5293 204.72 76.0542 205.204 75.6642C205.69 75.3947 205.493 75.9297 206.728 75.7554C207.963 75.5811 207.063 75.1434 206.693 74.4969C206.323 73.8504 205.724 74.0976 204.397 73.4714C203.276 73.033 202.086 72.746 200.866 72.6202C201.874 72.5382 202.889 72.5457 203.895 72.6425C205.236 72.7499 205.967 72.6851 207.269 73.4106C208.571 74.1361 209.41 75.9702 209.41 75.9702C209.41 75.9702 211.558 78.2705 212.3 78.6251C213.043 78.9798 213.105 79.2007 213.54 79.1298C214.313 78.8441 214.936 78.3158 215.288 77.6483C215.491 76.8539 213.907 75.6034 214.412 75.494C214.916 75.3846 215.524 76.4951 216.13 75.9885C216.735 75.4818 215.799 74.7239 215.575 73.7409C215.35 72.758 216.245 72.5169 217.034 71.994C217.822 71.4711 218.53 70.5672 219.566 69.3107C220.601 68.0542 219.952 68.5001 218.939 68.04C217.926 67.58 217.478 68.1697 216.703 68.1738C215.928 68.1778 215.723 67.355 215.51 66.7916C215.297 66.2282 215.348 66.0296 216.527 65.375C217.707 64.7204 217.165 64.5096 217.357 63.2957C217.549 62.0817 217.184 62.1141 216.953 61.3906C216.721 60.6671 216.442 59.2039 215.769 58.8107C215.096 58.4176 214.275 59.2991 212.113 60.0733C209.951 60.8475 210.862 61.7048 210.3 62.2722C209.738 62.8397 208.693 62.7383 207.819 62.2013C206.945 61.6642 205.833 63.2187 204.968 64.0394C204.103 64.8602 203.114 65.2392 202.718 64.692C202.323 64.1448 202.776 64.234 202.866 63.4173C202.957 62.6005 202.781 62.3573 203.38 62.1101C203.929 61.8034 204.398 61.3979 204.756 60.9204C205.04 60.507 204.023 59.368 204.023 59.368C204.016 58.5293 204.131 57.6931 204.362 56.8793C204.737 55.6492 203.599 54.7473 203.449 54.4048C203.262 54.0451 203.174 53.6518 203.193 53.2567C203.211 52.8617 203.335 52.476 203.555 52.1309C204.263 51.227 203.343 51.5675 203.604 50.3151C203.865 49.0626 206.025 49.2268 206.025 49.2268C206.025 49.2268 208.374 49.1153 209.489 49.1781C210.603 49.241 211.833 50.9433 212.349 51.2534C212.865 51.5635 212.777 51.4419 213.88 51.0852C214.983 50.7285 213.831 50.3455 213.644 49.6828C213.457 49.02 213.533 48.7221 213.924 48.5904C214.314 48.4587 214.432 49.1599 214.985 49.7902C215.538 50.4204 215.348 50.6961 216.046 50.9899C216.745 51.2838 216.009 50.6697 216.571 50.1023C217.133 49.5348 216.923 50.5887 217.369 50.9372C217.815 51.2858 217.461 51.7378 218.322 52.7936C219.182 53.8495 219.038 53.2476 219.732 52.8626C220.213 52.4273 220.788 52.0795 221.422 51.8391C222.481 51.4216 222.613 51.604 223.025 50.6941C223.436 49.7841 222.599 49.5672 221.827 48.633C221.055 47.6987 220.976 48.9349 220.403 49.0829C219.788 49.3495 219.194 49.6507 218.624 49.9847C217.931 50.3698 216.987 49.8712 217.343 48.481C217.7 47.0907 218.939 47.5953 219.538 47.3481C220.137 47.1008 220.601 47.6095 221.508 47.7879C222.414 47.9662 222.111 48.2195 222.696 48.4911C223.281 48.7627 223.205 49.0606 223.871 49.7132C224.267 50.2013 224.766 50.6182 225.342 50.9413C226.102 51.4561 225.964 51.5331 226.572 52.6437C227.18 53.7543 226.412 53.4989 226.121 54.1718C225.822 54.9531 225.691 55.7765 225.737 56.5997C225.785 57.3719 225.648 58.1444 225.335 58.8675C224.835 59.6558 224.225 59.4836 222.877 59.6356C221.529 59.7876 221.203 59.2019 220.493 58.4885C219.783 57.7751 219.193 56.8246 218.74 56.7355C218.287 56.6463 218.014 57.4792 218.227 58.0426C218.54 58.5776 219.028 59.0186 219.628 59.3093C219.889 59.4246 220.106 59.6054 220.25 59.8288C220.394 60.0521 220.459 60.3079 220.437 60.5638C220.511 61.2042 219.679 61.6663 219.267 62.5762C219.12 62.8957 219.051 63.2388 219.065 63.5831C219.08 63.9275 219.177 64.2653 219.351 64.5745C219.589 65.0386 220.47 65.3162 220.773 65.0629C221.075 64.8096 221.279 64.0151 221.637 64.2421C221.996 64.4691 221.2 65.2514 221.577 65.6385C221.954 66.0256 222.59 66.0985 223.473 65.4378C224.357 64.7771 223.936 64.3293 224.158 63.6949C224.38 63.0606 223.991 62.254 224.641 61.8081C225.291 61.3623 225.642 61.8487 226.176 62.3188C226.318 62.4314 226.425 62.5733 226.489 62.7314C226.552 62.8896 226.57 63.0592 226.539 63.2247C226.539 63.2247 225.339 64.6576 225.665 65.2433C225.991 65.829 226.269 65.6749 227.504 65.5007C228.738 65.3264 228.972 65.1115 229.289 64.3394C229.605 63.5672 228.694 62.71 228.923 61.8162C229.152 60.9225 228.995 60.8394 228.713 60.3145C228.431 59.7896 228.866 59.7187 229.231 59.6862C229.596 59.6538 230.142 60.5435 230.558 60.3125C230.974 60.0814 231.305 58.7905 231.647 57.919C231.989 57.0476 231.508 55.4404 230.805 54.4677C230.103 53.4949 230.808 53.5293 231.421 52.7633C232.033 51.9972 231.284 51.9019 231.115 51.3993C230.947 50.8967 229.758 50.1935 228.909 49.5571C228.061 48.9207 228.565 48.8113 229.027 47.7027C229.368 46.9942 229.654 46.2663 229.883 45.5241C230.086 44.7297 228.875 43.1874 227.837 42.8267C226.798 42.4659 226.204 43.3921 225.36 43.4346C224.316 43.3908 223.274 43.5608 222.317 43.9312C221.05 44.4642 221.519 45.6518 221.758 46.1159C221.996 46.58 221.39 47.0866 220.615 47.0907C219.973 47.0682 219.335 46.9949 218.708 46.8718C218.495 46.436 218.452 45.951 218.585 45.4917C218.964 44.9404 218.379 44.6689 219.205 44.4662C220.03 44.2635 219.829 44.1196 220.909 42.9239C221.989 41.7282 221.069 42.0687 221.291 41.4344C221.513 40.8 222.155 40.6136 223.025 40.4717C223.894 40.3298 223.753 41.3452 224.773 41.5458C225.793 41.7465 225.806 41.2276 226.317 40.8588C226.828 40.4899 226.174 40.2569 225.691 39.5881C225.208 38.9193 224.539 39.2051 223.658 38.9274C222.777 38.6498 222.625 39.2456 222.044 39.6529C221.316 40.0853 220.544 40.4571 219.737 40.7635C219.031 40.9737 218.311 41.1457 217.582 41.2783C217.582 41.2783 216.9 42.0829 217.094 42.4862C217.351 42.9048 217.516 43.3619 217.582 43.8339C217.436 44.1703 216.636 44.2737 215.81 44.4763C214.985 44.679 215.068 44.1217 214.564 44.2311C214.06 44.3405 213.461 44.5878 212.989 44.3385C212.518 44.0892 213.047 43.8805 213.905 43.3191C214.763 42.7577 214.742 43.536 215.517 43.5319C216.291 43.5279 216.231 42.3686 216.365 41.6127C216.5 40.8568 215.681 40.8 214.516 40.9358C213.35 41.0716 213.947 41.7627 213.563 41.635C213.179 41.5073 212.687 42.0363 212.032 41.8032C211.378 41.5701 211.322 41.0898 210.659 39.4989C209.995 37.908 210.654 38.82 210.3 36.7163C209.947 34.6127 209.338 36.0577 208.462 36.459C207.586 36.8602 206.987 37.1075 206.504 36.4387C206.02 35.7699 206.43 35.7983 206.249 34.8761C206.069 33.954 205.056 33.494 205.417 32.7826C205.503 32.5365 205.523 32.276 205.474 32.022C205.426 31.768 205.31 31.5274 205.137 31.3194C205.253 30.5326 205.297 29.7391 205.269 28.9462C205.322 27.8093 203.31 26.3704 202.684 25.0997L201.77 22.6251C201.401 22.0619 200.815 21.6322 200.117 21.4132C199.097 21.2126 197.666 19.3663 197.666 19.3663L195.363 18.6002C194.69 18.2071 195.308 18.1199 195.31 17.1816C195.312 16.2432 194.193 15.5015 193.479 14.1092C192.764 12.7169 192.205 12.346 190.755 10.3397C189.305 8.33328 189.779 7.64423 189.159 6.11412C189.05 5.64544 188.795 5.21237 188.423 4.86289C188.05 4.51341 187.574 4.26116 187.048 4.13409C186.123 3.79564 183.499 3.1228 181.933 2.03247C180.368 0.942138 180.694 1.52783 180.227 1.95748C179.656 2.38219 179.289 2.98124 179.203 3.63351C178.974 4.52726 179.993 4.72789 180.345 5.21428C180.696 5.70068 179.619 5.95806 179.619 5.95806C179.088 5.59384 178.617 5.16767 178.218 4.69141C177.822 4.14422 177.975 3.54839 177.869 3.26668C177.762 2.98498 176.786 2.84514 175.935 3.14711C175.085 3.44908 175.385 4.13409 175.667 4.65899C175.949 5.18388 177.566 6.0756 178.169 6.50728C178.773 6.93895 177.977 7.72123 177.977 7.72123C177.274 7.48873 176.615 7.16564 176.021 6.76263C175.142 6.11822 174.05 5.73877 172.906 5.6804C171.54 5.6723 170.58 6.6309 171.258 7.70299C171.935 8.77508 171.884 8.97369 171.334 9.96066C170.784 10.9476 171.993 10.8726 172.802 12.1271C173.612 13.3816 173.279 13.0553 171.697 13.4222C170.115 13.789 168.629 11.4624 167.799 10.9861C166.968 10.5099 164.936 9.84919 164.494 10.1795C164.053 10.5099 165.852 11.3854 167.04 12.0886C168.229 12.7919 169.272 13.8315 171.26 14.4314C173.249 15.0313 173.376 14.5348 174.932 14.2673C176.106 14.0759 177.32 14.2054 178.407 14.6381C179.445 14.9989 179.526 15.3799 179.267 15.694C179.008 16.0081 177.989 15.8075 176.907 15.386C175.824 14.9644 176.144 15.8095 177.332 16.5128C178.521 17.216 178.849 16.8634 180.125 17.6882C181.402 18.5131 180.444 18.5333 180.726 19.0582L181.416 20.5498L182.512 23.0082C182.999 24.3559 183.08 24.7369 182.118 26.6338C181.609 27.6402 181.467 28.7603 181.714 29.8399C181.802 30.2313 181.764 30.6364 181.605 31.0102C181.447 31.3841 181.173 31.712 180.814 31.9578C179.603 32.9711 179.758 33.9925 179.226 35.1396C178.694 36.2867 179.429 36.9007 179.737 37.3263C180.044 37.7519 179.651 38.822 179.651 38.822L174.379 41.7484C174.379 41.7484 170.428 43.005 169.424 43.9028C168.421 44.8006 167.491 46.3388 166.733 47.4413C165.974 48.5438 166.42 48.8923 166.633 49.4557C166.846 50.0191 166.062 51.2209 165.398 52.1856C164.735 53.1503 163.685 54.9256 162.554 56.3199C161.828 57.3689 161.42 58.5633 161.368 59.7896C161.953 59.472 162.504 59.1092 163.014 58.7053C163.822 57.4072 164.543 56.0686 165.172 54.6966C165.295 54.4341 165.507 54.2115 165.781 54.0598C166.054 53.908 166.375 53.8345 166.698 53.8495C166.792 54.0171 166.827 54.2056 166.797 54.3906C166.652 54.727 165.072 56.7111 164.996 57.009C164.92 57.3069 164.173 58.8289 163.791 60.3185C163.517 61.2647 163.142 62.1862 162.67 63.0707C162.226 64.3393 161.421 63.7638 161.058 65.4135C160.695 67.0632 160.723 68.5811 161.243 69.5701C161.679 70.3016 162.062 71.0564 162.39 71.8298C162.823 72.6972 162.487 73.3092 162.682 73.7125C163.207 74.8578 163.662 76.0268 164.046 77.2146C164.383 78.2198 163.764 79.2453 163.301 80.3538C162.839 81.4624 162.087 82.3055 162.309 84.2267C162.531 86.148 163.144 85.3819 163.849 85.4164C164.554 85.4508 165.345 86.5452 164.411 87.4045C163.477 88.2638 159.615 88.7036 159.615 88.7036C159.615 88.7036 155.377 88.7563 153.731 89.8405C152.084 90.9248 152.836 92.6373 150.26 95.2597C147.684 97.8822 149.606 100.138 147.8 102.077C145.994 104.017 139.059 106.929 139.059 106.929L128.282 110.441C128.282 110.441 121.285 113.133 119.014 114.563C116.744 115.994 117.627 117.889 117.278 119.02C116.929 120.151 118.716 123.162 119.426 123.876C120.136 124.589 119.733 124.301 119.722 123.882C119.763 123.051 119.654 122.22 119.4 121.42C118.906 120.331 119.472 120.443 119.807 119.831C120.371 119.026 121.22 118.405 122.224 118.063C123.699 117.415 123.294 118.065 124 118.1C124.705 118.134 125.44 118.748 126.568 118.292C127.697 117.836 126.827 117.978 128.014 117.064C129.2 116.15 128.869 117.441 129.443 117.293C130.016 117.145 131.14 116.01 132.09 116.25C133.041 116.489 132.68 117.2 133.517 117.417C134.354 117.634 133.889 117.125 134.261 116.833C134.634 116.541 134.722 116.663 135.339 116.576C135.91 116.577 136.471 116.705 136.969 116.949C137.58 117.121 137.295 117.534 137.961 118.187C138.627 118.84 140.04 117.97 141.034 118.27C142.028 118.57 141.681 118.763 142.606 119.101C143.541 119.491 144.528 119.773 145.545 119.94C147.402 120.358 147.358 120.297 148.41 120.139C149.509 120.041 150.587 119.815 151.617 119.466C153.18 118.939 153.229 119.679 153.953 119.873C154.676 120.068 156.559 120.386 158.17 120.599C159.782 120.812 159.125 121.517 159.634 122.086C160.143 122.656 160.961 122.713 162.184 122.119C163.408 121.525 164.145 121.201 165.324 120.546C166.504 119.891 166.811 120.317 168.222 120.386C169.632 120.455 170.178 121.345 172.328 120.151C174.479 118.957 173.332 119.253 173.443 117.658Z" fill="#3DACFF"/>
<path d="M130.654 100.473C130.981 99.1428 129.891 98.1926 130.654 94.8669C131.417 91.5413 131.417 90.9712 132.834 89.6409C134.252 88.3106 131.526 85.27 132.725 82.3244C133.925 79.3788 135.124 80.234 134.361 78.7137C133.597 77.1934 130.872 77.3834 132.834 75.4831C134.752 73.7534 136.831 72.1643 139.048 70.7321C140.141 70.0302 141.355 69.4849 142.645 69.1168C141.886 68.6711 141.022 68.3799 140.116 68.2647C139.21 68.1496 138.286 68.2135 137.413 68.4516L130.218 69.1168L131.417 66.1712L123.133 64.5559C119.784 63.9491 116.4 63.505 112.995 63.2256C112.752 63.7844 112.357 64.2837 111.845 64.6808C111.332 65.0779 110.717 65.361 110.052 65.506C107.763 65.7911 103.293 64.1758 102.53 65.7911C101.767 67.4064 106.236 68.7367 104.383 69.7819C102.53 70.8271 103.293 67.7865 96.0987 67.7865C88.9042 67.7865 82.2547 71.6823 83.0178 73.2976C83.7808 74.9129 87.4871 74.6279 84.1078 76.2432C80.7286 77.8585 81.1646 77.2884 78.5484 78.2386C76.4971 79.0319 74.4958 79.92 72.553 80.8991L78.8754 86.1252C78.8754 86.1252 85.634 83.7497 89.0132 87.0754C92.3925 90.401 94.2456 91.6363 94.2456 94.2968C94.2456 96.9574 98.3879 97.8125 98.3879 99.8079C98.3879 101.803 95.4447 101.138 94.6816 103.704C93.9186 106.269 96.0987 110.545 99.151 112.921C102.203 115.296 98.7149 114.156 103.293 117.101C107.872 120.047 107.763 123.373 110.052 118.717C112.341 114.061 109.289 111.21 111.905 109.975C114.521 108.74 118.99 108.645 119.426 107.029C119.862 105.414 120.844 103.419 122.806 103.039C124.768 102.659 130.218 101.803 130.654 100.473Z" fill="#3DACFF"/>
<path d="M237.378 67.3239C236.015 66.3944 234.714 65.3943 233.481 64.3287C232.724 63.4591 232.616 64.3287 231.533 62.203C230.451 60.0774 230.126 59.1112 229.368 58.145C228.611 57.1788 228.827 56.889 228.286 56.116C227.932 55.6378 227.392 55.2936 226.771 55.1498C226.356 55.2414 225.998 55.4754 225.775 55.801C225.552 56.1266 225.482 56.5175 225.58 56.889C225.688 57.4687 225.363 59.3045 225.363 60.0774C225.363 60.8504 225.147 61.72 224.714 61.6233C223.713 61.3734 222.763 60.982 221.9 60.4639C220.926 59.7875 219.302 59.8842 218.977 59.1112C218.825 58.7017 218.816 58.2606 218.951 57.8464C219.087 57.4322 219.36 57.0645 219.735 56.7923C220.276 56.116 221.034 55.7295 220.276 55.5363C218.968 55.0749 217.536 54.974 216.163 55.2464C214.648 55.7295 213.132 55.4397 212.591 56.3092C212.05 57.1788 212.808 58.145 212.05 58.6281C211.292 59.1112 211.942 58.8214 210.535 58.3383C209.127 57.8552 206.421 59.3045 205.989 59.9808C205.556 60.6571 203.715 61.4301 203.607 62.203C203.499 62.976 203.824 64.1354 203.174 64.3287C202.525 64.5219 201.226 64.0388 199.602 64.9084C197.979 65.778 197.654 65.1983 196.247 66.8408C194.84 68.4833 194.623 68.2901 194.84 69.3529C195.056 70.4157 195.381 69.7394 194.948 71.6718C194.515 73.6042 194.84 72.3481 196.03 75.0535C197.221 77.7589 197.113 78.0487 196.788 78.5318C196.58 78.8474 196.49 79.2133 196.528 79.5776C196.567 79.9419 196.734 80.286 197.005 80.5608C197.654 80.9473 197.654 81.8169 198.736 81.2372C200.13 80.4966 201.62 79.9125 203.174 79.498C205.231 78.9183 206.313 79.498 207.396 78.242C208.478 76.9859 208.911 76.5994 211.617 76.4062C214.323 76.2129 213.998 75.44 216.704 76.8893C219.41 78.3386 219.843 78.242 220.601 77.7589C221.359 77.2758 221.142 78.0487 221.9 78.9183C222.657 79.7879 224.389 82.9763 226.013 83.073C227.637 83.1696 227.745 82.6865 229.044 82.5899C230.343 82.4932 229.693 82.9763 230.992 83.073C232.291 83.1696 231.75 82.9763 233.265 82.3966C234.78 81.8169 235.971 81.9135 235.863 79.9811C235.755 78.0487 236.512 77.5656 237.27 76.4062C238.357 74.8093 238.885 72.9587 238.785 71.0921C238.569 68.8698 238.569 68.2901 237.378 67.3239Z" fill="#3DACFF"/>
<path d="M210.148 107.883L209.748 108.078C209.614 108.195 209.303 108.156 209.303 108.156H208.991C208.768 108.195 208.902 108.039 208.457 108.039C208.011 108.039 207.833 107.961 207.789 108.117C207.744 108.273 207.878 108.43 208.056 108.664C208.234 108.898 208.234 109.054 208.546 109.054C208.857 109.054 209.169 109.21 209.347 109.132C209.582 109.004 209.78 108.831 209.926 108.625C210.015 108.508 210.193 108.508 210.237 108.234C210.282 107.961 210.46 107.766 210.148 107.883Z" fill="#3DACFF"/>
<path d="M221.01 107.337C220.832 107.298 220.877 107.415 220.654 107.61C220.374 107.792 220.133 108.017 219.942 108.273C219.764 108.546 219.497 108.624 219.185 108.858L218.339 109.483C218.117 109.6 218.117 109.99 218.25 110.185C218.405 110.205 218.562 110.178 218.695 110.107C218.918 110.029 219.185 110.146 219.586 109.99C219.987 109.834 219.942 109.795 220.031 109.483C220.154 109.22 220.353 108.992 220.61 108.819C220.921 108.507 221.144 108.39 221.411 108.156C221.525 108.072 221.602 107.955 221.626 107.826C221.651 107.698 221.622 107.565 221.545 107.454C221.411 107.298 221.188 107.376 221.01 107.337Z" fill="#3DACFF"/>
<path d="M222.969 105.698C222.969 105.698 222.48 105.659 222.346 105.503C222.156 105.312 221.992 105.102 221.857 104.878C221.699 104.687 221.483 104.538 221.233 104.449C221.1 104.371 221.322 104.8 221.367 105.035C221.511 105.291 221.674 105.539 221.857 105.776C221.946 105.932 221.5 106.322 221.5 106.595C221.5 106.868 221.946 106.673 222.035 106.712C222.146 106.8 222.237 106.906 222.302 107.025C222.302 107.025 222.658 106.946 222.613 106.673C222.569 106.4 222.658 106.478 222.747 106.322C222.836 106.166 223.192 106.283 223.37 106.205C223.548 106.127 223.504 105.737 223.326 105.581C223.148 105.425 222.969 105.698 222.969 105.698Z" fill="#3DACFF"/>
<path d="M209.659 94.109C208.946 93.5237 208.011 92.8604 207.789 92.7043C207.548 92.4584 207.218 92.293 206.854 92.2361C206.425 92.2006 206.005 92.1086 205.608 91.963C205.162 91.8069 205.251 91.6118 204.895 91.8069L204.094 92.1971C203.782 92.3532 203.471 92.3141 203.426 92.1581C203.382 92.002 203.382 91.7679 203.248 91.6899C203.115 91.6118 203.115 91.5728 202.803 91.5728C202.581 91.553 202.357 91.553 202.135 91.5728C202.002 91.6118 201.556 91.3777 201.868 91.6899C202.025 91.8817 202.241 92.0305 202.491 92.1191C202.58 92.1971 202.758 92.1191 202.803 92.3141C202.886 92.4681 202.991 92.6123 203.115 92.7434L203.782 92.8604L204.628 93.1726C204.628 93.1726 205.296 93.4067 205.385 93.5627C205.458 93.71 205.489 93.8708 205.474 94.031C205.474 94.187 205.207 94.187 205.073 94.2261C204.94 94.2651 204.895 94.187 204.851 94.3041C204.806 94.4212 205.385 94.6943 205.385 94.6943C205.385 94.6943 206.053 94.4992 206.231 94.6162C206.414 94.8026 206.666 94.9269 206.943 94.9674C207.388 94.9674 207.522 94.9674 207.7 94.7723C207.878 94.5772 208.145 94.187 208.323 94.187C208.459 94.1758 208.595 94.195 208.72 94.2428C208.844 94.2906 208.953 94.3654 209.035 94.4602C209.231 94.67 209.473 94.8426 209.748 94.9674C209.841 95.0337 209.955 95.0731 210.074 95.0801C210.194 95.0871 210.313 95.0613 210.415 95.0064C210.46 94.8113 210.415 94.7333 209.659 94.109Z" fill="#3DACFF"/>
<path d="M200.711 92.8613C200.931 92.7655 201.178 92.7249 201.423 92.7442C201.595 92.7937 201.778 92.807 201.957 92.7832C202.046 92.7442 202.269 92.7442 202.135 92.7052C202.002 92.6662 201.868 92.4711 201.735 92.5101L201.245 92.4321C200.889 92.354 200.755 92.354 200.666 92.4321C200.577 92.5101 200.265 92.6272 200.31 92.7442C200.355 92.8613 200.488 92.9393 200.711 92.8613Z" fill="#3DACFF"/>
<path d="M199.953 92.7831C199.953 92.7052 199.864 92.5882 199.82 92.5882C199.775 92.5882 199.553 92.4713 199.464 92.5493C199.375 92.6272 199.286 92.6662 199.286 92.7442C199.286 92.8221 199.597 92.8611 199.686 92.8611C199.775 92.8611 199.953 92.8611 199.953 92.7831Z" fill="#3DACFF"/>
<path d="M196.437 92.7046C196.392 92.8997 196.259 92.8216 196.437 93.0557C196.615 93.2898 196.659 93.0947 196.659 93.4069C196.685 93.6014 196.685 93.7977 196.659 93.9922C196.659 93.9922 196.348 94.2263 196.615 94.3043C196.882 94.3824 196.926 94.4604 197.06 94.3824C197.193 94.3043 197.238 94.2653 197.193 94.1092C197.149 93.9532 197.238 93.8361 197.238 93.563C197.224 93.3541 197.239 93.1445 197.283 92.9387C197.372 92.8216 197.594 92.8997 197.594 93.0557C197.594 93.2118 197.55 93.4849 197.772 93.641C197.995 93.7971 198.039 93.7971 198.306 93.7581C198.347 93.7543 198.385 93.7425 198.42 93.7237C198.454 93.7048 198.483 93.6794 198.504 93.6494C198.526 93.6193 198.539 93.5854 198.543 93.5501C198.548 93.5149 198.543 93.4793 198.529 93.4459C198.44 93.4069 198.217 93.2898 198.173 93.1728C198.196 93.0173 198.196 92.86 198.173 92.7046C198.084 92.4704 198.039 92.5485 197.995 92.4314C197.95 92.3144 198.173 92.3144 198.395 92.2363C198.618 92.1583 198.752 92.1193 198.796 92.0022C198.841 91.8852 198.841 91.7291 198.663 91.7681C198.484 91.8071 198.44 91.7291 198.306 91.8462C198.172 91.9505 197.997 92.0063 197.817 92.0022C197.55 92.0412 197.505 92.0412 197.416 91.9632C197.327 91.8852 197.283 91.6511 197.327 91.612C197.372 91.573 197.505 91.1828 197.728 91.2609C197.95 91.3389 197.95 91.456 198.217 91.4169C198.484 91.3779 198.618 91.2609 198.796 91.2609L199.241 91.3389C199.351 91.3374 199.459 91.3105 199.553 91.2609L199.686 91.0658C199.647 90.9858 199.575 90.9216 199.485 90.8855C199.394 90.8494 199.291 90.8442 199.197 90.8707H198.663C198.395 90.8317 198.351 90.9487 198.173 90.8707C197.995 90.7926 198.039 90.7536 197.772 90.7927L197.283 90.8707C197.149 90.9487 197.104 90.9487 197.06 91.0268C196.972 91.0841 196.904 91.1622 196.865 91.252C196.825 91.3419 196.816 91.4397 196.837 91.534C196.899 91.6976 196.929 91.869 196.926 92.0412C196.926 92.1973 196.793 92.2363 196.659 92.3924C196.526 92.5485 196.481 92.5485 196.437 92.7046Z" fill="#3DACFF"/>
<path d="M199.375 94.7335L198.93 94.9286L198.485 95.0067C198.44 95.0457 198.218 95.1237 198.307 95.2408C198.46 95.3069 198.626 95.3466 198.796 95.3578C198.881 95.2622 198.987 95.1825 199.108 95.1237C199.286 95.0847 199.553 95.1627 199.598 95.0847C199.642 95.0067 199.776 94.7725 199.687 94.7335C199.598 94.6945 199.42 94.6555 199.375 94.7335Z" fill="#3DACFF"/>
<path d="M196.659 95.0458C196.481 94.9288 196.392 94.8509 196.303 94.9288C196.214 95.0068 196.081 95.0848 196.259 95.2017C196.436 95.3186 196.659 95.2407 196.792 95.3186C196.926 95.3966 197.104 95.3576 197.104 95.3576C197.104 95.3576 197.148 95.2017 197.015 95.1627C196.884 95.16 196.759 95.1188 196.659 95.0458V95.0458Z" fill="#3DACFF"/>
<path d="M195.101 94.7336C194.968 94.7336 194.79 94.8506 195.012 94.9287C195.23 94.9795 195.456 94.9928 195.68 94.9677L195.902 94.8897C195.947 94.8116 195.902 94.7726 195.635 94.7726C195.368 94.7726 195.279 94.6946 195.101 94.7336Z" fill="#3DACFF"/>
<path d="M194.255 94.6948C194.255 94.6948 193.988 94.3826 193.899 94.3826C193.81 94.3826 193.677 94.4997 193.454 94.3046C193.231 94.1095 193.231 94.0705 192.786 94.1095C192.472 94.1421 192.153 94.1155 191.851 94.0315C191.673 93.9925 191.762 93.9534 191.451 93.8754L190.738 93.7974C190.516 93.8364 190.16 93.8364 190.293 94.0705C190.583 94.2626 190.917 94.3959 191.273 94.4607C191.607 94.5966 191.973 94.6634 192.341 94.6558C192.582 94.6121 192.832 94.6396 193.053 94.7338C193.321 94.7728 193.365 94.6558 193.721 94.7338C194.077 94.8118 194.211 94.7728 194.255 94.6948Z" fill="#3DACFF"/>
<path d="M190.382 93.2513C190.405 93.1351 190.42 93.0179 190.427 92.9002C190.471 92.666 190.472 92.666 190.293 92.471C190.115 92.2759 190.071 92.3539 189.848 92.2368C189.667 92.125 189.54 91.9581 189.492 91.7686C189.359 91.4955 189.314 91.4955 188.958 91.2224C188.773 91.0484 188.544 90.9147 188.29 90.8322C188.023 90.7541 187.845 90.403 187.667 90.2079L186.91 89.6226L186.242 89.1544C185.931 88.9593 185.886 88.9983 185.753 88.9983C185.619 88.9983 185.619 89.3495 185.664 89.4665L186.109 89.8567C186.242 89.8957 186.287 90.0518 186.509 90.2859C186.758 90.5599 187.026 90.8205 187.311 91.0663C187.311 91.0663 187.622 91.8076 187.8 92.1588C187.979 92.51 188.468 92.666 188.602 92.8221L189.225 93.4464L189.715 93.7976C189.937 93.9146 189.982 93.6805 190.204 93.5635H190.382C190.472 93.4464 190.427 93.4074 190.382 93.2513Z" fill="#3DACFF"/>
<path d="M191.718 91.3391C191.871 91.6834 192.115 91.9909 192.43 92.2366L193.232 92.5487C193.499 92.6658 193.677 92.5487 193.899 92.6658C194.119 92.7889 194.359 92.8811 194.612 92.9389C194.834 92.9389 194.745 93.056 194.968 92.9389C195.19 92.8218 194.879 92.6268 194.968 92.3926C195.07 92.1958 195.222 92.0222 195.413 91.8854C195.502 91.8464 195.635 91.4952 195.635 91.4952C195.635 91.4952 195.457 91.105 195.635 90.988C195.814 90.8709 196.081 90.988 195.947 90.7539C195.814 90.5198 195.725 90.5978 195.725 90.2856C195.725 89.9735 195.68 89.8174 195.769 89.7394L196.036 89.5053C196.17 89.3492 196.303 89.3882 196.125 89.1931C195.947 88.998 195.992 88.881 195.769 88.7249C195.546 88.5688 195.635 88.3737 195.368 88.4908C195.192 88.5464 195.027 88.6253 194.879 88.7249C194.879 88.7249 194.701 89.2321 194.567 89.2712L194.033 89.5833C193.868 89.8665 193.641 90.1184 193.365 90.3247C193.157 90.4321 192.932 90.5111 192.697 90.5588C192.697 90.5588 192.297 90.7539 192.208 90.6758C192.119 90.5978 192.208 90.4807 191.941 90.5588C191.673 90.6368 191.629 91.1831 191.718 91.3391Z" fill="#3DACFF"/>
<path d="M200.488 90.481C200.221 90.481 200.354 90.8318 200.354 91.0656C200.354 91.2995 200.443 91.4554 200.577 91.3775C200.71 91.2995 200.754 91.2216 200.71 91.0656C200.665 90.9097 200.621 91.0267 200.665 90.7928C200.71 90.5589 200.621 90.481 200.488 90.481Z" fill="#3DACFF"/>
<path d="M198.351 88.2176C198.529 88.2176 198.529 88.2566 198.618 88.3737C198.707 88.4907 198.707 88.6858 198.93 88.6858C199.152 88.6858 199.286 88.6858 199.42 88.5297C199.553 88.3737 199.509 88.1005 199.598 87.9835C199.648 87.8887 199.667 87.7831 199.651 87.6794C199.635 87.5756 199.586 87.478 199.509 87.3982C199.375 87.2421 199.286 87.4372 199.108 87.5933C198.93 87.7494 198.707 87.6713 198.529 87.6713C198.352 87.7043 198.185 87.7709 198.039 87.8664C197.976 88.0025 197.946 88.1487 197.95 88.2956C197.95 88.3737 198.173 88.2566 198.351 88.2176Z" fill="#3DACFF"/>
<path d="M197.683 87.3202C197.772 87.5543 198.039 87.3982 198.129 87.3982C198.209 87.3501 198.271 87.2822 198.307 87.2031C198.307 87.1251 198.396 87.0861 198.485 87.0471C198.519 86.9914 198.532 86.9281 198.525 86.8654C198.517 86.8027 198.487 86.7436 198.44 86.6959C198.348 86.6422 198.239 86.615 198.129 86.6178L197.772 86.3447C197.728 86.2667 197.505 86.1886 197.194 86.2277C196.882 86.2667 197.149 86.5008 197.55 86.7349C197.95 86.969 197.639 87.0861 197.683 87.3202Z" fill="#3DACFF"/>
<path d="M196.748 85.1743C196.793 85.4474 196.837 85.2913 197.06 85.4864C197.282 85.6815 197.416 85.6035 197.683 85.6425C197.95 85.6815 197.772 85.7596 197.906 85.9547C198.039 86.1497 198.128 86.0327 198.44 86.1497C198.552 86.2071 198.636 86.2981 198.677 86.4057C198.718 86.5134 198.713 86.6304 198.662 86.735H199.063C199.12 86.7327 199.174 86.717 199.221 86.6895C199.268 86.662 199.306 86.6238 199.33 86.579C199.375 86.4619 199.286 86.3839 199.197 86.2668C199.108 86.1497 198.885 86.0717 198.751 85.8766C198.618 85.6815 198.618 85.7596 198.351 85.5645C198.084 85.3694 197.772 85.4864 197.639 85.3694C197.505 85.2523 197.549 85.0572 197.505 84.7841C197.46 84.511 197.505 84.55 197.683 84.3159C197.727 84.273 197.751 84.2174 197.751 84.1598C197.751 84.1022 197.727 84.0467 197.683 84.0037C197.646 83.9602 197.6 83.9238 197.546 83.8969C197.492 83.8701 197.433 83.8533 197.371 83.8477C197.149 83.8477 197.06 84.0818 197.015 84.2769C196.964 84.4405 196.889 84.5978 196.793 84.7451C196.752 84.8102 196.728 84.8819 196.72 84.9557C196.712 85.0295 196.722 85.1038 196.748 85.1743V85.1743Z" fill="#3DACFF"/>
<path d="M196.303 87.0474C196.25 87.1832 196.138 87.2952 195.992 87.3592C195.903 87.4372 195.947 87.5541 195.992 87.6711C196.036 87.788 196.214 87.6321 196.258 87.5931C196.418 87.4416 196.553 87.271 196.659 87.0864C196.65 86.9733 196.603 86.865 196.525 86.7746C196.392 86.6576 196.392 86.8525 196.303 87.0474Z" fill="#3DACFF"/>
<path d="M164.384 96.8018C164.206 96.8408 164.117 97.1919 163.805 97.6211C163.481 97.991 163.071 98.2968 162.603 98.5186C162.603 98.5186 161.713 98.6746 161.757 99.0258C161.802 99.377 162.114 99.6501 162.069 100.001C162.025 100.352 161.579 100.313 161.579 100.86C161.606 101.3 161.711 101.735 161.891 102.147C162.114 102.733 163.271 103.006 163.583 102.42C163.955 101.842 164.196 101.206 164.295 100.548C164.401 99.8583 164.58 99.1791 164.829 98.5186C164.963 97.8943 165.096 97.8943 164.874 97.4651C164.771 97.2136 164.604 96.9865 164.384 96.8018Z" fill="#3DACFF"/>
<path d="M206.721 68.9035C206.646 69.0931 206.646 69.2992 206.721 69.4888C206.87 69.7645 206.989 70.0519 207.077 70.3472C207.077 70.3472 207.566 70.1911 207.477 69.879C207.37 69.547 207.296 69.2076 207.255 68.8645C207.336 68.6731 207.44 68.49 207.566 68.3182C207.744 68.0061 207.922 68.0451 207.833 67.4598C207.744 66.8745 207.522 66.7965 207.522 66.4843C207.522 66.1722 207.388 66.4453 207.522 66.1722C207.599 65.9671 207.704 65.7707 207.833 65.5869C207.522 65.782 207.032 65.5089 207.166 66.3673C207.271 66.9258 207.241 67.4976 207.077 68.0451C206.988 68.3182 206.721 68.9035 206.721 68.9035Z" fill="#3DACFF"/>
<path d="M205.741 72.5328C205.652 72.7279 206.142 72.962 206.142 72.962C206.142 72.962 206.32 72.5718 206.498 72.5328L207.522 72.2206C207.744 72.1036 207.744 72.1816 208.1 72.1426C208.457 72.1036 208.412 71.7134 208.412 71.4403C208.294 71.4738 208.169 71.4843 208.046 71.4708C207.923 71.4573 207.805 71.4202 207.7 71.3622C207.344 71.2062 207.522 70.894 207.166 70.933C206.809 70.9721 206.988 71.2452 206.854 71.5573C206.72 71.8695 206.542 71.7134 206.186 71.8695C205.83 72.0256 205.786 72.3377 205.741 72.5328Z" fill="#3DACFF"/>
<path d="M205.207 75.1074L204.584 75.3415C204.584 75.3415 204.361 75.2635 204.049 75.6146C203.895 75.8034 203.698 75.9627 203.471 76.0829C203.471 76.0829 203.471 75.7707 203.159 75.8097C202.882 75.8361 202.62 75.9308 202.402 76.0829C202.18 76.1999 202.091 76.1609 202.046 76.317C201.997 76.5167 201.871 76.6956 201.69 76.8242C201.515 77.0868 201.409 77.3799 201.378 77.6826L202.18 77.9557C202.18 77.9557 202.625 77.5265 202.491 77.3705C202.358 77.2144 202.491 76.7852 202.714 76.9413C202.937 77.0973 202.536 77.2534 203.026 77.2534C203.394 77.2264 203.755 77.1473 204.094 77.0193C204.3 76.7523 204.596 76.5479 204.94 76.434C205.474 76.278 206.142 76.434 206.275 76.278C206.384 76.2089 206.465 76.1107 206.505 75.9982C206.545 75.8857 206.543 75.7648 206.498 75.6537C206.338 75.3626 206.291 75.0338 206.364 74.7172C206.498 74.327 206.364 74.1319 206.587 73.8198C206.65 73.7249 206.682 73.6172 206.682 73.5076C206.682 73.398 206.65 73.2904 206.587 73.1955C206.587 73.1955 206.275 73.5076 206.008 73.4296C205.741 73.3516 205.83 72.8443 205.786 73.3516C205.779 73.732 205.824 74.1119 205.919 74.4831C205.964 74.8733 205.207 75.1074 205.207 75.1074Z" fill="#3DACFF"/>
<path d="M197.371 81.8177C197.46 81.7222 197.534 81.6175 197.593 81.5058C197.602 81.3462 197.571 81.1867 197.504 81.0381C197.346 81.0377 197.192 81.0784 197.06 81.155C197.06 81.155 196.793 81.5448 196.926 81.7007C197.06 81.8566 197.371 81.8177 197.371 81.8177Z" fill="#3DACFF"/>
<path d="M192.564 83.5743L192.653 83.1451C192.386 83.1841 192.119 82.95 191.851 83.1451C191.584 83.3402 191.273 83.4182 191.54 83.6523C191.731 83.7931 191.961 83.8873 192.208 83.9254L192.564 83.5743Z" fill="#3DACFF"/>
<path d="M178.986 87.9838C178.87 87.9078 178.729 87.8667 178.585 87.8667C178.429 88.1457 178.397 88.4657 178.496 88.7641C178.629 88.9202 178.674 89.3104 179.075 89.1543C179.475 88.9982 179.787 88.6861 179.386 88.3739L178.986 87.9838Z" fill="#3DACFF"/>
<path d="M211.217 93.4464C211.217 93.4464 212.063 92.8221 211.528 92.8611C210.994 92.9001 211.395 92.9782 210.861 93.1343C210.625 93.2333 210.364 93.2738 210.104 93.2513C209.926 93.2513 210.237 93.4854 210.237 93.4854C210.562 93.549 210.9 93.5355 211.217 93.4464V93.4464Z" fill="#3DACFF"/>
<path d="M205.919 50.3305C206.008 50.6037 205.964 50.8378 206.453 51.1109C206.785 51.2973 207.144 51.4418 207.522 51.5401C207.566 51.4231 207.21 51.1499 207.032 50.9158C206.854 50.6817 205.83 50.0574 205.919 50.3305Z" fill="#3DACFF"/>
<path d="M209.703 50.136C210.192 50.2141 211.083 50.4482 211.038 50.2141C211.016 50.0761 210.935 49.9508 210.81 49.8637C210.686 49.7767 210.529 49.7345 210.371 49.7458C209.903 49.7064 209.441 49.628 208.99 49.5117C208.99 49.7458 209.169 50.019 209.703 50.136Z" fill="#3DACFF"/>
<path d="M205.296 49.9796C205.296 49.9796 206.275 49.4334 206.676 49.5504C207.05 49.6536 207.441 49.7062 207.833 49.7065C207.914 49.6911 207.989 49.6579 208.051 49.6101C208.114 49.5624 208.161 49.5016 208.189 49.4334C207.917 49.1064 207.524 48.8721 207.076 48.7701C206.809 48.731 206.542 48.9261 206.142 48.8091C205.741 48.692 206.453 48.4579 205.429 48.614C204.405 48.7701 204.049 48.8871 204.272 49.2773C204.547 49.5775 204.897 49.8178 205.296 49.9796V49.9796Z" fill="#3DACFF"/>
<path d="M187.622 44.8292C187.632 44.8709 187.652 44.9103 187.681 44.9449C187.709 44.9796 187.745 45.0088 187.787 45.0307C187.829 45.0526 187.875 45.0669 187.923 45.0725C187.971 45.0781 188.021 45.075 188.067 45.0634C188.454 45.0379 188.842 45.051 189.225 45.1024C189.704 45.0931 190.182 45.0408 190.649 44.9463H190.56C190.175 44.7999 189.827 44.5876 189.536 44.322C189.091 43.9318 189.18 43.5807 188.245 43.8538C188.131 43.8808 188.023 43.9276 187.929 43.9916C187.835 44.0556 187.757 44.1354 187.699 44.2263C187.641 44.3172 187.604 44.4174 187.591 44.5209C187.578 44.6245 187.588 44.7293 187.622 44.8292Z" fill="#3DACFF"/>
<path d="M183.705 42.5271C183.616 43.0344 184.417 43.5806 184.417 43.5806L185.664 43.9318L186.999 44.0098L187.622 43.7367C187.801 43.4636 188.068 43.0344 187.489 42.8393C186.91 42.6442 186.465 43.0344 186.376 42.4491C186.287 41.8638 186.242 41.4736 185.842 41.4736C185.441 41.4736 185.04 41.3956 184.729 41.8638C184.417 42.332 183.749 42.0199 183.705 42.5271Z" fill="#3DACFF"/>
<path d="M182.993 41.9416C183.171 42.0977 183.66 41.6685 183.972 41.2393C183.565 41.2694 183.162 41.3347 182.77 41.4344C182.191 41.6294 182.859 41.8245 182.993 41.9416Z" fill="#3DACFF"/>
<path d="M165.452 50.9552C164.607 51.4235 165.719 51.7356 165.987 51.9307C166.386 52.2061 166.838 52.4174 167.322 52.555C167.99 52.7891 168.079 52.672 167.856 52.1258C167.634 51.5795 167.322 51.4235 167.233 50.6041C167.213 50.494 167.221 50.3813 167.257 50.2745C167.293 50.1676 167.357 50.0692 167.442 49.9867C167.528 49.9042 167.633 49.8397 167.751 49.798C167.869 49.7562 167.996 49.7384 168.123 49.7457C168.123 49.7457 168.747 49.0433 169.192 48.419C169.637 47.7947 169.637 48.302 170.305 47.7557C170.791 47.3466 171.366 47.028 171.996 46.8193C172.486 46.6242 173.688 46.4681 173.555 46.156C173.421 45.8438 172.62 46.1169 171.952 46.351L170.394 46.7802C169.769 46.9322 169.158 47.1279 168.569 47.3655C167.589 47.7167 167.545 48.1069 166.921 48.419C166.298 48.7312 166.654 49.1604 166.476 49.4725C166.298 49.7847 166.343 50.448 165.452 50.9552Z" fill="#3DACFF"/>
<path d="M139.632 56.4562C139.632 56.4562 140.567 55.91 139.454 55.7929C138.341 55.6758 138.385 55.4808 137.762 55.7149C137.345 55.8528 136.943 56.0225 136.56 56.2221L136.115 56.6123L135.67 56.7684L135.536 56.3392C135.358 56.2221 135.136 55.7929 134.869 55.91C134.601 56.027 133.756 55.1686 134.423 56.2221C134.786 56.7927 135.236 57.3177 135.759 57.7828C135.759 57.7828 136.961 57.9779 137.317 57.8219C137.673 57.6658 138.653 57.3146 138.653 57.3146L139.632 56.4562Z" fill="#3DACFF"/>
<path d="M105.175 42.488C105.799 42.9172 106.333 42.6441 107.446 42.566C108.559 42.488 108.381 42.2929 109.627 41.9417C110.874 41.5906 109.404 42.371 108.781 42.6831C108.158 42.9952 107.401 42.7221 106.333 43.1903C105.264 43.6586 106.911 43.5415 107.223 43.7756C107.282 43.8251 107.323 43.8877 107.344 43.9566C107.365 44.0254 107.364 44.098 107.341 44.1663C107.318 44.2347 107.274 44.2962 107.214 44.3443C107.154 44.3923 107.08 44.4251 107.001 44.4389C106.689 44.478 105.977 44.7511 106.244 45.2583C106.309 45.3667 106.405 45.4592 106.521 45.5273C106.638 45.5954 106.772 45.637 106.911 45.6485C106.733 45.6875 106.644 45.5705 105.709 45.6095C104.775 45.6485 105.487 45.9997 105.888 46.2728C106.288 46.5459 105.576 46.585 105.576 46.585C105.576 46.585 105.131 47.1702 105.22 47.2873C105.309 47.4043 105.977 47.4434 106.867 47.4043C107.757 47.3653 107.446 47.2873 108.069 47.0922C108.692 46.8971 108.47 47.2483 108.47 47.2483L109.761 46.9751V46.585C109.761 46.585 109.85 45.5705 110.028 45.4144C110.4 45.2113 110.787 45.0289 111.185 44.8681C111.142 44.5728 111.204 44.2729 111.363 44.0097C111.422 43.8696 111.533 43.7509 111.679 43.673C111.824 43.5951 111.995 43.5625 112.165 43.5805L114.123 42.7221C114.543 42.3268 114.916 41.8954 115.236 41.4345C115.414 41.0443 114.479 40.9663 114.613 40.8882C114.747 40.8102 115.548 41.0053 116.127 40.8492C116.705 40.6932 116.794 40.381 116.972 40.2249L116.082 39.9128C114.951 39.7127 113.806 39.5824 112.654 39.5226C111.797 39.4992 110.942 39.5913 110.117 39.7957C110.117 39.7957 108.692 40.1079 108.603 40.264C108.514 40.42 109.494 41.2004 109.494 41.2004C108.931 41.0214 108.381 40.8129 107.846 40.5761C107.357 40.381 106.288 40.8102 104.508 41.5906C102.727 42.371 104.552 42.0198 105.175 42.488Z" fill="#3DACFF"/>
<path d="M120 66.7963C119.866 66.7183 119.599 67.1085 119.465 67.3036C119.23 67.6414 119.021 67.9934 118.842 68.3571C118.664 68.7863 119.555 68.7863 119.777 68.8253C120.139 68.9125 120.514 68.952 120.89 68.9423C121.291 68.9423 121.246 69.4105 121.647 69.3715C122.048 69.3325 121.691 69.0204 121.691 68.8253C121.624 68.5725 121.535 68.3247 121.424 68.0839C121.291 67.8498 121.068 67.9669 120.756 67.7718C120.445 67.5767 120.489 67.3816 120.356 67.1085C120.222 66.8353 120.133 66.8353 120 66.7963Z" fill="#3DACFF"/>
<path d="M114.524 85.5642C114.212 85.5642 114.212 85.2913 114.079 85.4862C113.946 85.6811 113.901 85.7591 114.123 85.837C114.346 85.915 114.39 85.9929 114.524 85.876C114.657 85.759 114.791 85.876 114.791 85.6811C114.791 85.4862 114.524 85.5642 114.524 85.5642Z" fill="#3DACFF"/>
<path d="M111.363 85.1741C111.586 85.3692 111.675 85.2521 111.987 85.1741C112.298 85.096 112.343 85.096 112.565 85.1741C112.833 85.1971 113.104 85.184 113.367 85.1351L113.456 85.018C113.456 84.94 112.877 84.94 112.877 84.94C112.803 84.7619 112.743 84.5793 112.699 84.3937C112.61 84.0425 112.387 84.2376 111.72 84.2376C111.052 84.2376 111.497 84.4327 111.408 84.7059C111.319 84.979 111.185 84.7839 110.963 84.901C110.74 85.018 111.096 85.018 111.363 85.1741Z" fill="#3DACFF"/>
<path d="M110.517 83.8473C110.829 84.0034 110.918 83.8863 111.052 83.8863C111.05 83.7424 111.036 83.5989 111.007 83.4571C110.918 83.262 110.829 83.262 110.695 83.106C110.562 82.9499 110.339 82.9889 110.117 82.7938C109.894 82.5987 109.671 82.1305 109.538 81.9744C109.404 81.8184 109.004 81.8184 108.781 81.8184H107.98C107.802 81.8184 107.757 81.9354 107.98 82.0525C108.202 82.1695 108.247 82.0525 108.559 82.0915C108.87 82.1305 108.87 82.1695 109.182 82.3646C109.42 82.5454 109.578 82.7941 109.627 83.067C109.852 83.3829 110.157 83.6497 110.517 83.8473V83.8473Z" fill="#3DACFF"/>
<path d="M108.959 84.6667C109.315 84.6667 109.448 84.7056 109.493 84.5887C109.48 84.4996 109.433 84.417 109.359 84.3548C109.226 84.2769 109.137 84.1989 109.004 84.2379C108.87 84.2769 108.692 84.3548 108.781 84.4718C108.87 84.5887 108.603 84.6667 108.959 84.6667Z" fill="#3DACFF"/>
<path d="M109.271 59.5005C109.182 59.6564 109.138 60.0462 109.227 60.0462C109.316 60.0462 109.582 60.0072 109.627 59.8513C109.671 59.6954 109.76 59.5784 109.627 59.5395L109.271 59.5005Z" fill="#3DACFF"/>
<path d="M107.312 59.3049C107.179 59.3829 107.357 59.617 107.535 59.8512C107.713 60.0853 107.847 59.7341 107.936 59.6561C108.025 59.578 108.247 59.461 108.336 59.3049C108.183 59.3071 108.032 59.2805 107.891 59.2269C107.694 59.215 107.496 59.2417 107.312 59.3049Z" fill="#3DACFF"/>
<path d="M108.915 58.5639C109.093 58.3688 108.692 58.3688 108.425 58.2517C108.084 58.0493 107.783 57.7988 107.535 57.5104C107.179 57.1982 107.179 57.2762 106.867 57.2762C106.555 57.2762 106.689 57.3543 106.555 57.4323C106.455 57.5965 106.366 57.7659 106.288 57.9396C106.291 58.2424 106.336 58.5438 106.422 58.837C106.555 59.2662 106.689 59.2662 107.001 59.3052C107.312 59.3442 107.268 59.0711 107.535 58.954L107.935 58.7199C108.114 58.6029 108.203 58.759 108.336 58.798C108.448 58.8082 108.56 58.7919 108.662 58.7507C108.764 58.7095 108.851 58.6449 108.915 58.5639V58.5639Z" fill="#3DACFF"/>
<path d="M111.363 56.1824C111.455 56.1366 111.53 56.0676 111.578 55.9843C111.625 55.9009 111.643 55.8071 111.63 55.7147C111.63 55.5588 111.496 55.2859 111.318 55.2469C111.14 55.208 110.874 55.208 110.785 55.4028C110.696 55.5977 110.607 55.7926 110.785 55.9485C110.962 56.1045 111.229 56.2604 111.363 56.1824Z" fill="#3DACFF"/>
<path d="M108.737 50.7992C108.915 50.8772 109.226 51.0333 109.449 50.9553C109.676 50.8877 109.899 50.8096 110.117 50.7211C110.206 50.6431 110.517 50.448 110.428 50.37C110.26 50.2674 110.052 50.2255 109.849 50.2529C109.67 50.2706 109.489 50.2574 109.315 50.2139C109.315 50.2139 108.692 50.0578 108.647 50.1749C108.603 50.2919 108.558 50.7211 108.737 50.7992Z" fill="#3DACFF"/>
<path d="M101.035 51.2282C100.679 51.1892 100.813 51.0721 100.902 50.9551C100.991 50.838 101.258 50.721 101.258 50.4869C101.258 50.2527 100.857 50.4088 100.412 50.3698C99.9667 50.3308 99.6996 50.4088 99.6106 50.799C99.5216 51.1892 99.8777 50.838 100.011 50.9941C100.145 51.1502 100.1 51.4233 99.7887 51.2672C99.477 51.1111 99.299 51.3062 99.1209 51.5794C98.9428 51.8525 99.388 51.7745 99.6106 51.7745C99.8332 51.7745 100.278 52.2427 100.724 52.3597C101.169 52.4768 101.124 52.3207 101.302 52.1256C101.48 51.9305 101.436 52.1256 101.48 51.9696C101.538 51.7785 101.568 51.5819 101.569 51.3843C101.525 51.1111 101.436 51.2672 101.035 51.2282Z" fill="#3DACFF"/>
<path d="M99.6107 54.1154C99.6107 53.9593 99.2991 53.8032 98.8094 53.4911C98.5877 53.3579 98.4013 53.1844 98.263 52.9824C98.1248 52.7804 98.0378 52.5546 98.0081 52.3205C97.9635 51.7352 97.8745 51.6572 97.5629 51.5401C97.3492 51.4519 97.1536 51.3333 96.9842 51.189C96.7616 51.189 96.4054 51.189 96.4054 51.345C96.4054 51.5011 96.717 51.9303 96.539 52.0474C96.4173 52.1591 96.2635 52.24 96.0938 52.2815C95.906 52.0999 95.6561 51.9767 95.3815 51.9303C94.9523 51.8546 94.5342 51.7368 94.135 51.5792C93.8234 51.4621 93.7789 51.267 93.4227 51.3841C92.9991 51.4308 92.5986 51.5794 92.2653 51.8133C91.9091 52.1254 91.4194 52.3205 91.4194 52.6327C91.4391 52.8431 91.5508 53.0388 91.7311 53.1789C91.7311 53.1789 92.4433 53.1009 92.3543 53.296C92.2653 53.4911 91.7756 53.5691 91.7756 53.7252C91.7756 53.8812 91.9536 53.9203 92.5769 53.9203C93.2001 53.9203 93.6898 53.6862 94.135 53.8032C94.5802 53.9203 95.1589 53.8422 94.7583 54.0763C94.3576 54.3104 93.6008 54.1154 92.933 54.1544C92.2653 54.1934 91.642 54.3885 91.8646 54.7006C92.0872 55.0128 93.1111 55.2079 93.4227 55.1689C93.6514 55.1613 93.8746 55.2311 94.046 55.3639C94.4407 55.5166 94.8623 55.609 95.2925 55.6371L96.1383 55.0128C96.3609 54.8177 96.3164 53.9593 97.2513 54.4665C98.1861 54.9738 98.3642 55.3249 98.8539 55.1298C99.3436 54.9347 98.9875 54.7397 99.032 54.5446C99.0765 54.3495 99.6107 54.2714 99.6107 54.1154Z" fill="#3DACFF"/>
<path d="M88.7038 53.1005C88.8819 53.4127 89.2825 53.3737 90.1729 53.4127C91.0632 53.4517 90.7516 53.3346 91.0632 52.9054C91.2531 52.6318 91.3745 52.3259 91.4194 52.008C91.5974 51.5788 92.2207 51.3837 92.6659 51.1106C92.7323 50.96 92.7772 50.8027 92.7994 50.6424C92.7549 50.4863 92.5768 50.4863 91.9091 50.6424C91.2413 50.7984 91.3749 50.4863 90.529 50.3692C90.0088 50.2907 89.4736 50.3735 89.0154 50.6033C88.4367 50.7984 88.9264 51.0326 89.0154 51.1886C89.0879 51.3327 89.1177 51.4905 89.1021 51.6473C89.0865 51.8042 89.0261 51.9551 88.9264 52.0861C88.793 52.2242 88.7025 52.3901 88.6635 52.5677C88.6245 52.7454 88.6384 52.9289 88.7038 53.1005V53.1005Z" fill="#3DACFF"/>
<path d="M97.2515 50.5259C97.2071 50.6818 97.4739 51.1885 97.6073 51.1496C97.7407 51.1106 98.141 50.9936 98.1854 50.7988C98.2299 50.6039 97.7852 50.4869 97.7852 50.4869C97.7852 50.4869 97.2515 50.37 97.2515 50.5259Z" fill="#3DACFF"/>
<path d="M103.573 48.692C103.617 48.8871 103.573 49.2383 104.241 49.2383C104.918 49.3284 105.607 49.3416 106.288 49.2773C106.912 49.1993 107.98 49.3163 108.158 49.1993C108.392 49.0144 108.615 48.819 108.826 48.614C109.071 48.5738 109.31 48.5083 109.538 48.4189C109.627 48.3409 109.538 48.0677 109.538 48.0677C109.419 47.9467 109.266 47.8545 109.095 47.7999C108.923 47.7453 108.739 47.73 108.559 47.7556C108.045 47.7743 107.536 47.853 107.045 47.9897C106.662 48.1877 106.239 48.3201 105.799 48.3799C105.22 48.3799 104.73 48.4969 104.552 48.1848C104.374 47.8726 104.686 47.8726 104.775 47.6775C104.864 47.4824 104.908 47.2874 104.241 47.2093C103.848 47.1203 103.438 47.107 103.039 47.1703C102.727 47.2483 102.415 46.9752 102.148 47.0532C101.881 47.1313 101.659 46.9362 101.614 47.2483C101.569 47.5605 102.415 47.7946 102.638 47.7556C102.86 47.7166 103.573 47.2093 103.617 47.7556C103.662 48.3018 103.528 48.4969 103.573 48.692Z" fill="#3DACFF"/>
<path d="M102.059 48.4971C101.97 48.6531 101.614 48.7312 101.926 48.9263C102.237 49.1214 102.504 49.4335 102.727 49.1994C102.949 48.9653 103.038 48.8872 103.038 48.6922C103.012 48.576 102.95 48.4683 102.86 48.38C102.593 48.341 102.193 48.302 102.059 48.4971Z" fill="#3DACFF"/>
<path d="M99.8779 47.834L98.9875 48.0291C98.9875 48.0291 98.9876 48.3412 99.0766 48.4193C99.1656 48.4973 99.4772 48.4193 99.8334 48.4583C100.19 48.4973 99.9224 48.7704 100.1 48.9655C100.279 49.1606 100.813 49.0826 101.08 48.9265C101.347 48.7704 101.258 48.6924 101.169 48.5363C101.139 48.4578 101.132 48.3741 101.147 48.2925C101.163 48.2109 101.201 48.1338 101.258 48.0681C101.341 47.9089 101.356 47.7292 101.302 47.5608C101.258 47.4048 100.902 47.4438 100.501 47.4438C100.246 47.5019 100.023 47.6409 99.8779 47.834V47.834Z" fill="#3DACFF"/>
<path d="M92.2653 49.4331C92.2653 49.9014 92.7995 49.5892 93.1112 49.5892C93.4228 49.5892 93.5118 49.4331 93.8235 49.2381C94.1351 49.043 94.1796 49.199 94.3577 49.199C94.5357 49.199 94.7583 49.5502 94.5803 49.6282C94.4022 49.7063 93.5118 50.0184 93.6009 50.2135C93.6899 50.4086 94.0906 50.2916 94.4912 50.1745C94.924 49.9942 95.3407 49.7855 95.7377 49.5502C96.1384 49.2771 96.0048 49.5502 96.5836 49.5112C97.1623 49.4722 97.2513 49.3551 97.3849 49.121C97.4517 49.059 97.5022 48.985 97.533 48.9041C97.5637 48.8233 97.574 48.7375 97.5629 48.6528C97.5184 48.4187 97.4294 48.3796 97.2068 48.3406C96.9842 48.3016 96.9842 48.5357 96.5836 48.4967C96.1829 48.4577 96.7616 48.1846 96.7171 47.9114C96.6726 47.6383 96.0493 47.7553 95.6932 47.9895C95.3371 48.2236 95.7822 48.2626 96.0048 48.4187C96.2274 48.5747 96.1384 48.7308 95.9158 48.9259C95.6932 49.121 95.6932 49.043 95.248 49.043C94.8028 49.043 94.7138 48.7308 94.5803 48.4967C94.4467 48.2626 94.2686 48.3406 93.7789 48.3406C93.2892 48.3406 93.2447 48.4967 92.7105 48.6528C92.1763 48.8089 92.2653 48.9649 92.2653 49.4331Z" fill="#3DACFF"/>
<path d="M94.7136 46.8581L94.8917 46.9362C95.0575 46.9076 95.2113 46.8402 95.3369 46.7411C95.693 46.546 95.2924 46.3899 94.9807 46.3509C94.6553 46.3402 94.3372 46.4378 94.0904 46.624C93.8233 46.7801 94.313 46.9752 94.7136 46.8581Z" fill="#3DACFF"/>
<path d="M89.906 48.9652H90.084C90.1731 48.9652 90.2621 49.0042 90.3512 48.9652H90.4847L90.6183 48.8872H90.7963L90.9299 48.7311C91.0206 48.6227 91.0954 48.5047 91.1525 48.3799C91.1822 48.3019 91.2267 48.2629 91.286 48.2629H91.8648C91.9596 48.2189 92.0372 48.1509 92.0873 48.0678C92.0873 47.9898 92.1319 47.9117 92.1319 47.8337C92.1764 47.7947 92.1764 47.7556 92.2209 47.7556L92.3545 47.8337L92.488 47.7556L92.7996 47.4825V47.2094C92.7551 47.0923 92.6216 47.1313 92.488 47.1704H92.2654C92.1518 47.1852 92.0444 47.2256 91.9538 47.2874L91.6422 47.4435L91.4196 47.5996C91.3305 47.6776 91.1525 47.6776 91.0634 47.7166C90.7027 47.824 90.3804 48.0124 90.1286 48.2629C90.0374 48.3131 89.9614 48.3819 89.9072 48.4635C89.8529 48.545 89.822 48.6368 89.8169 48.7311C89.7961 48.7743 89.7854 48.8208 89.7854 48.8677C89.7854 48.9146 89.7961 48.961 89.8169 49.0042L89.906 48.9652Z" fill="#3DACFF"/>
<path d="M97.9634 45.4537H98.2751C98.4531 45.5317 98.3641 45.5317 98.4531 45.7268C98.5159 45.8679 98.6242 45.9899 98.7647 46.078C99.0871 46.2501 99.4558 46.3444 99.8332 46.3511C100.456 46.3901 100.724 45.9609 100.323 45.4927C99.9222 45.0245 99.5661 45.1415 99.2099 44.9854C98.8269 44.7934 98.4023 44.6738 97.9634 44.6343C97.9189 44.6343 97.8744 44.6343 97.8744 44.6733H97.8299C97.1176 44.7123 97.5183 45.3366 97.9634 45.4537Z" fill="#3DACFF"/>
<path d="M100.5 44.0875C100.589 44.0485 100.634 43.9316 100.5 43.8926C100.367 43.8536 100.233 43.6977 100.1 43.7367C100.059 43.7367 100.018 43.7468 99.9831 43.7658C99.948 43.7848 99.9196 43.812 99.9012 43.8444C99.8827 43.8768 99.8749 43.913 99.8786 43.9491C99.8823 43.9851 99.8974 44.0195 99.9222 44.0485C99.9666 44.2434 100.456 44.3993 100.5 44.0875Z" fill="#3DACFF"/>
<path d="M102.371 44.1659H102.994C103.662 44.2049 103.261 44.478 102.994 44.478C102.727 44.478 102.86 44.5171 102.816 44.5951C102.771 44.6731 103.795 45.5315 104.285 45.4535C104.775 45.3755 104.864 45.1804 105.264 44.9072C105.665 44.6341 106.021 44.7512 106.11 44.361C106.131 44.257 106.116 44.1502 106.069 44.0532C106.022 43.9563 105.943 43.8735 105.843 43.8147C105.697 43.6815 105.563 43.5379 105.443 43.3855C105.353 43.3465 105.398 43.3075 105.353 43.2294C105.255 43.1304 105.134 43.0506 104.997 42.9953L103.662 42.371C103.304 42.2122 102.903 42.1446 102.504 42.1759C102.469 42.1759 102.435 42.1883 102.41 42.2102C102.385 42.2322 102.371 42.262 102.371 42.293C102.233 42.3839 102.12 42.5017 102.043 42.6371C101.966 42.7726 101.926 42.9219 101.926 43.0734C101.97 43.4245 102.059 43.0734 102.015 43.3075H101.881C101.837 43.4245 101.748 43.4636 101.748 43.6196C101.748 43.7757 102.015 44.1269 102.371 44.1659Z" fill="#3DACFF"/>
<path d="M101.836 45.9593H102.147C102.236 45.9983 102.281 45.9593 102.325 45.9204L102.414 45.8424C102.456 45.7461 102.469 45.6423 102.454 45.5403C102.438 45.4383 102.394 45.3412 102.325 45.2577C102.223 45.1923 102.095 45.1643 101.969 45.1798C101.881 45.1408 101.747 45.1018 101.658 45.1798C101.576 45.2582 101.527 45.3589 101.519 45.4653C101.51 45.5716 101.544 45.6771 101.614 45.7645C101.658 45.851 101.737 45.9203 101.836 45.9593Z" fill="#3DACFF"/>
<path d="M104.285 46.351C104.33 46.3119 104.33 46.2729 104.285 46.1949C104.258 46.1439 104.213 46.1015 104.157 46.0736C104.102 46.0456 104.037 46.0335 103.973 46.0388H103.795C103.706 46.0388 103.662 46.0778 103.662 46.1169L103.439 46.1949H103.128C103.038 46.1949 102.949 46.2339 102.949 46.3119C102.949 46.39 103.306 46.6241 103.484 46.6241C103.633 46.6416 103.784 46.6257 103.924 46.5779C104.065 46.5302 104.189 46.4521 104.285 46.351Z" fill="#3DACFF"/>
<path d="M97.9631 47.0913C98.0076 47.2472 98.2745 47.2472 98.23 47.0913C98.228 46.9593 98.1954 46.8291 98.1343 46.7084C98.0731 46.5878 97.9846 46.4794 97.8742 46.3896H97.6963C97.6263 46.4224 97.5707 46.4746 97.5385 46.5382C97.5062 46.6018 97.4992 46.673 97.5184 46.7405C97.5629 46.8964 97.7408 46.9743 97.8742 47.0913H97.9631Z" fill="#3DACFF"/>
<path d="M94.6248 45.9603H94.9809C95.0192 45.984 95.0631 45.9998 95.1094 46.0066C95.1556 46.0133 95.203 46.0109 95.248 45.9993H95.4261C95.4762 46.0329 95.5356 46.0542 95.5981 46.061C95.6607 46.0679 95.7242 46.0601 95.7822 46.0383C95.9158 45.9993 95.9603 45.8433 95.8267 45.8042C95.8267 45.7939 95.822 45.784 95.8137 45.7766C95.8053 45.7693 95.794 45.7652 95.7822 45.7652C95.8267 45.6872 95.7377 45.5701 95.6041 45.5701H95.337C95.0699 45.5311 94.8473 45.6872 94.5802 45.7652C94.3131 45.8433 94.4467 45.9603 94.6248 45.9603Z" fill="#3DACFF"/>
<path d="M170.572 41.6298C170.636 41.6595 170.708 41.6717 170.779 41.6647C170.851 41.6578 170.918 41.632 170.973 41.5908H171.106L171.462 41.5127H171.641C171.73 41.4737 171.774 41.3957 171.819 41.3566H171.863C171.899 41.3566 171.932 41.3443 171.958 41.3224C171.983 41.3004 171.997 41.2706 171.997 41.2396V41.1615C171.991 41.1407 171.982 41.121 171.967 41.1037C171.953 41.0864 171.935 41.0718 171.914 41.0608C171.893 41.0498 171.87 41.0427 171.846 41.0399C171.822 41.0371 171.797 41.0387 171.774 41.0445L171.596 41.2006L171.418 41.3176C171.195 41.2786 171.106 41.3566 170.973 41.4737H170.928L170.75 41.3957C170.483 41.2396 170.35 41.4737 170.572 41.6298Z" fill="#3DACFF"/>
<path d="M169.103 41.3956C169.103 41.5515 169.147 41.7074 169.325 41.7464H169.903C170.037 41.7074 170.037 41.5905 169.948 41.5125C169.983 41.497 170.01 41.4698 170.023 41.4369C170.035 41.404 170.032 41.3681 170.014 41.3371C169.997 41.3061 169.966 41.2825 169.928 41.2715C169.891 41.2606 169.85 41.2631 169.814 41.2786L169.681 41.3566L169.414 41.2397C169.236 41.1227 169.147 41.2786 169.103 41.3956Z" fill="#3DACFF"/>
<path d="M168.168 40.8491L168.435 40.7321C168.48 40.7308 168.525 40.7193 168.564 40.6988C168.603 40.6784 168.635 40.6495 168.658 40.615V40.537H169.103C169.281 40.576 169.37 40.3419 169.192 40.2639C168.99 40.2044 168.771 40.2044 168.569 40.2639L168.168 40.3809C168.123 40.2638 167.945 40.2248 167.901 40.3419C167.856 40.4589 167.812 40.4589 167.812 40.537C167.812 40.615 167.767 40.576 167.767 40.615C167.767 40.654 167.99 40.8881 168.168 40.8491Z" fill="#3DACFF"/>
<path d="M167.411 41.5127H167.766C167.855 41.5906 168.033 41.4737 167.989 41.3568V41.2788H167.366C167.233 41.2788 167.01 41.3957 167.099 41.5517C167.188 41.7076 167.277 41.5127 167.411 41.5127Z" fill="#3DACFF"/>
<path d="M168.034 41.864C167.989 41.864 167.945 41.825 167.856 41.864H167.723C167.545 41.864 167.545 42.1368 167.723 42.1368H168.078C168.212 42.1368 168.301 42.0199 168.434 42.0199C168.568 42.0199 168.567 41.708 168.39 41.747C168.212 41.786 168.167 41.864 168.034 41.864Z" fill="#3DACFF"/>
<path d="M162.425 41.5522H163.716C163.85 41.6302 163.894 41.7083 163.672 41.7473C163.644 41.7608 163.621 41.7806 163.604 41.8046C163.588 41.8286 163.58 41.856 163.58 41.8839C163.58 41.9117 163.588 41.9391 163.604 41.9631C163.621 41.9871 163.644 42.0069 163.672 42.0204H164.028L164.161 41.9424L164.25 41.8253C164.278 41.8072 164.3 41.7836 164.316 41.7565C164.331 41.7294 164.339 41.6995 164.339 41.6693L164.606 41.5522H164.963L165.23 41.6302C165.208 41.6669 165.193 41.7065 165.185 41.7473C165.319 41.9424 165.274 41.9814 165.63 41.9814H165.764V41.9034C165.897 42.0594 165.942 42.0985 166.298 42.0985C166.654 42.0985 166.521 41.7863 166.298 41.8253C166.211 41.8296 166.125 41.8091 166.053 41.7669C165.981 41.7247 165.926 41.663 165.898 41.5912C165.89 41.5726 165.876 41.556 165.859 41.5431C165.842 41.5302 165.821 41.5213 165.799 41.5174C165.776 41.5135 165.753 41.5147 165.732 41.5208C165.71 41.5268 165.69 41.5377 165.675 41.5522C165.452 41.7473 165.63 41.5522 165.497 41.3571C165.44 41.2609 165.347 41.185 165.233 41.1423C165.119 41.0996 164.992 41.0928 164.874 41.123H163.894C163.805 41.175 163.761 41.214 163.761 41.2401C163.583 41.201 163.494 41.084 163.271 41.084C163.048 41.084 162.781 41.2791 162.47 41.2401C162.158 41.201 162.292 41.5132 162.425 41.5522Z" fill="#3DACFF"/>
</g>
<path d="M173.747 181.46C151.008 182.27 128.721 175.61 106.343 171.02C94.3423 168.5 82.7716 166.82 70.5 167C86.8667 184.101 107.968 194.519 131.587 196.509C155.206 198.498 177.99 191.121 197 177C189.176 179.198 181.869 181.147 173.747 181.46Z" fill="#0092FF"/>
<path d="M69.4383 163.55C80.3564 163.37 92.2671 164.72 107.065 167.78C111.848 168.68 116.63 169.85 121.322 170.84C138.466 174.71 156.152 178.76 173.657 178.13C181.499 177.82 189.28 176.612 196.847 174.53L202 173.135C210.958 165.274 220.028 154.576 225.5 144C209.835 153.94 192.299 160.121 173.747 160.85C151.008 161.66 128.721 155 106.343 150.41C89.5601 146.9 72.193 144.62 55.5 147.5C58.7806 153.182 62.7176 158.525 67 163.5L69.4383 163.55Z" fill="#0060C7"/>
<path d="M46.0679 125.48C67.0921 119.63 89.6502 122.96 107.065 126.56C111.847 127.46 116.63 128.63 121.322 129.62C138.466 133.49 156.152 137.54 173.657 136.91C195.406 136.034 216.305 128.245 233.3 114.68L236 112.5C236.546 108.322 237.005 104.043 237 99.8303C237 98.3903 236.91 96.9503 236.91 95.5103C219.06 110.212 196.877 118.684 173.747 119.63C151.008 120.44 128.721 113.78 106.343 109.19C85.4093 104.87 63.1219 102.44 43 109.28C43.522 114.756 44.5183 120.176 45.9777 125.48H46.0679Z" fill="#3DACFF"/>
<path d="M173.747 140.24C151.008 141.05 128.721 134.39 106.343 129.8C86.7628 125.75 66.0093 123.32 46.9702 128.72C48.6753 134.105 51.062 139.162 53.6208 144.2L54.5 144C73.1781 140.85 92.4474 144.11 107.065 147.17C111.847 148.07 116.63 149.24 121.322 150.23C138.466 154.1 156.152 158.15 173.657 157.52C191.626 156.806 209.088 151.373 224.277 141.77L228 139C231.032 132.081 233.655 124.431 235 117C217.441 131.018 196.22 139.351 173.747 140.24Z" fill="#0092FF"/>
<path d="M169.957 181.46C153.354 181.46 136.752 177.77 120.69 174.17L106.343 171.02C91.8158 168.05 81.0572 166.82 70.5 167C79.6873 176.532 89.7321 184.003 101.922 189.2H102.012C113.947 194.235 126.771 196.836 139.729 196.85C152.722 196.888 165.586 194.285 177.537 189.2H177.627C184.737 186.162 190.802 181.615 197 177C189.215 179.235 181.843 181.185 173.747 181.46H169.957Z" fill="#0049A8"/>
<path d="M254.172 149.661C253.632 151.641 249.762 155.601 249.762 155.601C250.107 156.21 250.322 156.885 250.392 157.581C251.472 155.871 255.522 152.901 255.522 152.901C256.208 150.843 257.02 148.83 257.952 146.871C259.333 144.234 261.125 141.834 263.262 139.761C264.036 137.74 264.969 135.784 266.052 133.911C266.052 133.911 266.322 128.151 266.142 126.441C265.962 124.731 266.232 116.901 266.232 115.911C266.202 115.581 266.107 115.26 265.952 114.966C265.798 114.673 265.587 114.413 265.332 114.201C264.702 113.751 261.822 112.762 258.222 116.002C254.622 119.242 256.332 134.002 256.332 134.002C254.442 138.682 254.712 147.771 254.172 149.661Z" fill="#0049A8"/>
<path d="M246.972 137.422C246.513 139.764 246.302 142.147 246.342 144.532C246.432 147.502 247.062 152.362 247.062 152.362C247.85 152.724 248.554 153.245 249.132 153.892C249.132 153.892 252.282 151.282 252.732 149.392C253.182 147.502 253.452 137.782 254.892 134.362L253.812 125.992C253.812 125.992 254.082 119.062 252.372 117.622L251.922 117.172C249.312 116.902 243.552 118.972 244.812 127.522C246.072 136.072 246.972 137.422 246.972 137.422Z" fill="#0049A8"/>
<path d="M245.622 151.011C245.158 146.404 245.128 141.763 245.532 137.151C244.272 134.811 243.462 127.701 243.462 127.701C238.422 130.131 239.682 137.241 239.682 137.241C238.152 140.031 237.792 146.061 237.792 146.061C236.532 147.951 236.892 152.721 236.892 152.721C240.762 149.931 245.622 151.011 245.622 151.011Z" fill="#0049A8"/>
<path d="M14.5016 126.441C14.3216 128.151 14.5916 133.911 14.5916 133.911C15.6748 135.784 16.6078 137.74 17.3818 139.761C19.5188 141.834 21.3108 144.234 22.6918 146.871C23.6238 148.83 24.4358 150.843 25.1218 152.901C25.1218 152.901 29.1718 155.871 30.2518 157.581C30.3218 156.885 30.5368 156.21 30.8818 155.601C30.8818 155.601 27.0118 151.641 26.4718 149.661C25.9318 147.681 26.2018 138.682 24.3118 134.002C24.3118 134.002 25.9318 119.242 22.4218 116.002C18.9118 112.762 15.9418 113.751 15.3116 114.201C15.0565 114.413 14.8457 114.673 14.6912 114.966C14.5368 115.26 14.4418 115.581 14.4116 115.911C14.4116 116.901 14.7716 124.731 14.5016 126.441Z" fill="#0049A8"/>
<path d="M27.9119 149.391C28.3619 151.281 31.512 153.891 31.512 153.891C32.089 153.244 32.794 152.723 33.582 152.361C33.582 152.361 34.212 147.501 34.302 144.531C34.342 142.145 34.131 139.762 33.672 137.421C33.672 137.421 34.572 136.161 35.832 127.521C37.092 118.881 31.332 116.901 28.722 117.171L28.2719 117.621C26.5619 119.061 26.832 125.991 26.832 125.991L25.752 134.361C27.192 137.781 27.5519 147.411 27.9119 149.391Z" fill="#0049A8"/>
<path d="M35.022 151.011C35.022 151.011 39.882 149.931 43.752 152.721C43.752 152.721 44.112 147.951 42.852 146.061C42.852 146.061 42.492 140.031 40.962 137.241C40.962 137.241 42.222 130.131 37.182 127.701C37.182 127.701 36.372 134.811 35.112 137.151C35.516 141.763 35.486 146.404 35.022 151.011Z" fill="#0049A8"/>
<path d="M72.9118 179.541C66.2518 177.831 59.7718 171.171 55.5418 166.401C51.3118 161.631 45.1918 151.461 37.9018 152.361C30.6118 153.261 30.8818 159.201 33.0418 162.171C35.2018 165.141 38.7118 167.661 40.0618 171.081C41.4118 174.501 47.5318 179.271 51.6718 183.321C55.8118 187.371 58.8718 194.211 61.2118 197.451C61.2118 197.451 58.8718 194.841 56.2618 191.511C53.6518 188.181 52.0318 184.761 46.0918 180.801C40.1518 176.841 39.7918 174.321 38.5318 172.071C37.2718 169.821 34.4818 165.951 32.4118 164.511C30.3418 163.071 28.9918 158.211 28.9918 158.211C27.7648 156.741 26.2678 155.519 24.5818 154.611C24.5818 154.611 21.5218 144.981 16.6618 141.291C16.6618 141.291 11.5317 128.421 5.0517 128.061C2.0817 127.971 0.0117049 129.231 0.191705 130.671C0.191705 130.671 -0.618301 131.931 1.0917 134.721C2.8017 137.511 5.5017 143.451 6.4917 145.431C7.4817 147.411 11.5317 156.321 12.0717 159.201C12.6117 162.081 14.8617 167.121 20.2618 171.801C25.4028 176.41 29.5118 182.054 32.3218 188.361C34.6618 193.941 41.7718 199.521 49.0618 204.471C56.3518 209.421 72.2818 222.111 71.2018 238.671C70.9318 242.451 70.3918 247.311 69.5818 252.621H102.072C102.162 249.741 102.342 247.041 102.612 244.881C104.142 230.751 106.662 213.291 101.982 201.501C97.3018 189.711 79.5718 181.251 72.9118 179.541Z" fill="#0049A8"/>
<path d="M280.452 130.671C280.632 129.231 278.562 127.971 275.592 128.061C269.112 128.421 263.982 141.291 263.982 141.291C259.122 144.981 256.062 154.611 256.062 154.611C254.376 155.519 252.879 156.741 251.652 158.211C251.652 158.211 250.212 163.071 248.232 164.511C246.252 165.951 243.372 169.911 242.112 172.071C240.852 174.231 240.492 176.751 234.552 180.801C228.612 184.851 226.902 188.181 224.382 191.511C221.862 194.841 219.432 197.451 219.432 197.451C221.772 194.211 224.832 187.281 228.972 183.321C233.112 179.361 239.322 174.501 240.582 171.081C241.842 167.661 245.442 165.231 247.602 162.171C249.762 159.111 250.032 153.171 242.742 152.361C235.452 151.551 229.422 161.721 225.102 166.401C220.782 171.081 214.392 177.831 207.732 179.541C201.072 181.251 183.432 189.621 178.662 201.501C173.892 213.381 176.502 230.751 178.032 244.881C178.302 247.041 178.482 249.741 178.572 252.621H211.062C210.252 247.311 209.712 242.451 209.442 238.671C208.362 222.111 224.292 209.421 231.582 204.471C238.872 199.521 245.982 193.941 248.322 188.361C251.132 182.054 255.241 176.41 260.382 171.801C265.782 167.121 267.942 162.081 268.572 159.201C269.202 156.321 273.162 147.411 274.152 145.431C275.142 143.451 277.842 137.421 279.552 134.721C281.262 132.021 280.452 130.671 280.452 130.671Z" fill="#0049A8"/>
<path d="M262.362 276.201H221.592V237.861H262.362L254.262 257.031L262.362 276.201Z" fill="#0060C7"/>
<path d="M18.2817 276.201H59.0517V237.861H18.2817L26.3817 257.031L18.2817 276.201Z" fill="#0060C7"/>
<path d="M59.0517 276.201L35.2017 263.781L59.0517 237.861V276.201Z" fill="#002B6B"/>
<path d="M221.592 276.201L245.442 263.781L221.592 237.861V276.201Z" fill="#002B6B"/>
<path d="M245.562 225.401H35.3218V263.705H245.562V225.401Z" fill="#0092FF"/>
<path d="M91.4517 254.401V243.661H76.7217V254.401H75.2817V232.951H76.7217V242.371H91.4517V232.951H92.8917V254.401H91.4517ZM101.94 246.961L98.8497 254.401H97.3197L106.35 232.801H107.19L116.25 254.401H114.63L111.54 246.961H101.94ZM106.68 235.201C106.66 235.221 106.62 235.341 106.56 235.561C106.28 236.421 106.01 237.151 105.75 237.751L102.45 245.731H111.03L107.73 237.781C107.03 236.261 106.68 235.401 106.68 235.201ZM125.041 249.211L131.251 233.371H132.121L137.551 249.331C137.971 250.591 138.251 251.501 138.391 252.061C138.551 251.401 138.831 250.501 139.231 249.361L144.751 232.951H146.251L138.781 254.581H137.941L132.391 238.681C132.311 238.421 132.221 238.161 132.121 237.901C132.041 237.641 131.971 237.411 131.911 237.211C131.851 237.011 131.791 236.841 131.731 236.701L131.611 236.341C131.591 236.241 131.581 236.181 131.581 236.161C131.341 236.881 131.031 237.711 130.651 238.651L124.381 254.581H123.541L116.011 232.951H117.601L123.091 249.091C123.351 249.811 123.561 250.461 123.721 251.041C123.901 251.621 124.001 251.941 124.021 252.001C124.121 251.541 124.461 250.611 125.041 249.211ZM152.168 251.551C150.188 249.411 149.198 246.781 149.198 243.661C149.198 240.541 150.188 237.921 152.168 235.801C154.168 233.661 156.688 232.591 159.728 232.591C162.768 232.591 165.288 233.661 167.288 235.801C169.288 237.921 170.288 240.541 170.288 243.661C170.288 245.501 169.908 247.211 169.148 248.791C168.408 250.351 167.378 251.641 166.058 252.661C170.158 255.141 173.318 256.761 175.538 257.521C178.178 258.421 180.558 258.871 182.678 258.871C183.898 258.871 185.288 258.711 186.848 258.391C188.408 258.071 189.528 257.741 190.208 257.401L190.568 258.241C189.788 258.641 188.588 259.031 186.968 259.411C185.368 259.791 183.938 259.981 182.678 259.981C181.418 259.981 180.078 259.821 178.658 259.501C177.258 259.201 176.048 258.881 175.028 258.541C174.028 258.201 172.778 257.661 171.278 256.921C169.778 256.181 168.698 255.621 168.038 255.241C167.398 254.881 166.348 254.281 164.888 253.441C163.308 254.321 161.588 254.761 159.728 254.761C156.688 254.761 154.168 253.691 152.168 251.551ZM153.248 236.731C151.588 238.591 150.758 240.901 150.758 243.661C150.758 246.421 151.588 248.741 153.248 250.621C154.928 252.501 157.088 253.441 159.728 253.441C161.168 253.441 162.468 253.151 163.628 252.571C161.128 250.871 159.158 250.021 157.718 250.021C156.818 250.021 156.088 250.181 155.528 250.501L155.048 249.631C155.788 249.131 156.698 248.881 157.778 248.881C158.858 248.881 159.938 249.141 161.018 249.661C162.118 250.181 163.378 250.921 164.798 251.881C166.038 251.001 166.998 249.841 167.678 248.401C168.378 246.961 168.728 245.381 168.728 243.661C168.728 240.901 167.888 238.591 166.208 236.731C164.548 234.851 162.388 233.911 159.728 233.911C157.068 233.911 154.908 234.851 153.248 236.731ZM177.789 246.961L174.699 254.401H173.169L182.199 232.801H183.039L192.099 254.401H190.479L187.389 246.961H177.789ZM182.529 235.201C182.509 235.221 182.469 235.341 182.409 235.561C182.129 236.421 181.859 237.151 181.599 237.751L178.299 245.731H186.879L183.579 237.781C182.879 236.261 182.529 235.401 182.529 235.201ZM196.542 254.401V232.951H197.982V253.081H207.852V254.401H196.542Z" fill="white"/>
<defs>
<clipPath id="clip0_88_201">
<rect x="42" width="195" height="196" rx="97.5" fill="white"/>
</clipPath>
</defs>
</svg>
