<svg width="450" height="450" viewBox="0 0 450 450" fill="none" xmlns="http://www.w3.org/2000/svg">
<g clip-path="url(#clip0_82_141)">
<path d="M450 0H0V450H450V0Z" fill="white"/>
<g clip-path="url(#clip1_82_141)">
<rect x="126.9" y="87.2998" width="195.3" height="195.3" rx="97.65" fill="white"/>
<path d="M287.298 107.655C286.473 107.512 284.082 106.581 283.423 106.367C282.763 106.152 280.949 105.293 279.877 104.72C278.909 104.267 277.973 103.765 277.074 103.216C276.332 102.643 276.249 102.142 274.6 102.142C272.951 102.142 271.962 101.999 271.714 102.214C271.467 102.429 271.467 103.145 270.643 103.288C269.818 103.431 269.736 102.715 268.664 102.572C267.433 102.446 266.193 102.398 264.953 102.429C263.552 102.429 262.315 102.214 262.233 101.927C262.15 101.641 262.892 100.853 261.49 100.209C260.213 99.5785 258.753 99.2803 257.285 99.3497C256.214 99.5645 255.389 100.066 254.647 99.2781C253.905 98.4905 253.41 97.5597 252.668 97.3449C251.757 96.9423 250.786 96.653 249.782 96.4857C249.123 96.4857 248.133 95.6265 247.309 95.6265C246.484 95.6265 245.577 94.8389 245.412 95.6981C245.247 96.5573 246.237 97.2733 245.33 97.5597C244.503 97.882 243.584 97.9817 242.691 97.8461L239.806 97.4165C239.146 97.3449 239.064 96.4857 238.486 97.2733C237.909 98.0609 238.321 98.4189 237.579 98.2041C236.837 97.9893 235.271 97.9177 235.765 96.9869C236.26 96.0561 236.92 95.9129 236.672 95.3401C236.425 94.7673 235.683 93.4785 235.271 93.4069C234.458 93.2535 233.628 93.1814 232.797 93.1921C232.259 93.3185 231.735 93.4862 231.231 93.6933C230.434 94.102 229.517 94.3009 228.592 94.2661C227.438 94.2661 226.696 94.3377 226.861 93.9081C227.026 93.4785 227.438 92.8341 226.696 92.8341C225.484 92.8516 224.273 92.8038 223.068 92.6909C222.078 92.6193 221.666 92.1181 220.265 92.4045C218.863 92.6909 218.533 93.4069 217.296 93.1205C216.059 92.8341 217.214 91.6885 219.77 90.8293C222.326 89.9701 223.48 88.7529 223.728 88.0369C223.975 87.3209 220.594 85.9605 219.522 85.8889C218.451 85.8173 218.533 85.4593 218.286 86.0321C218.038 86.6049 217.296 87.1777 216.802 86.4617C216.307 85.7457 215.812 85.1013 215.482 85.0297C215.153 84.9581 214.246 84.0989 213.339 85.0297C212.432 85.9605 212.349 86.4617 211.607 86.6049C210.865 86.7481 209.134 86.7481 208.391 87.0345C207.079 87.3757 205.721 87.5682 204.351 87.6073C203.362 87.6073 202.373 87.2493 201.466 87.6789C200.559 88.1085 200.064 88.6813 200.311 89.1825C200.559 89.6837 200.806 89.8985 200.641 90.6145C200.476 91.3305 200.064 91.2589 199.322 91.4737C198.58 91.6885 197.755 91.4737 196.683 91.6169C195.611 91.7601 195.034 90.8293 194.787 91.6169C194.702 92.0166 194.759 92.4291 194.951 92.8C195.142 93.1708 195.459 93.4823 195.859 93.6933C196.766 94.0513 197.508 93.9081 197.26 94.5525C197.013 95.1969 195.941 95.4833 195.529 95.1253C195.104 94.6879 194.524 94.3857 193.88 94.2661C193.055 94.1945 192.973 93.8365 192.148 94.1945C191.324 94.5525 191.819 95.4833 191.406 95.6265C190.994 95.7697 190.417 95.2685 190.582 94.6241C190.747 93.9797 191.159 93.2637 190.582 93.2637C190.005 93.2637 189.18 92.9773 189.345 93.9081C189.51 94.8389 189.18 95.6981 189.345 96.3425C189.51 96.9869 189.922 97.7029 190.087 98.2041C190.252 98.7053 190.912 98.8485 191.819 99.2065C192.726 99.5645 192.808 100.925 192.808 100.925C192.808 100.925 192.313 99.9225 191.654 99.9225C190.994 99.9225 190.17 99.2781 190.087 99.9225C190.005 100.567 190.417 100.853 189.757 101.569C189.161 102.251 188.401 102.813 187.531 103.216C186.707 103.503 185.8 103.288 185.965 103.001C186.129 102.715 187.614 102.715 188.191 102.285C188.458 102.111 188.673 101.884 188.817 101.622C188.96 101.36 189.028 101.072 189.015 100.782C188.927 100.21 188.672 99.6677 188.273 99.2065C187.879 98.5688 187.68 97.8538 187.696 97.1301C187.696 96.1277 187.119 96.4141 187.449 95.4117C187.779 94.4093 188.191 94.1945 188.356 93.5501C188.521 92.9057 188.85 92.1181 188.108 92.0465C187.366 91.9749 186.624 91.5453 185.717 91.9749C184.81 92.4045 184.398 91.9033 184.316 92.9773C184.233 94.0513 184.728 94.6241 184.233 95.1969C183.738 95.7697 183.161 95.2685 183.409 96.2709C183.426 97.021 183.714 97.7473 184.233 98.3473C184.81 98.9917 185.47 99.2065 185.305 99.7793C185.14 100.352 184.81 101.426 184.316 100.495C183.822 99.648 183.046 98.9494 182.089 98.4905C181.537 98.0718 180.842 97.8204 180.11 97.7745C178.791 97.6313 178.297 97.2017 177.967 97.6313C177.637 98.0609 178.132 98.2041 178.379 98.7053C178.626 99.2065 178.791 99.4929 177.307 99.5645C175.823 99.6361 173.514 100.137 173.349 100.066C173.185 99.9941 173.679 99.3497 172.442 99.3497C171.941 99.3408 171.442 99.4185 170.975 99.5782C170.507 99.738 170.082 99.9767 169.722 100.281C169.392 100.639 168.155 100.997 167.248 101.498C166.341 101.999 164.857 101.927 164.527 102.142C164.197 102.357 164.362 102.572 163.62 103.001C162.878 103.431 161.889 102.93 161.476 103.216C160.999 103.795 160.446 104.324 159.827 104.791C159.085 105.149 158.508 104.791 158.261 105.293C158.013 105.794 159.333 106.08 158.838 106.581C158.52 106.828 158.11 106.964 157.684 106.964C157.258 106.964 156.847 106.828 156.529 106.581C155.952 106.08 156.199 106.08 156.035 104.791C155.87 103.503 156.282 103.431 155.622 102.787C155.221 102.485 154.934 102.086 154.798 101.641C155.375 102.094 156.091 102.392 156.859 102.5C158.013 102.643 158.838 103.001 159.58 102.715C160.275 102.409 160.938 102.05 161.559 101.641C162.301 101.211 162.961 100.639 161.889 100.066C161.004 99.6239 160.019 99.3551 159.003 99.2781C157.979 99.0259 156.985 98.6902 156.035 98.2757C154.798 97.7745 154.468 98.4905 153.973 97.7029C153.479 96.9153 153.396 96.7721 152.324 96.8437C151.252 96.9153 153.231 95.8413 152.324 95.5549C151.417 95.2685 151.17 95.0537 150.428 95.1969C149.686 95.3401 150.18 95.0537 148.944 95.6981C147.707 96.3425 149.686 94.8389 148.696 94.6957C147.707 94.5525 147.377 94.8389 146.635 95.4833C145.578 96.2502 144.414 96.8996 143.172 97.4165C141.693 98.2415 140.542 99.4413 139.874 100.853C138.735 103.104 137.112 105.145 135.092 106.868C133.278 108.157 131.134 107.727 130.969 108.586C130.578 109.921 130.521 111.312 130.804 112.667C131.299 113.813 131.217 113.956 132.041 113.598C133.041 113.167 133.982 112.638 134.844 112.023C135.587 111.379 136.081 111.164 136.329 112.095C136.576 113.025 137.4 114.386 137.648 115.245C137.895 116.104 137.071 117.107 138.06 116.963C138.514 116.882 138.933 116.691 139.269 116.412C139.604 116.134 139.842 115.779 139.956 115.388C140.103 114.437 140.561 113.542 141.276 112.811C141.846 112.247 142.37 111.649 142.842 111.021C142.925 110.806 141.523 110.376 141.523 109.732C141.523 109.087 141.935 107.512 142.677 107.154C143.419 106.796 144.904 106.295 144.986 105.937C145.068 105.579 144.656 104.433 145.316 103.861C145.648 103.543 146.109 103.351 146.602 103.324C147.094 103.297 147.58 103.438 147.954 103.717C148.696 104.362 148.696 105.006 147.789 105.364C146.882 105.722 146.882 106.295 146.14 106.939C145.398 107.584 144.491 107.226 144.739 108.658C144.986 110.09 144.656 111.45 145.646 111.164C146.635 110.877 148.119 110.877 149.274 110.734C150.428 110.591 151.83 110.376 152.242 110.806C152.654 111.235 151.582 111.737 150.428 111.737C149.274 111.737 147.707 111.45 146.882 111.88C146.058 112.309 146.47 112.309 147.047 113.169C147.624 114.028 148.119 114.243 147.46 114.672C146.8 115.102 146.058 115.388 145.811 114.815C145.563 114.243 145.233 113.169 144.821 114.243C144.652 114.975 144.652 115.73 144.821 116.462C144.821 117.035 143.914 117.536 142.842 117.608C141.77 117.679 141.358 116.749 140.286 117.894C139.214 119.04 137.565 118.753 136.493 118.682C136.251 118.674 136.013 118.622 135.794 118.529C135.576 118.436 135.383 118.304 135.228 118.142C135.072 117.98 134.958 117.791 134.892 117.588C134.826 117.385 134.81 117.172 134.844 116.963C135.009 116.033 135.834 115.317 135.669 114.529C135.504 113.741 134.927 112.667 134.35 113.527C134.07 113.864 133.881 114.251 133.795 114.659C133.709 115.068 133.73 115.488 133.855 115.889C134.088 116.49 134.117 117.137 133.937 117.751C133.855 118.682 131.381 118.825 131.052 118.968C130.722 119.111 130.722 120.615 130.145 121.403C129.568 122.19 128.578 121.761 128.166 121.975C127.754 122.19 127.259 121.474 127.259 120.901C127.259 120.329 127.176 119.04 126.599 118.467C125.933 117.894 125.326 117.271 124.785 116.605C123.796 115.317 123.054 115.388 123.549 114.815C124.043 114.243 123.961 112.811 123.301 112.739C122.642 112.667 123.631 111.45 122.229 111.737C120.828 112.023 120.086 112.309 120.333 113.24C120.58 114.171 119.756 114.457 120.58 115.388C121.405 116.319 120.828 116.104 121.57 116.534C122.312 116.963 123.301 116.462 122.889 117.679C122.477 118.897 123.219 118.467 122.559 118.897C121.9 119.326 121.24 118.61 121.487 119.398C121.735 120.185 123.384 119.971 123.301 120.472C123.295 120.673 123.232 120.87 123.117 121.045C123.002 121.22 122.838 121.368 122.642 121.474C122.039 121.72 121.46 122.008 120.91 122.333C120.91 122.333 118.766 122.333 120.003 122.906C121.24 123.479 123.384 122.835 123.384 122.835C124.382 122.593 125.403 122.425 126.434 122.333C126.847 122.405 127.506 122.19 127.836 122.333C128.166 122.477 128.496 122.835 127.918 123.264C127.413 123.66 126.78 123.91 126.105 123.98C125.445 124.052 124.785 124.052 124.538 124.553C124.291 125.054 123.878 124.481 122.971 124.983C122.064 125.484 123.384 125.913 124.208 126.701C125.033 127.489 126.022 129.064 125.94 129.851C125.857 130.639 126.269 131.069 125.28 131.212C124.23 131.23 123.181 131.158 122.147 130.997C121.57 130.997 119.508 130.209 119.344 130.567C119.179 130.925 118.107 131.498 118.354 132.429C118.601 133.36 118.272 134.935 118.354 136.081C118.437 137.226 119.426 137.441 120.25 137.727C121.075 138.014 122.312 138.085 123.219 138.229C123.718 138.316 124.234 138.297 124.722 138.172C125.211 138.047 125.657 137.821 126.022 137.513C126.823 136.598 127.463 135.584 127.918 134.505C128.578 133.217 129.732 130.997 130.475 130.639C131.217 130.281 132.536 130.639 133.608 130.496C134.68 130.353 134.515 129.422 135.422 130.567C136.329 131.713 136.741 132.859 137.895 133.503C139.049 134.147 140.121 134.434 140.286 135.078C140.351 135.224 140.381 135.379 140.374 135.535C140.368 135.691 140.324 135.844 140.247 135.984C140.17 136.125 140.06 136.251 139.925 136.353C139.79 136.456 139.633 136.534 139.462 136.582C138.472 136.868 137.483 136.51 137.73 137.226C138 137.708 138.431 138.107 138.967 138.372C139.526 137.941 139.999 137.433 140.369 136.868C140.616 136.367 141.028 136.51 141.688 135.723C142.348 134.935 142.925 134.362 142.183 133.789C141.441 133.217 140.369 133.145 139.627 132.214C138.885 131.283 137.071 130.997 137.483 129.78C137.895 128.563 138.06 127.847 138.72 128.348C139.379 128.849 138.307 129.923 140.204 130.925C142.1 131.928 143.255 131.283 143.419 132.429C143.584 133.575 143.255 134.577 143.584 135.436C143.914 136.295 145.481 136.653 145.481 137.369C145.481 138.085 146.882 137.369 147.047 136.797C147.212 136.224 146.223 135.579 146.717 134.505C147.212 133.431 147.789 133.145 148.779 133.288C149.768 133.431 151.005 133.575 151.087 133.288C151.17 133.002 151.005 132.715 151.17 131.283C151.335 129.851 151.252 129.995 152.324 128.491C153.396 126.987 153.891 126.773 154.55 127.059C155.21 127.345 156.117 127.632 155.705 127.918C155.293 128.205 154.303 127.918 154.798 128.921C155.293 129.923 155.952 130.353 156.529 130.066C157.106 129.78 158.013 129.78 157.684 129.064C157.354 128.348 156.942 128.777 157.024 127.918C157.01 127.649 157.1 127.383 157.279 127.163C157.458 126.943 157.717 126.78 158.013 126.701C158.426 126.558 159.085 125.555 159.498 126.486C159.91 127.417 159.662 127.847 159.085 128.133C158.508 128.419 157.766 127.632 158.096 128.563C158.426 129.493 158.838 129.493 159.415 129.78C159.992 130.066 160.24 130.353 160.899 130.925C161.559 131.498 162.301 130.997 162.301 132.071C162.301 133.145 161.394 133.36 160.487 133.503C159.58 133.646 159.085 134.362 158.178 133.575C157.271 132.787 157.106 132.071 155.952 132.214C154.798 132.357 154.798 132.715 153.891 133.217C152.984 133.718 152.489 133.718 151.087 133.933C149.686 134.147 149.026 133.718 148.861 134.505C148.838 135.107 149.009 135.702 149.356 136.224C149.686 136.797 149.109 136.725 149.686 137.441C150.263 138.157 152.077 138.873 152.736 138.515C153.396 138.157 153.891 137.513 154.386 137.799C154.88 138.085 155.54 138.658 156.282 138.3C157.024 137.942 157.436 137.942 157.519 138.587C157.601 139.231 156.942 140.09 156.529 141.164C156.117 142.238 155.87 142.883 154.386 143.241C153.363 143.47 152.307 143.566 151.252 143.527C150.265 143.584 149.276 143.437 148.367 143.097C147.295 142.811 147.212 142.023 145.893 142.023C144.574 142.023 143.997 141.737 143.584 142.381C143.172 143.026 143.584 143.384 143.172 143.957C142.76 144.529 142.76 143.957 140.781 143.241C139.445 142.666 138.151 142.02 136.906 141.307C135.916 140.878 136.164 138.443 135.916 138.014C135.762 137.764 135.516 137.565 135.218 137.448C134.92 137.332 134.585 137.304 134.267 137.369L131.134 137.942C130.062 138.085 128.331 138.085 127.836 138.372C127.341 138.658 127.259 139.088 125.857 139.303C125.098 139.436 124.322 139.484 123.549 139.446C121.735 139.446 121.405 139.016 120.828 139.732C120.25 140.448 120.333 141.164 119.921 141.451C119.508 141.737 119.096 141.451 118.766 142.238C118.437 143.026 119.426 143.813 118.189 144.673C116.952 145.532 115.221 146.463 114.479 148.11C113.737 149.756 112.5 152.549 112.5 152.549C112.5 152.549 113.489 152.262 113.077 154.339C112.665 156.415 112.088 157.203 113.077 158.42C114.479 160.186 115.993 161.883 117.612 163.504C118.555 164.051 119.547 164.53 120.58 164.936L126.517 164.005C126.517 164.005 130.062 162.859 131.381 163.862C132.701 164.864 132.948 164.005 133.937 165.222C134.927 166.439 138.307 177.895 137.483 179.112C136.658 180.33 136.081 181.618 136.741 183.05C137.4 184.482 137.483 186.774 138.06 187.991C138.637 189.208 139.049 189.852 140.121 191.786C141.193 193.719 140.121 194.506 141.688 195.222C143.255 195.938 143.667 196.511 145.811 196.01C147.954 195.509 149.109 194.363 150.675 193.79C152.242 193.218 153.643 192.287 153.808 191.428C153.973 190.568 153.479 189.852 153.808 189.065C154.138 188.277 154.221 187.633 154.798 187.346C155.375 187.06 156.777 184.268 157.766 183.337C158.755 182.406 159.58 182.191 160.405 180.831C161.229 179.47 161.889 178.898 161.147 176.32C160.405 173.742 158.591 174.172 160.405 171.738C161.655 170.024 163.091 168.418 164.692 166.94C166.506 165.222 169.392 162.358 169.639 162C169.886 161.642 171.206 160.138 169.474 160.067C167.743 159.995 166.671 161.785 164.857 159.924C163.043 158.062 163.373 157.346 160.982 154.983C158.591 152.62 157.601 152.048 157.024 149.971C156.447 147.895 155.787 146.248 156.282 146.391C156.777 146.534 158.838 147.25 160.157 149.828C161.476 152.406 163.703 159.566 166.506 157.919C169.309 156.272 171.041 156.702 172.36 155.628C173.679 154.554 173.349 155.126 175.328 153.623C177.307 152.119 178.544 151.69 177.554 150.687C176.565 149.685 176.483 148.682 174.916 148.969C173.349 149.255 172.937 150.186 171.618 149.685C170.299 149.184 170.464 149.971 169.227 147.752C167.99 145.532 164.939 144.673 167.66 145.031C170.381 145.389 170.958 146.105 172.195 146.749C173.432 147.394 175.493 146.964 177.307 147.752C179.121 148.539 181.43 149.112 182.419 148.969C183.409 148.826 183.573 148.11 184.563 149.542C185.552 150.974 186.542 151.761 186.789 152.549C187.036 153.336 187.531 150.687 188.108 152.048C188.685 153.408 186.542 153.766 188.685 156.558C190.829 159.351 191.324 160.926 192.066 161.499C192.808 162.072 194.292 160.067 194.292 159.422C194.292 158.778 193.633 157.847 194.457 156.702C195.282 155.556 195.282 155.198 197.26 154.482C199.239 153.766 199.322 154.482 200.559 152.62C201.795 150.759 203.279 150.186 204.269 150.83C205.258 151.475 205.835 151.188 206.083 152.907C206.33 154.625 205.918 153.909 206.495 154.983C207.072 156.057 207.897 153.408 208.474 154.983C209.051 156.558 209.876 156.916 209.876 158.563C209.876 160.21 209.546 162.072 210.453 162.501C211.36 162.931 210.947 162.286 211.772 163.289C212.597 164.291 212.184 164.076 212.761 165.294C213.105 166.039 213.75 166.65 214.575 167.012C214.798 167.061 215.033 167.036 215.235 166.94C215.235 166.582 214.905 166.582 214.658 166.081C214.41 165.58 214.658 165.007 214.41 164.506C214.199 164.07 213.921 163.661 213.586 163.289C213.339 163.146 212.844 163.146 212.432 162.573C212.019 162 211.854 162.143 211.442 161.499C211.03 160.854 210.7 160.711 210.783 160.21C210.945 159.872 211.168 159.558 211.442 159.279C211.442 159.279 211.442 158.492 211.854 158.205C212.267 157.919 212.597 157.847 212.926 158.134L214.246 159.422C214.658 159.78 215.235 159.494 215.482 160.067C215.567 160.565 215.622 161.067 215.647 161.57C215.812 161.857 217.131 161.427 217.873 160.496C218.616 159.566 219.193 159.637 219.358 158.635C219.522 157.632 219.687 157.06 219.028 156.272C218.368 155.484 218.203 155.27 217.626 154.697C217.049 154.124 216.554 153.909 216.472 153.694C216.75 153.12 217.207 152.624 217.791 152.262L219.44 151.546L221.172 151.69C221.996 151.69 224.552 151.332 224.882 151.045C225.416 150.486 225.995 149.959 226.613 149.47L227.933 148.324C228.353 147.945 228.739 147.538 229.087 147.107C229.568 146.675 229.884 146.125 229.994 145.532C229.763 144.828 229.598 144.11 229.499 143.384C229.594 142.725 229.479 142.057 229.169 141.451C228.84 141.021 228.097 140.735 228.18 140.162C228.262 139.589 229.664 138.873 229.829 138.587C229.994 138.3 230.324 137.656 229.829 137.656C229.334 137.656 227.685 138.085 227.273 137.727C226.861 137.369 226.696 137.441 226.696 137.011C226.696 136.582 226.861 136.295 227.108 136.224C227.355 136.152 228.675 136.009 229.087 135.508C229.499 135.007 229.829 134.291 230.241 134.505C230.653 134.72 230.736 135.579 231.643 135.508C232.55 135.436 233.374 135.651 233.374 136.367C233.374 137.083 233.622 137.441 234.034 137.513C234.446 137.584 234.446 138.587 234.446 138.587C234.446 138.587 233.952 139.661 234.199 140.09C234.446 140.52 234.446 140.878 234.611 140.949C234.776 141.021 235.188 141.307 235.436 141.021C235.793 140.658 236.123 140.275 236.425 139.875C236.566 138.976 236.424 138.061 236.013 137.226C235.695 136.973 235.417 136.684 235.188 136.367C235.105 136.085 235.105 135.79 235.188 135.508C235.353 135.221 236.26 134.863 236.425 134.649C236.59 134.434 236.59 134.076 236.92 133.503C237.25 132.93 237.415 132.429 237.909 132.286C238.405 132.233 238.907 132.257 239.393 132.357C239.641 132.357 239.971 132.787 240.465 132.286C240.96 131.785 243.516 130.209 244.505 128.419C245.495 126.629 246.732 123.98 246.732 123.98C246.732 123.98 246.649 121.331 246.567 120.901C246.484 120.472 245.66 119.971 245.495 120.042L244.835 120.4C244.505 120.615 243.681 121.045 243.434 120.687C243.186 120.329 242.032 120.257 242.032 119.255C242.032 118.252 241.702 118.467 243.681 117.536C245.356 116.794 246.887 115.828 248.216 114.672C248.641 114.185 249.211 113.808 249.865 113.58C250.519 113.353 251.231 113.285 251.926 113.383C253.41 113.598 255.307 113.383 255.801 114.099C256.296 114.815 256.214 115.102 256.956 114.744C257.633 114.259 258.242 113.706 258.77 113.097C258.77 113.097 260.254 111.737 260.996 111.593C261.738 111.45 262.892 111.021 263.139 111.164C263.459 111.442 263.736 111.755 263.964 112.095C263.964 112.095 264.211 112.238 264.541 111.737C264.871 111.235 264.871 110.519 265.448 110.877C266.025 111.235 266.767 112.811 265.448 113.527C264.129 114.243 262.233 115.388 261.161 116.033C260.089 116.677 258.522 116.462 258.357 117.178C258.262 118.676 258.573 120.172 259.264 121.546C260.089 122.763 260.419 124.267 261.408 123.479C262.397 122.691 262.48 121.617 262.892 120.687C263.304 119.756 263.964 119.398 264.376 118.61C264.776 117.821 265.106 117.008 265.366 116.176C265.366 116.176 263.634 116.462 263.634 116.176C263.634 115.889 263.964 114.959 266.108 114.529C268.252 114.099 269.406 113.813 270.065 113.956C270.677 114.119 271.326 114.138 271.949 114.012C272.572 113.887 273.145 113.62 273.611 113.24C274.36 112.452 275.366 111.878 276.497 111.593C277.074 111.522 277.898 112.166 278.228 111.665C278.558 111.164 277.816 110.305 277.733 110.018C277.651 109.732 277.239 109.231 278.146 109.087C279.053 108.944 279.547 109.231 279.795 108.658C280.042 108.085 279.712 106.939 280.784 107.369C281.601 107.578 282.303 108.036 282.763 108.658C283.01 109.231 282.433 109.374 283.917 109.589C285.401 109.803 284.989 110.018 285.731 109.589C286.473 109.159 286.061 108.729 287.215 108.873C288.37 109.016 288.122 107.799 287.298 107.655Z" fill="#3DACFF"/>
<path d="M258.545 204.538C258.7 203.009 257.616 202.589 257.714 201.517C257.831 200.282 257.686 199.038 257.288 197.848C256.919 196.269 256.447 196.02 256.683 194.871C256.771 193.988 257.033 193.125 257.459 192.321C257.858 191.562 258.162 190.768 258.367 189.952C258.723 188.567 258.124 188.813 257.422 186.909C256.72 185.004 257.475 185.776 257.788 184.33C258.1 182.884 258.017 183.439 257.806 181.943C257.596 180.447 257.556 181.063 256.822 179.516C256.088 177.969 255.931 177.886 255.171 176.438C254.411 174.99 254.101 175.501 253.075 174.625C252.049 173.748 251.366 174.55 250.989 174.164C250.611 173.779 250.914 173.526 250.518 172.981L249.154 171.103C248.589 170.057 249.062 170.305 249.05 169.887C249.267 169.345 249.68 168.879 250.227 168.558C251.038 168.312 251.818 167.994 252.556 167.611C253.346 167.09 252.647 166.798 252.181 166.291C251.663 165.61 251.333 164.834 251.216 164.023C251.387 163.589 252.496 163.91 253.07 163.762C253.526 163.711 253.948 163.527 254.27 163.242C254.592 162.956 254.795 162.585 254.847 162.187C254.969 161.016 253.466 161.761 252.987 161.771C252.422 161.689 251.885 161.501 251.412 161.22C250.939 160.939 250.542 160.572 250.248 160.144C249.569 159.075 250.007 158.07 250.071 157.355C250.063 156.724 250.305 156.11 250.757 155.618C251.3 155.021 252.059 154.601 252.911 154.429C253.599 154.304 254.935 154.669 255.007 153.696C255.078 152.722 255.664 152.993 256.1 152.922C256.535 152.852 258.348 154.142 258.971 154.732C259.594 155.321 259.196 155.711 259.27 156.349C259.301 156.685 259.425 157.01 259.632 157.295C259.839 157.58 260.123 157.817 260.458 157.985C261.403 158.482 260.458 157.985 260.768 157.474C261.079 156.963 261.174 156.826 261.639 157.333C262.012 157.788 262.206 158.336 262.19 158.896C262.786 159.383 263.43 159.823 264.117 160.208C264.545 160.396 263.198 162.159 262.825 162.45C262.095 162.984 261.409 163.562 260.771 164.178C260.581 164.453 261.475 165.148 262.03 164.841C262.586 164.534 265.905 161.598 266.637 161.533C267.368 161.468 268.313 161.965 270.147 162.48C271.981 162.995 271.699 162.472 271.699 162.472C271.699 162.472 273.663 161.557 274.888 160.966C276.113 160.374 275.492 161.396 275.492 161.396C275.761 161.519 276.06 161.581 276.363 161.577C276.666 161.572 276.963 161.502 277.227 161.371C278.218 160.994 278.116 161.39 279.105 161.947C280.094 162.504 279.753 162.438 280.592 162.654C280.829 162.718 281.081 162.734 281.327 162.701C281.572 162.668 281.807 162.587 282.011 162.464C282.518 162.19 283.115 162.069 283.709 162.121C284.825 162.183 284.603 162.815 285.687 163.235C286.77 163.655 286.506 163.292 287.755 163.536C289.003 163.781 287.273 164.481 287.273 164.481C287.273 164.481 285.186 164.021 285.304 164.72C285.423 165.418 285.846 164.93 286.564 165.382C287.118 165.759 287.769 166.012 288.461 166.117C289.325 166.234 288.915 166.206 289.633 166.658C290.351 167.111 290.439 167.232 291.312 166.155C292.185 165.079 290.397 166.236 290.397 166.236C290.397 166.236 289.225 165.695 289.781 165.388C290.337 165.081 288.887 164.693 289.223 164.084C289.484 163.556 289.87 163.083 290.355 162.694C290.842 162.426 290.645 162.959 291.881 162.785C293.118 162.611 292.217 162.175 291.847 161.531C291.476 160.887 290.876 161.133 289.547 160.509C288.424 160.072 287.232 159.786 286.011 159.661C287.02 159.579 288.037 159.587 289.044 159.683C290.388 159.79 291.119 159.726 292.423 160.449C293.727 161.172 294.568 162.999 294.568 162.999C294.568 162.999 296.719 165.291 297.462 165.645C298.206 165.998 298.268 166.218 298.704 166.147C299.478 165.863 300.102 165.336 300.455 164.671C300.658 163.88 299.072 162.634 299.577 162.525C300.082 162.415 300.691 163.522 301.298 163.017C301.904 162.512 300.966 161.757 300.742 160.778C300.517 159.798 301.413 159.558 302.203 159.037C302.993 158.516 303.701 157.615 304.739 156.363C305.776 155.111 305.126 155.556 304.111 155.097C303.097 154.639 302.648 155.226 301.872 155.23C301.096 155.235 300.89 154.415 300.677 153.853C300.464 153.292 300.515 153.094 301.696 152.442C302.877 151.789 302.335 151.579 302.527 150.37C302.719 149.16 302.354 149.192 302.122 148.472C301.89 147.751 301.61 146.293 300.936 145.901C300.262 145.509 299.44 146.388 297.275 147.159C295.11 147.93 296.022 148.785 295.459 149.35C294.897 149.915 293.85 149.814 292.974 149.279C292.099 148.744 290.985 150.293 290.119 151.111C289.253 151.929 288.262 152.306 287.866 151.761C287.47 151.216 287.924 151.305 288.014 150.491C288.104 149.677 287.928 149.435 288.528 149.188C289.078 148.883 289.548 148.479 289.906 148.003C290.191 147.591 289.172 146.456 289.172 146.456C289.166 145.62 289.28 144.787 289.512 143.976C289.887 142.751 288.748 141.852 288.598 141.511C288.41 141.152 288.322 140.76 288.341 140.367C288.359 139.973 288.484 139.589 288.704 139.245C289.413 138.344 288.491 138.684 288.753 137.436C289.014 136.188 291.177 136.351 291.177 136.351C291.177 136.351 293.53 136.24 294.646 136.303C295.763 136.365 296.995 138.062 297.511 138.371C298.028 138.679 297.94 138.558 299.044 138.203C300.149 137.847 298.996 137.466 298.808 136.805C298.62 136.145 298.697 135.848 299.088 135.717C299.48 135.586 299.598 136.284 300.151 136.913C300.705 137.541 300.515 137.815 301.214 138.108C301.914 138.401 301.177 137.789 301.74 137.224C302.303 136.658 302.092 137.708 302.539 138.056C302.986 138.403 302.631 138.853 303.493 139.905C304.354 140.957 304.211 140.358 304.906 139.974C305.387 139.54 305.963 139.194 306.598 138.954C307.659 138.538 307.791 138.72 308.203 137.813C308.616 136.906 307.777 136.69 307.004 135.759C306.23 134.829 306.151 136.06 305.577 136.208C304.962 136.473 304.367 136.774 303.796 137.106C303.102 137.49 302.157 136.993 302.513 135.608C302.87 134.223 304.111 134.726 304.711 134.479C305.311 134.233 305.776 134.74 306.684 134.917C307.592 135.095 307.289 135.347 307.874 135.618C308.46 135.889 308.384 136.186 309.051 136.836C309.447 137.322 309.947 137.738 310.524 138.06C311.286 138.572 311.147 138.649 311.756 139.756C312.365 140.862 311.596 140.608 311.304 141.278C311.004 142.057 310.874 142.877 310.92 143.698C310.968 144.467 310.83 145.237 310.517 145.957C310.017 146.743 309.405 146.571 308.055 146.723C306.705 146.874 306.378 146.291 305.667 145.58C304.957 144.869 304.366 143.922 303.912 143.833C303.458 143.744 303.185 144.574 303.398 145.136C303.711 145.669 304.2 146.108 304.801 146.398C305.063 146.513 305.28 146.693 305.424 146.915C305.569 147.138 305.634 147.393 305.612 147.648C305.686 148.286 304.852 148.746 304.44 149.653C304.292 149.971 304.224 150.313 304.238 150.656C304.252 150.999 304.35 151.336 304.523 151.644C304.762 152.106 305.644 152.383 305.948 152.131C306.251 151.878 306.455 151.087 306.814 151.313C307.173 151.539 306.376 152.319 306.754 152.704C307.131 153.09 307.768 153.163 308.653 152.504C309.537 151.846 309.116 151.4 309.338 150.768C309.56 150.136 309.171 149.332 309.822 148.888C310.473 148.443 310.825 148.928 311.36 149.396C311.502 149.509 311.609 149.65 311.673 149.808C311.736 149.965 311.754 150.134 311.723 150.299C311.723 150.299 310.521 151.727 310.848 152.31C311.175 152.894 311.452 152.741 312.689 152.567C313.926 152.393 314.16 152.179 314.477 151.41C314.794 150.64 313.882 149.786 314.111 148.896C314.34 148.005 314.183 147.922 313.9 147.399C313.618 146.876 314.053 146.806 314.419 146.773C314.785 146.741 315.331 147.627 315.748 147.397C316.165 147.167 316.496 145.881 316.839 145.012C317.182 144.144 316.7 142.543 315.996 141.573C315.292 140.604 315.998 140.638 316.612 139.875C317.226 139.112 316.475 139.017 316.306 138.516C316.137 138.015 314.947 137.314 314.097 136.68C313.247 136.046 313.752 135.937 314.215 134.833C314.556 134.127 314.843 133.401 315.072 132.662C315.276 131.87 314.062 130.333 313.023 129.974C311.983 129.614 311.388 130.537 310.542 130.58C309.496 130.536 308.453 130.705 307.495 131.074C306.226 131.606 306.696 132.789 306.934 133.251C307.173 133.714 306.566 134.219 305.79 134.223C305.147 134.2 304.508 134.127 303.88 134.005C303.667 133.57 303.624 133.087 303.757 132.629C304.137 132.08 303.551 131.809 304.378 131.608C305.204 131.406 305.003 131.262 306.084 130.071C307.166 128.879 306.244 129.219 306.466 128.587C306.689 127.954 307.333 127.769 308.203 127.627C309.074 127.486 308.933 128.498 309.954 128.698C310.975 128.898 310.989 128.381 311.501 128.013C312.013 127.646 311.357 127.413 310.873 126.747C310.389 126.08 309.72 126.365 308.838 126.089C307.956 125.812 307.803 126.406 307.221 126.811C306.492 127.242 305.718 127.613 304.91 127.918C304.204 128.128 303.483 128.299 302.752 128.431C302.752 128.431 302.069 129.233 302.263 129.635C302.521 130.052 302.686 130.507 302.752 130.978C302.606 131.313 301.805 131.416 300.978 131.618C300.151 131.82 300.235 131.264 299.73 131.373C299.225 131.482 298.625 131.729 298.153 131.48C297.68 131.232 298.211 131.024 299.07 130.465C299.929 129.905 299.908 130.681 300.684 130.677C301.46 130.673 301.399 129.517 301.534 128.764C301.668 128.011 300.848 127.954 299.681 128.09C298.514 128.225 299.111 128.914 298.727 128.786C298.343 128.659 297.849 129.186 297.194 128.954C296.539 128.722 296.483 128.243 295.818 126.658C295.154 125.073 295.814 125.982 295.459 123.885C295.105 121.789 294.496 123.229 293.618 123.629C292.741 124.029 292.141 124.275 291.657 123.609C291.173 122.942 291.583 122.971 291.402 122.052C291.221 121.133 290.207 120.675 290.568 119.966C290.655 119.72 290.675 119.461 290.626 119.208C290.577 118.955 290.462 118.715 290.288 118.508C290.404 117.724 290.448 116.933 290.42 116.143C290.473 115.01 288.459 113.576 287.831 112.31L286.916 109.844C286.546 109.283 285.959 108.855 285.26 108.637C284.239 108.437 282.806 106.597 282.806 106.597L280.499 105.834C279.825 105.442 280.444 105.355 280.446 104.42C280.448 103.485 279.327 102.746 278.612 101.359C277.896 99.9717 277.336 99.6021 275.884 97.6029C274.432 95.6037 274.906 94.9171 274.286 93.3925C274.177 92.9254 273.921 92.4939 273.548 92.1457C273.175 91.7975 272.698 91.5461 272.171 91.4195C271.245 91.0823 268.617 90.4118 267.049 89.3254C265.481 88.2389 265.808 88.8226 265.34 89.2507C264.767 89.6739 264.401 90.2708 264.314 90.9207C264.085 91.8113 265.106 92.0112 265.458 92.4958C265.81 92.9805 264.731 93.237 264.731 93.237C264.199 92.874 263.727 92.4494 263.327 91.9748C262.931 91.4296 263.084 90.8359 262.978 90.5552C262.871 90.2745 261.894 90.1352 261.042 90.436C260.189 90.7369 260.49 91.4195 260.773 91.9425C261.056 92.4655 262.674 93.3541 263.279 93.7842C263.883 94.2143 263.086 94.9938 263.086 94.9938C262.383 94.7622 261.722 94.4402 261.127 94.0387C260.247 93.3965 259.153 93.0184 258.008 92.9603C256.639 92.9522 255.678 93.9074 256.357 94.9757C257.035 96.0439 256.984 96.2418 256.433 97.2253C255.882 98.2087 257.093 98.134 257.904 99.384C258.714 100.634 258.381 100.309 256.797 100.674C255.213 101.04 253.724 98.7216 252.892 98.2471C252.061 97.7725 250.025 97.1142 249.583 97.4434C249.141 97.7725 250.942 98.6449 252.133 99.3456C253.323 100.046 254.367 101.082 256.359 101.68C258.351 102.278 258.478 101.783 260.037 101.516C261.213 101.326 262.428 101.455 263.517 101.886C264.557 102.245 264.638 102.625 264.379 102.938C264.119 103.251 263.098 103.051 262.014 102.631C260.93 102.211 261.25 103.053 262.44 103.754C263.631 104.455 263.96 104.103 265.238 104.925C266.516 105.747 265.557 105.767 265.84 106.29L266.53 107.777L267.628 110.226C268.116 111.569 268.197 111.949 267.234 113.839C266.724 114.842 266.582 115.958 266.829 117.034C266.917 117.424 266.879 117.827 266.72 118.2C266.561 118.572 266.287 118.899 265.928 119.144C264.714 120.154 264.87 121.171 264.337 122.314C263.804 123.457 264.541 124.069 264.849 124.493C265.157 124.917 264.763 125.984 264.763 125.984L259.483 128.9C259.483 128.9 255.525 130.152 254.52 131.046C253.515 131.941 252.584 133.473 251.825 134.572C251.065 135.671 251.512 136.018 251.725 136.579C251.938 137.141 251.153 138.338 250.488 139.299C249.824 140.261 248.772 142.03 247.64 143.419C246.912 144.464 246.503 145.654 246.452 146.876C247.037 146.56 247.589 146.198 248.101 145.796C248.91 144.502 249.631 143.169 250.261 141.801C250.384 141.54 250.597 141.318 250.871 141.167C251.145 141.016 251.466 140.942 251.79 140.957C251.884 141.124 251.919 141.312 251.889 141.497C251.744 141.832 250.162 143.809 250.085 144.106C250.009 144.402 249.261 145.919 248.879 147.403C248.604 148.346 248.228 149.264 247.756 150.146C247.311 151.41 246.505 150.836 246.142 152.48C245.778 154.124 245.806 155.636 246.327 156.622C246.763 157.351 247.147 158.103 247.475 158.873C247.909 159.738 247.573 160.348 247.767 160.749C248.293 161.891 248.75 163.055 249.134 164.239C249.472 165.241 248.851 166.262 248.388 167.367C247.925 168.472 247.172 169.312 247.394 171.226C247.617 173.14 248.23 172.377 248.937 172.411C249.643 172.446 250.435 173.536 249.499 174.393C248.564 175.249 244.696 175.687 244.696 175.687C244.696 175.687 240.452 175.739 238.803 176.82C237.154 177.9 237.906 179.607 235.327 182.22C232.747 184.833 234.671 187.08 232.863 189.013C231.054 190.946 224.109 193.847 224.109 193.847L213.315 197.347C213.315 197.347 206.307 200.029 204.033 201.454C201.759 202.88 202.643 204.768 202.294 205.895C201.944 207.022 203.734 210.023 204.445 210.734C205.156 211.444 204.753 211.158 204.742 210.74C204.783 209.912 204.674 209.084 204.42 208.286C203.924 207.202 204.491 207.313 204.827 206.703C205.391 205.901 206.241 205.282 207.247 204.942C208.725 204.296 208.319 204.944 209.026 204.978C209.732 205.013 210.469 205.624 211.599 205.17C212.729 204.716 211.858 204.857 213.046 203.946C214.234 203.036 213.903 204.322 214.477 204.175C215.052 204.027 216.177 202.896 217.129 203.135C218.081 203.373 217.719 204.082 218.558 204.298C219.396 204.514 218.931 204.007 219.303 203.716C219.676 203.425 219.764 203.547 220.383 203.46C220.954 203.461 221.516 203.589 222.015 203.831C222.627 204.003 222.342 204.415 223.009 205.065C223.676 205.715 225.091 204.849 226.086 205.148C227.082 205.447 226.735 205.639 227.661 205.976C228.597 206.364 229.586 206.645 230.605 206.812C232.464 207.228 232.42 207.167 233.474 207.01C234.574 206.913 235.655 206.687 236.686 206.339C238.251 205.814 238.3 206.551 239.025 206.745C239.75 206.939 241.635 207.256 243.249 207.468C244.863 207.68 244.205 208.383 244.715 208.95C245.224 209.518 246.044 209.574 247.269 208.983C248.494 208.391 249.233 208.068 250.414 207.416C251.595 206.763 251.903 207.188 253.316 207.256C254.729 207.325 255.275 208.211 257.429 207.022C259.583 205.833 258.434 206.127 258.545 204.538Z" fill="#3DACFF"/>
<path d="M215.691 187.414C216.018 186.089 214.926 185.142 215.691 181.828C216.455 178.514 216.455 177.946 217.874 176.621C219.293 175.295 216.564 172.266 217.765 169.33C218.966 166.395 220.167 167.247 219.403 165.733C218.638 164.218 215.909 164.407 217.874 162.513C219.795 160.79 221.876 159.207 224.097 157.78C225.192 157.08 226.408 156.537 227.7 156.17C226.94 155.726 226.074 155.436 225.167 155.321C224.26 155.206 223.334 155.27 222.46 155.507L215.254 156.17L216.455 153.235L208.158 151.625C204.804 151.021 201.414 150.578 198.004 150.3C197.761 150.857 197.365 151.354 196.852 151.75C196.339 152.145 195.723 152.428 195.056 152.572C192.764 152.856 188.288 151.247 187.523 152.856C186.759 154.466 191.235 155.791 189.379 156.833C187.523 157.874 188.288 154.844 181.082 154.844C173.876 154.844 167.217 158.726 167.981 160.336C168.745 161.945 172.457 161.661 169.073 163.271C165.688 164.88 166.125 164.312 163.505 165.259C161.45 166.05 159.446 166.935 157.5 167.91L163.832 173.118C163.832 173.118 170.601 170.751 173.986 174.064C177.37 177.378 179.226 178.609 179.226 181.26C179.226 183.911 183.375 184.763 183.375 186.752C183.375 188.74 180.427 188.077 179.663 190.633C178.898 193.19 181.082 197.45 184.139 199.817C187.196 202.184 183.702 201.048 188.288 203.983C192.873 206.918 192.764 210.232 195.056 205.593C197.349 200.953 194.292 198.113 196.912 196.882C199.533 195.651 204.009 195.557 204.446 193.947C204.882 192.338 205.865 190.349 207.83 189.971C209.795 189.592 215.254 188.74 215.691 187.414Z" fill="#3DACFF"/>
<path d="M322.579 154.383C321.213 153.457 319.91 152.461 318.676 151.399C317.917 150.532 317.809 151.399 316.725 149.281C315.641 147.163 315.315 146.2 314.557 145.237C313.798 144.274 314.015 143.986 313.473 143.215C313.118 142.739 312.577 142.396 311.955 142.253C311.539 142.344 311.181 142.577 310.958 142.902C310.734 143.226 310.664 143.615 310.762 143.986C310.871 144.563 310.546 146.392 310.546 147.163C310.546 147.933 310.329 148.799 309.895 148.703C308.892 148.454 307.941 148.064 307.077 147.548C306.101 146.874 304.475 146.97 304.15 146.2C303.997 145.792 303.988 145.352 304.124 144.94C304.259 144.527 304.533 144.161 304.908 143.889C305.45 143.215 306.209 142.83 305.45 142.638C304.141 142.178 302.706 142.077 301.331 142.349C299.813 142.83 298.296 142.541 297.754 143.408C297.212 144.274 297.97 145.237 297.212 145.719C296.453 146.2 297.103 145.911 295.694 145.43C294.285 144.948 291.574 146.392 291.141 147.066C290.707 147.74 288.864 148.51 288.756 149.281C288.647 150.051 288.973 151.206 288.322 151.399C287.672 151.591 286.371 151.11 284.745 151.976C283.119 152.843 282.793 152.265 281.384 153.902C279.975 155.539 279.758 155.346 279.975 156.405C280.192 157.464 280.517 156.79 280.083 158.716C279.65 160.641 279.975 159.39 281.167 162.085C282.36 164.781 282.251 165.07 281.926 165.551C281.718 165.866 281.627 166.23 281.666 166.593C281.705 166.956 281.872 167.299 282.143 167.573C282.793 167.958 282.793 168.824 283.878 168.247C285.273 167.509 286.766 166.927 288.322 166.514C290.382 165.936 291.466 166.514 292.55 165.262C293.634 164.011 294.068 163.626 296.778 163.433C299.488 163.241 299.163 162.47 301.873 163.914C304.583 165.359 305.017 165.262 305.776 164.781C306.535 164.3 306.318 165.07 307.077 165.936C307.835 166.803 309.57 169.98 311.196 170.076C312.822 170.172 312.93 169.691 314.231 169.595C315.532 169.498 314.882 169.98 316.183 170.076C317.484 170.172 316.942 169.98 318.459 169.402C319.977 168.824 321.169 168.921 321.061 166.995C320.953 165.07 321.711 164.588 322.47 163.433C323.559 161.842 324.088 159.998 323.988 158.138C323.771 155.924 323.771 155.346 322.579 154.383Z" fill="#3DACFF"/>
<path d="M295.307 194.798L294.906 194.992C294.772 195.109 294.46 195.07 294.46 195.07H294.148C293.925 195.109 294.058 194.953 293.612 194.953C293.167 194.953 292.988 194.875 292.944 195.031C292.899 195.187 293.033 195.342 293.211 195.575C293.39 195.809 293.39 195.964 293.702 195.964C294.014 195.964 294.326 196.12 294.504 196.042C294.74 195.915 294.938 195.742 295.084 195.536C295.173 195.42 295.351 195.42 295.396 195.148C295.441 194.875 295.619 194.681 295.307 194.798Z" fill="#3DACFF"/>
<path d="M306.186 194.254C306.007 194.215 306.052 194.331 305.829 194.526C305.548 194.707 305.307 194.931 305.116 195.187C304.937 195.459 304.67 195.537 304.358 195.77L303.511 196.392C303.288 196.509 303.288 196.897 303.421 197.092C303.576 197.112 303.734 197.084 303.867 197.014C304.09 196.936 304.358 197.053 304.759 196.897C305.16 196.742 305.116 196.703 305.205 196.392C305.328 196.131 305.528 195.903 305.784 195.731C306.097 195.42 306.319 195.303 306.587 195.07C306.702 194.987 306.778 194.87 306.803 194.742C306.827 194.613 306.798 194.482 306.721 194.37C306.587 194.215 306.364 194.292 306.186 194.254Z" fill="#3DACFF"/>
<path d="M308.148 192.621C308.148 192.621 307.657 192.582 307.524 192.426C307.333 192.236 307.169 192.027 307.033 191.804C306.876 191.613 306.659 191.465 306.409 191.377C306.275 191.299 306.498 191.726 306.543 191.96C306.687 192.215 306.85 192.462 307.033 192.698C307.122 192.854 306.676 193.243 306.676 193.515C306.676 193.787 307.122 193.593 307.211 193.632C307.323 193.719 307.414 193.825 307.479 193.943C307.479 193.943 307.836 193.865 307.791 193.593C307.746 193.32 307.836 193.398 307.925 193.243C308.014 193.087 308.371 193.204 308.549 193.126C308.727 193.048 308.683 192.66 308.504 192.504C308.326 192.348 308.148 192.621 308.148 192.621Z" fill="#3DACFF"/>
<path d="M294.817 181.073C294.103 180.49 293.167 179.829 292.944 179.673C292.703 179.428 292.372 179.263 292.008 179.207C291.578 179.171 291.157 179.08 290.759 178.935C290.313 178.779 290.403 178.585 290.046 178.779L289.243 179.168C288.931 179.323 288.619 179.284 288.574 179.129C288.53 178.973 288.53 178.74 288.396 178.662C288.262 178.585 288.262 178.546 287.95 178.546C287.728 178.526 287.504 178.526 287.281 178.546C287.148 178.585 286.702 178.351 287.014 178.662C287.171 178.854 287.388 179.002 287.638 179.09C287.727 179.168 287.906 179.09 287.95 179.284C288.033 179.438 288.138 179.582 288.262 179.712L288.931 179.829L289.778 180.14C289.778 180.14 290.447 180.373 290.536 180.529C290.61 180.675 290.64 180.836 290.625 180.995C290.625 181.151 290.358 181.151 290.224 181.19C290.09 181.228 290.046 181.151 290.001 181.267C289.957 181.384 290.536 181.656 290.536 181.656C290.536 181.656 291.205 181.462 291.383 181.578C291.567 181.764 291.819 181.888 292.097 181.928C292.543 181.928 292.676 181.928 292.855 181.734C293.033 181.539 293.301 181.151 293.479 181.151C293.615 181.14 293.751 181.159 293.876 181.206C294.001 181.254 294.11 181.328 294.192 181.423C294.388 181.632 294.631 181.804 294.906 181.928C294.999 181.994 295.113 182.034 295.233 182.041C295.353 182.048 295.472 182.022 295.575 181.967C295.619 181.773 295.575 181.695 294.817 181.073Z" fill="#3DACFF"/>
<path d="M285.855 179.83C286.076 179.734 286.322 179.694 286.568 179.713C286.74 179.762 286.924 179.776 287.103 179.752C287.192 179.713 287.415 179.713 287.281 179.674C287.148 179.635 287.014 179.441 286.88 179.48L286.39 179.402C286.033 179.324 285.899 179.324 285.81 179.402C285.721 179.48 285.409 179.596 285.453 179.713C285.498 179.83 285.632 179.908 285.855 179.83Z" fill="#3DACFF"/>
<path d="M285.097 179.752C285.097 179.674 285.007 179.557 284.963 179.557C284.918 179.557 284.695 179.441 284.606 179.518C284.517 179.596 284.428 179.635 284.428 179.713C284.428 179.791 284.74 179.829 284.829 179.829C284.918 179.829 285.097 179.829 285.097 179.752Z" fill="#3DACFF"/>
<path d="M281.574 179.673C281.53 179.868 281.396 179.79 281.574 180.023C281.753 180.256 281.797 180.062 281.797 180.373C281.823 180.567 281.823 180.763 281.797 180.956C281.797 180.956 281.485 181.19 281.753 181.267C282.02 181.345 282.065 181.423 282.198 181.345C282.332 181.267 282.377 181.228 282.332 181.073C282.288 180.917 282.377 180.801 282.377 180.529C282.363 180.32 282.378 180.112 282.421 179.907C282.511 179.79 282.734 179.868 282.734 180.023C282.734 180.179 282.689 180.451 282.912 180.606C283.135 180.762 283.179 180.762 283.447 180.723C283.487 180.719 283.526 180.707 283.56 180.689C283.595 180.67 283.624 180.645 283.645 180.615C283.666 180.585 283.68 180.551 283.684 180.516C283.688 180.481 283.684 180.445 283.67 180.412C283.581 180.373 283.358 180.256 283.313 180.14C283.336 179.985 283.336 179.828 283.313 179.673C283.224 179.44 283.179 179.518 283.135 179.401C283.09 179.284 283.313 179.284 283.536 179.207C283.759 179.129 283.893 179.09 283.937 178.973C283.982 178.857 283.982 178.701 283.804 178.74C283.625 178.779 283.581 178.701 283.447 178.818C283.312 178.922 283.137 178.977 282.956 178.973C282.689 179.012 282.644 179.012 282.555 178.935C282.466 178.857 282.421 178.624 282.466 178.585C282.511 178.546 282.644 178.157 282.867 178.235C283.09 178.312 283.09 178.429 283.358 178.39C283.625 178.351 283.759 178.235 283.937 178.235L284.383 178.312C284.493 178.311 284.601 178.284 284.695 178.235L284.829 178.04C284.79 177.961 284.717 177.897 284.627 177.861C284.536 177.825 284.433 177.82 284.339 177.846H283.804C283.536 177.807 283.491 177.924 283.313 177.846C283.135 177.768 283.179 177.729 282.912 177.768L282.421 177.846C282.288 177.924 282.243 177.924 282.198 178.001C282.11 178.059 282.042 178.136 282.003 178.226C281.963 178.315 281.954 178.413 281.976 178.507C282.037 178.67 282.067 178.841 282.065 179.012C282.065 179.168 281.931 179.207 281.797 179.362C281.663 179.518 281.619 179.518 281.574 179.673Z" fill="#3DACFF"/>
<path d="M284.517 181.695L284.071 181.89L283.625 181.967C283.581 182.006 283.358 182.084 283.447 182.201C283.601 182.267 283.767 182.306 283.938 182.317C284.022 182.222 284.129 182.143 284.25 182.084C284.428 182.045 284.696 182.123 284.74 182.045C284.785 181.967 284.918 181.734 284.829 181.695C284.74 181.656 284.562 181.618 284.517 181.695Z" fill="#3DACFF"/>
<path d="M281.797 182.006C281.619 181.89 281.53 181.812 281.441 181.89C281.351 181.967 281.218 182.045 281.396 182.162C281.574 182.278 281.797 182.201 281.931 182.278C282.065 182.356 282.243 182.317 282.243 182.317C282.243 182.317 282.288 182.162 282.154 182.123C282.023 182.12 281.898 182.079 281.797 182.006V182.006Z" fill="#3DACFF"/>
<path d="M280.236 181.695C280.103 181.695 279.924 181.812 280.147 181.889C280.365 181.94 280.592 181.953 280.816 181.928L281.039 181.85C281.084 181.773 281.039 181.734 280.771 181.734C280.504 181.734 280.415 181.656 280.236 181.695Z" fill="#3DACFF"/>
<path d="M279.39 181.656C279.39 181.656 279.122 181.345 279.033 181.345C278.944 181.345 278.81 181.462 278.587 181.268C278.364 181.073 278.364 181.034 277.918 181.073C277.603 181.106 277.284 181.079 276.982 180.995C276.804 180.957 276.893 180.918 276.581 180.84L275.867 180.762C275.644 180.801 275.288 180.801 275.422 181.034C275.711 181.226 276.046 181.359 276.402 181.423C276.737 181.559 277.103 181.625 277.472 181.618C277.714 181.574 277.964 181.601 278.186 181.695C278.453 181.734 278.498 181.618 278.855 181.695C279.211 181.773 279.345 181.734 279.39 181.656Z" fill="#3DACFF"/>
<path d="M275.511 180.218C275.533 180.102 275.548 179.985 275.555 179.868C275.6 179.635 275.6 179.635 275.421 179.44C275.243 179.246 275.199 179.324 274.976 179.207C274.794 179.096 274.667 178.929 274.619 178.741C274.485 178.468 274.441 178.468 274.084 178.196C273.899 178.023 273.67 177.89 273.415 177.808C273.148 177.73 272.969 177.38 272.791 177.185L272.033 176.602L271.364 176.136C271.052 175.941 271.007 175.98 270.874 175.98C270.74 175.98 270.74 176.33 270.784 176.447L271.23 176.836C271.364 176.874 271.409 177.03 271.632 177.263C271.881 177.536 272.149 177.796 272.434 178.041C272.434 178.041 272.746 178.78 272.925 179.129C273.103 179.479 273.593 179.635 273.727 179.79L274.351 180.412L274.842 180.762C275.065 180.879 275.109 180.646 275.332 180.529H275.511C275.6 180.412 275.555 180.374 275.511 180.218Z" fill="#3DACFF"/>
<path d="M276.848 178.313C277.002 178.656 277.246 178.962 277.562 179.207L278.364 179.518C278.632 179.635 278.81 179.518 279.033 179.635C279.253 179.757 279.494 179.849 279.746 179.907C279.969 179.907 279.88 180.023 280.103 179.907C280.326 179.79 280.014 179.596 280.103 179.362C280.205 179.166 280.358 178.993 280.549 178.857C280.638 178.818 280.772 178.468 280.772 178.468C280.772 178.468 280.593 178.079 280.772 177.963C280.95 177.846 281.218 177.963 281.084 177.73C280.95 177.496 280.861 177.574 280.861 177.263C280.861 176.952 280.816 176.796 280.905 176.719L281.173 176.485C281.307 176.33 281.441 176.369 281.262 176.174C281.084 175.98 281.128 175.863 280.905 175.708C280.683 175.552 280.772 175.358 280.504 175.475C280.328 175.53 280.163 175.609 280.014 175.708C280.014 175.708 279.835 176.213 279.702 176.252L279.167 176.563C279.002 176.845 278.774 177.096 278.498 177.302C278.29 177.409 278.064 177.488 277.829 177.535C277.829 177.535 277.428 177.73 277.339 177.652C277.249 177.574 277.339 177.457 277.071 177.535C276.804 177.613 276.759 178.157 276.848 178.313Z" fill="#3DACFF"/>
<path d="M285.632 177.458C285.364 177.458 285.498 177.807 285.498 178.041C285.498 178.274 285.587 178.43 285.721 178.352C285.854 178.274 285.899 178.196 285.854 178.041C285.81 177.885 285.765 178.002 285.81 177.769C285.854 177.535 285.765 177.458 285.632 177.458Z" fill="#3DACFF"/>
<path d="M283.492 175.202C283.67 175.202 283.67 175.241 283.759 175.358C283.848 175.474 283.848 175.669 284.071 175.669C284.294 175.669 284.428 175.669 284.562 175.513C284.695 175.358 284.651 175.086 284.74 174.969C284.791 174.875 284.809 174.769 284.794 174.666C284.778 174.563 284.728 174.465 284.651 174.386C284.517 174.23 284.428 174.425 284.25 174.58C284.071 174.736 283.848 174.658 283.67 174.658C283.492 174.691 283.325 174.757 283.18 174.852C283.116 174.988 283.086 175.134 283.09 175.28C283.09 175.358 283.313 175.241 283.492 175.202Z" fill="#3DACFF"/>
<path d="M282.823 174.308C282.912 174.541 283.179 174.386 283.269 174.386C283.349 174.338 283.411 174.27 283.447 174.191C283.447 174.114 283.536 174.075 283.625 174.036C283.659 173.98 283.673 173.917 283.665 173.855C283.657 173.792 283.628 173.733 283.581 173.686C283.488 173.632 283.379 173.605 283.269 173.608L282.912 173.336C282.867 173.258 282.644 173.18 282.332 173.219C282.02 173.258 282.288 173.491 282.689 173.725C283.09 173.958 282.778 174.075 282.823 174.308Z" fill="#3DACFF"/>
<path d="M281.886 172.17C281.931 172.442 281.975 172.287 282.198 172.481C282.421 172.675 282.555 172.598 282.822 172.637C283.09 172.675 282.912 172.753 283.045 172.948C283.179 173.142 283.268 173.025 283.58 173.142C283.692 173.199 283.777 173.29 283.818 173.397C283.859 173.504 283.854 173.621 283.803 173.725H284.205C284.261 173.723 284.316 173.707 284.363 173.68C284.41 173.652 284.448 173.614 284.472 173.57C284.517 173.453 284.428 173.375 284.338 173.259C284.249 173.142 284.026 173.064 283.893 172.87C283.759 172.675 283.759 172.753 283.491 172.559C283.224 172.364 282.912 172.481 282.778 172.364C282.644 172.248 282.689 172.053 282.644 171.781C282.6 171.509 282.644 171.548 282.822 171.315C282.866 171.272 282.891 171.217 282.891 171.159C282.891 171.102 282.866 171.046 282.822 171.004C282.786 170.96 282.739 170.924 282.685 170.897C282.631 170.87 282.572 170.854 282.51 170.848C282.287 170.848 282.198 171.081 282.154 171.276C282.102 171.439 282.027 171.596 281.931 171.742C281.89 171.807 281.866 171.879 281.858 171.952C281.85 172.026 281.86 172.1 281.886 172.17V172.17Z" fill="#3DACFF"/>
<path d="M281.44 174.036C281.387 174.172 281.275 174.284 281.128 174.347C281.039 174.425 281.084 174.542 281.128 174.658C281.173 174.775 281.351 174.62 281.396 174.581C281.556 174.43 281.692 174.259 281.797 174.075C281.788 173.962 281.742 173.854 281.663 173.764C281.53 173.648 281.53 173.842 281.44 174.036Z" fill="#3DACFF"/>
<path d="M249.472 183.756C249.294 183.795 249.205 184.145 248.893 184.572C248.568 184.941 248.158 185.246 247.689 185.467C247.689 185.467 246.797 185.622 246.842 185.972C246.886 186.322 247.198 186.594 247.154 186.944C247.109 187.294 246.663 187.255 246.663 187.799C246.69 188.239 246.796 188.671 246.975 189.082C247.198 189.665 248.358 189.938 248.67 189.354C249.042 188.778 249.284 188.144 249.383 187.488C249.49 186.801 249.669 186.125 249.918 185.467C250.052 184.844 250.186 184.844 249.963 184.417C249.86 184.166 249.692 183.94 249.472 183.756Z" fill="#3DACFF"/>
<path d="M291.874 155.957C291.799 156.146 291.799 156.351 291.874 156.54C292.023 156.815 292.143 157.101 292.231 157.396C292.231 157.396 292.721 157.24 292.632 156.929C292.524 156.598 292.45 156.26 292.409 155.918C292.49 155.728 292.595 155.545 292.721 155.374C292.899 155.063 293.078 155.102 292.989 154.519C292.899 153.935 292.676 153.858 292.676 153.547C292.676 153.236 292.543 153.508 292.676 153.236C292.754 153.031 292.859 152.835 292.989 152.652C292.676 152.847 292.186 152.575 292.32 153.43C292.425 153.986 292.395 154.556 292.231 155.102C292.141 155.374 291.874 155.957 291.874 155.957Z" fill="#3DACFF"/>
<path d="M290.893 159.573C290.804 159.768 291.294 160.001 291.294 160.001C291.294 160.001 291.473 159.612 291.651 159.573L292.676 159.262C292.899 159.146 292.899 159.224 293.256 159.185C293.613 159.146 293.568 158.757 293.568 158.485C293.45 158.518 293.325 158.529 293.201 158.515C293.078 158.502 292.96 158.465 292.855 158.407C292.498 158.252 292.676 157.941 292.32 157.979C291.963 158.018 292.141 158.29 292.008 158.601C291.874 158.913 291.695 158.757 291.339 158.913C290.982 159.068 290.938 159.379 290.893 159.573Z" fill="#3DACFF"/>
<path d="M290.358 162.139L289.734 162.372C289.734 162.372 289.511 162.294 289.199 162.644C289.044 162.832 288.846 162.991 288.619 163.111C288.619 163.111 288.619 162.8 288.307 162.839C288.03 162.865 287.767 162.959 287.549 163.111C287.326 163.228 287.237 163.189 287.192 163.344C287.143 163.543 287.017 163.721 286.836 163.85C286.661 164.111 286.554 164.403 286.523 164.705L287.326 164.977C287.326 164.977 287.772 164.549 287.638 164.394C287.504 164.238 287.638 163.811 287.861 163.966C288.084 164.122 287.683 164.277 288.173 164.277C288.542 164.25 288.903 164.172 289.243 164.044C289.45 163.778 289.746 163.574 290.09 163.461C290.625 163.305 291.294 163.461 291.428 163.305C291.537 163.236 291.618 163.139 291.658 163.027C291.698 162.914 291.696 162.794 291.651 162.683C291.491 162.393 291.444 162.066 291.517 161.75C291.651 161.361 291.517 161.167 291.74 160.856C291.803 160.761 291.836 160.654 291.836 160.545C291.836 160.436 291.803 160.328 291.74 160.234C291.74 160.234 291.428 160.545 291.16 160.467C290.893 160.389 290.982 159.884 290.937 160.389C290.931 160.768 290.976 161.147 291.071 161.517C291.116 161.906 290.358 162.139 290.358 162.139Z" fill="#3DACFF"/>
<path d="M282.51 168.826C282.599 168.731 282.674 168.627 282.733 168.515C282.742 168.356 282.711 168.197 282.644 168.049C282.486 168.048 282.33 168.089 282.198 168.165C282.198 168.165 281.931 168.554 282.065 168.71C282.198 168.865 282.51 168.826 282.51 168.826Z" fill="#3DACFF"/>
<path d="M277.695 170.576L277.784 170.148C277.517 170.187 277.249 169.954 276.982 170.148C276.714 170.343 276.402 170.42 276.67 170.654C276.862 170.794 277.092 170.888 277.339 170.926L277.695 170.576Z" fill="#3DACFF"/>
<path d="M264.096 174.969C263.98 174.893 263.84 174.853 263.695 174.853C263.539 175.131 263.507 175.449 263.606 175.747C263.74 175.902 263.784 176.291 264.185 176.136C264.587 175.98 264.899 175.669 264.498 175.358L264.096 174.969Z" fill="#3DACFF"/>
<path d="M296.377 180.412C296.377 180.412 297.224 179.79 296.689 179.829C296.154 179.868 296.555 179.946 296.02 180.101C295.785 180.2 295.522 180.24 295.262 180.218C295.084 180.218 295.396 180.451 295.396 180.451C295.721 180.514 296.06 180.501 296.377 180.412V180.412Z" fill="#3DACFF"/>
<path d="M291.071 137.451C291.16 137.723 291.116 137.956 291.606 138.228C291.938 138.414 292.298 138.558 292.676 138.656C292.721 138.54 292.364 138.267 292.186 138.034C292.007 137.801 290.982 137.179 291.071 137.451Z" fill="#3DACFF"/>
<path d="M294.861 137.257C295.351 137.335 296.243 137.568 296.198 137.335C296.176 137.197 296.095 137.072 295.97 136.986C295.846 136.899 295.688 136.857 295.53 136.868C295.061 136.829 294.599 136.751 294.147 136.635C294.147 136.868 294.326 137.14 294.861 137.257Z" fill="#3DACFF"/>
<path d="M290.447 137.101C290.447 137.101 291.428 136.557 291.829 136.673C292.204 136.776 292.595 136.829 292.988 136.829C293.069 136.813 293.144 136.78 293.207 136.733C293.269 136.685 293.317 136.625 293.345 136.557C293.072 136.231 292.678 135.997 292.23 135.896C291.963 135.857 291.695 136.051 291.294 135.935C290.893 135.818 291.606 135.585 290.581 135.74C289.555 135.896 289.198 136.012 289.421 136.401C289.697 136.7 290.048 136.94 290.447 137.101V137.101Z" fill="#3DACFF"/>
<path d="M272.746 131.969C272.757 132.01 272.777 132.05 272.805 132.084C272.833 132.119 272.869 132.148 272.911 132.17C272.953 132.192 273 132.206 273.048 132.211C273.096 132.217 273.145 132.214 273.192 132.202C273.579 132.177 273.968 132.19 274.351 132.241C274.832 132.232 275.31 132.18 275.778 132.086H275.689C275.303 131.94 274.954 131.728 274.663 131.464C274.218 131.075 274.307 130.725 273.37 130.997C273.255 131.024 273.148 131.071 273.054 131.134C272.96 131.198 272.881 131.278 272.823 131.368C272.765 131.459 272.728 131.559 272.715 131.662C272.702 131.765 272.712 131.869 272.746 131.969Z" fill="#3DACFF"/>
<path d="M268.823 129.675C268.734 130.181 269.536 130.725 269.536 130.725L270.785 131.075L272.122 131.153L272.746 130.88C272.925 130.608 273.192 130.181 272.613 129.986C272.033 129.792 271.587 130.181 271.498 129.597C271.409 129.014 271.364 128.625 270.963 128.625C270.562 128.625 270.16 128.548 269.848 129.014C269.536 129.481 268.867 129.17 268.823 129.675Z" fill="#3DACFF"/>
<path d="M268.11 129.092C268.288 129.247 268.778 128.82 269.09 128.392C268.683 128.422 268.28 128.487 267.887 128.586C267.307 128.781 267.976 128.975 268.11 129.092Z" fill="#3DACFF"/>
<path d="M250.542 138.073C249.695 138.539 250.81 138.85 251.077 139.045C251.478 139.319 251.93 139.53 252.415 139.667C253.084 139.9 253.173 139.784 252.95 139.239C252.727 138.695 252.415 138.539 252.326 137.723C252.305 137.613 252.313 137.501 252.35 137.395C252.386 137.288 252.449 137.19 252.535 137.108C252.621 137.026 252.727 136.961 252.845 136.92C252.963 136.878 253.09 136.86 253.217 136.868C253.217 136.868 253.842 136.168 254.287 135.546C254.733 134.924 254.733 135.429 255.402 134.885C255.889 134.477 256.465 134.16 257.096 133.952C257.587 133.757 258.791 133.602 258.657 133.291C258.523 132.98 257.721 133.252 257.052 133.485L255.491 133.913C254.865 134.064 254.254 134.259 253.663 134.496C252.682 134.846 252.638 135.235 252.014 135.546C251.389 135.857 251.746 136.284 251.568 136.595C251.389 136.906 251.434 137.567 250.542 138.073Z" fill="#3DACFF"/>
<path d="M224.682 143.555C224.682 143.555 225.618 143.01 224.504 142.894C223.389 142.777 223.434 142.583 222.81 142.816C222.392 142.953 221.989 143.123 221.606 143.321L221.16 143.71L220.714 143.866L220.58 143.438C220.402 143.321 220.179 142.894 219.911 143.01C219.644 143.127 218.797 142.272 219.466 143.321C219.829 143.89 220.279 144.413 220.803 144.877C220.803 144.877 222.007 145.071 222.364 144.916C222.72 144.76 223.701 144.41 223.701 144.41L224.682 143.555Z" fill="#3DACFF"/>
<path d="M190.172 129.636C190.797 130.064 191.332 129.792 192.446 129.714C193.561 129.636 193.383 129.442 194.631 129.092C195.879 128.742 194.408 129.519 193.784 129.83C193.16 130.142 192.402 129.869 191.332 130.336C190.262 130.802 191.911 130.686 192.223 130.919C192.282 130.968 192.324 131.031 192.345 131.099C192.365 131.168 192.364 131.24 192.341 131.308C192.318 131.377 192.274 131.438 192.214 131.486C192.154 131.534 192.08 131.566 192 131.58C191.688 131.619 190.975 131.891 191.242 132.397C191.308 132.505 191.404 132.597 191.521 132.664C191.637 132.732 191.772 132.774 191.911 132.785C191.733 132.824 191.644 132.708 190.707 132.746C189.771 132.785 190.484 133.135 190.886 133.407C191.287 133.68 190.574 133.718 190.574 133.718C190.574 133.718 190.128 134.302 190.217 134.418C190.306 134.535 190.975 134.574 191.867 134.535C192.758 134.496 192.446 134.418 193.07 134.224C193.695 134.029 193.472 134.379 193.472 134.379L194.765 134.107V133.718C194.765 133.718 194.854 132.708 195.032 132.552C195.405 132.35 195.792 132.168 196.191 132.008C196.148 131.713 196.211 131.415 196.37 131.152C196.429 131.013 196.54 130.894 196.686 130.817C196.832 130.739 197.003 130.707 197.172 130.725L199.134 129.869C199.554 129.475 199.928 129.046 200.249 128.586C200.427 128.198 199.491 128.12 199.625 128.042C199.758 127.964 200.561 128.159 201.141 128.003C201.72 127.848 201.809 127.537 201.988 127.381L201.096 127.07C199.963 126.871 198.816 126.741 197.663 126.681C196.805 126.658 195.948 126.75 195.121 126.953C195.121 126.953 193.695 127.264 193.605 127.42C193.516 127.576 194.497 128.353 194.497 128.353C193.934 128.175 193.383 127.967 192.848 127.731C192.357 127.537 191.287 127.964 189.504 128.742C187.72 129.519 189.548 129.17 190.172 129.636Z" fill="#3DACFF"/>
<path d="M205.02 153.857C204.886 153.78 204.618 154.168 204.485 154.363C204.248 154.699 204.04 155.05 203.86 155.412C203.682 155.84 204.574 155.84 204.797 155.879C205.159 155.966 205.535 156.005 205.911 155.996C206.313 155.996 206.268 156.462 206.669 156.423C207.071 156.384 206.714 156.073 206.714 155.879C206.646 155.627 206.557 155.38 206.446 155.14C206.313 154.907 206.09 155.024 205.778 154.829C205.465 154.635 205.51 154.44 205.376 154.168C205.243 153.896 205.153 153.896 205.02 153.857Z" fill="#3DACFF"/>
<path d="M199.536 172.558C199.223 172.558 199.223 172.286 199.09 172.481C198.956 172.675 198.911 172.753 199.134 172.831C199.357 172.908 199.402 172.986 199.536 172.869C199.669 172.753 199.803 172.869 199.803 172.675C199.803 172.481 199.536 172.558 199.536 172.558Z" fill="#3DACFF"/>
<path d="M196.37 172.17C196.593 172.364 196.682 172.248 196.994 172.17C197.306 172.092 197.351 172.092 197.574 172.17C197.842 172.193 198.113 172.18 198.376 172.131L198.466 172.015C198.466 171.937 197.886 171.937 197.886 171.937C197.811 171.759 197.752 171.577 197.708 171.392C197.618 171.043 197.396 171.237 196.727 171.237C196.058 171.237 196.504 171.431 196.415 171.704C196.325 171.976 196.192 171.781 195.969 171.898C195.746 172.015 196.103 172.015 196.37 172.17Z" fill="#3DACFF"/>
<path d="M195.523 170.848C195.835 171.003 195.924 170.887 196.058 170.887C196.057 170.743 196.042 170.6 196.013 170.459C195.924 170.265 195.835 170.265 195.701 170.109C195.567 169.954 195.344 169.993 195.121 169.798C194.898 169.604 194.676 169.137 194.542 168.982C194.408 168.826 194.007 168.826 193.784 168.826H192.981C192.803 168.826 192.758 168.943 192.981 169.059C193.204 169.176 193.249 169.059 193.561 169.098C193.873 169.137 193.873 169.176 194.185 169.37C194.424 169.551 194.582 169.798 194.631 170.07C194.857 170.385 195.162 170.651 195.523 170.848V170.848Z" fill="#3DACFF"/>
<path d="M193.962 171.665C194.319 171.665 194.453 171.703 194.497 171.587C194.485 171.498 194.437 171.416 194.363 171.354C194.23 171.276 194.14 171.198 194.007 171.237C193.873 171.276 193.695 171.354 193.784 171.47C193.873 171.587 193.605 171.665 193.962 171.665Z" fill="#3DACFF"/>
<path d="M194.275 146.587C194.185 146.743 194.141 147.132 194.23 147.132C194.319 147.132 194.587 147.093 194.631 146.937C194.676 146.782 194.765 146.665 194.631 146.626L194.275 146.587Z" fill="#3DACFF"/>
<path d="M192.313 146.393C192.179 146.471 192.357 146.704 192.536 146.937C192.714 147.171 192.848 146.821 192.937 146.743C193.026 146.665 193.249 146.548 193.338 146.393C193.185 146.395 193.033 146.369 192.892 146.315C192.695 146.303 192.497 146.33 192.313 146.393Z" fill="#3DACFF"/>
<path d="M193.918 145.654C194.096 145.46 193.695 145.46 193.427 145.343C193.085 145.142 192.784 144.892 192.536 144.605C192.179 144.294 192.179 144.371 191.867 144.371C191.555 144.371 191.688 144.449 191.555 144.527C191.454 144.691 191.364 144.859 191.287 145.032C191.29 145.334 191.335 145.634 191.421 145.927C191.555 146.354 191.688 146.354 192 146.393C192.313 146.432 192.268 146.16 192.536 146.043L192.937 145.81C193.115 145.693 193.204 145.849 193.338 145.888C193.45 145.898 193.563 145.882 193.665 145.841C193.767 145.8 193.854 145.735 193.918 145.654V145.654Z" fill="#3DACFF"/>
<path d="M196.37 143.283C196.463 143.237 196.538 143.168 196.586 143.085C196.633 143.002 196.651 142.908 196.638 142.816C196.638 142.66 196.504 142.388 196.326 142.349C196.147 142.311 195.88 142.311 195.79 142.505C195.701 142.699 195.612 142.894 195.79 143.049C195.969 143.205 196.236 143.36 196.37 143.283Z" fill="#3DACFF"/>
<path d="M193.739 137.918C193.918 137.996 194.23 138.151 194.453 138.073C194.68 138.006 194.903 137.928 195.121 137.84C195.211 137.762 195.523 137.568 195.433 137.49C195.264 137.388 195.057 137.346 194.854 137.374C194.674 137.391 194.492 137.378 194.319 137.335C194.319 137.335 193.695 137.179 193.65 137.296C193.605 137.412 193.561 137.84 193.739 137.918Z" fill="#3DACFF"/>
<path d="M186.026 138.345C185.669 138.306 185.803 138.19 185.892 138.073C185.981 137.956 186.249 137.84 186.249 137.606C186.249 137.373 185.848 137.529 185.402 137.49C184.956 137.451 184.688 137.529 184.599 137.918C184.51 138.306 184.867 137.956 185 138.112C185.134 138.267 185.09 138.54 184.778 138.384C184.465 138.229 184.287 138.423 184.109 138.695C183.93 138.967 184.376 138.89 184.599 138.89C184.822 138.89 185.268 139.356 185.714 139.473C186.16 139.589 186.115 139.434 186.293 139.239C186.472 139.045 186.427 139.239 186.472 139.084C186.529 138.893 186.559 138.698 186.561 138.501C186.516 138.229 186.427 138.384 186.026 138.345Z" fill="#3DACFF"/>
<path d="M184.599 141.222C184.599 141.067 184.287 140.911 183.797 140.6C183.575 140.467 183.388 140.294 183.249 140.093C183.111 139.892 183.024 139.667 182.994 139.434C182.949 138.85 182.86 138.773 182.548 138.656C182.334 138.568 182.138 138.45 181.969 138.306C181.746 138.306 181.389 138.306 181.389 138.462C181.389 138.617 181.701 139.045 181.523 139.161C181.401 139.273 181.247 139.353 181.077 139.395C180.889 139.214 180.638 139.091 180.363 139.045C179.934 138.969 179.515 138.852 179.115 138.695C178.803 138.578 178.758 138.384 178.402 138.501C177.977 138.547 177.576 138.695 177.242 138.928C176.886 139.239 176.395 139.434 176.395 139.745C176.415 139.954 176.527 140.149 176.707 140.289C176.707 140.289 177.421 140.211 177.332 140.406C177.242 140.6 176.752 140.678 176.752 140.833C176.752 140.989 176.93 141.028 177.555 141.028C178.179 141.028 178.669 140.794 179.115 140.911C179.561 141.028 180.141 140.95 179.739 141.183C179.338 141.416 178.58 141.222 177.911 141.261C177.242 141.3 176.618 141.494 176.841 141.805C177.064 142.116 178.09 142.311 178.402 142.272C178.631 142.264 178.854 142.334 179.026 142.466C179.421 142.618 179.843 142.71 180.274 142.738L181.121 142.116C181.344 141.922 181.3 141.067 182.236 141.572C183.172 142.077 183.351 142.427 183.841 142.233C184.332 142.039 183.975 141.844 184.02 141.65C184.064 141.455 184.599 141.378 184.599 141.222Z" fill="#3DACFF"/>
<path d="M173.676 140.211C173.854 140.522 174.255 140.483 175.147 140.522C176.039 140.561 175.727 140.444 176.039 140.016C176.229 139.744 176.35 139.439 176.395 139.122C176.574 138.695 177.198 138.5 177.644 138.228C177.71 138.078 177.755 137.921 177.778 137.761C177.733 137.606 177.555 137.606 176.886 137.761C176.217 137.917 176.351 137.606 175.504 137.489C174.983 137.411 174.447 137.493 173.988 137.723C173.408 137.917 173.899 138.15 173.988 138.306C174.06 138.449 174.09 138.606 174.074 138.763C174.059 138.919 173.998 139.069 173.899 139.2C173.765 139.338 173.674 139.503 173.635 139.68C173.596 139.857 173.61 140.04 173.676 140.211V140.211Z" fill="#3DACFF"/>
<path d="M182.236 137.645C182.192 137.801 182.459 138.306 182.593 138.267C182.727 138.229 183.128 138.112 183.173 137.917C183.217 137.723 182.771 137.606 182.771 137.606C182.771 137.606 182.236 137.49 182.236 137.645Z" fill="#3DACFF"/>
<path d="M188.567 135.818C188.612 136.012 188.567 136.362 189.236 136.362C189.915 136.452 190.604 136.465 191.287 136.401C191.911 136.323 192.981 136.44 193.16 136.323C193.394 136.139 193.617 135.944 193.828 135.74C194.074 135.7 194.314 135.635 194.542 135.546C194.631 135.468 194.542 135.196 194.542 135.196C194.422 135.075 194.27 134.983 194.098 134.929C193.926 134.875 193.741 134.859 193.561 134.885C193.046 134.903 192.536 134.982 192.045 135.118C191.661 135.315 191.237 135.447 190.797 135.507C190.217 135.507 189.726 135.624 189.548 135.313C189.37 135.001 189.682 135.001 189.771 134.807C189.86 134.613 189.905 134.418 189.236 134.341C188.843 134.252 188.432 134.239 188.032 134.302C187.72 134.379 187.408 134.107 187.14 134.185C186.873 134.263 186.65 134.068 186.605 134.379C186.561 134.69 187.408 134.924 187.631 134.885C187.854 134.846 188.567 134.341 188.612 134.885C188.656 135.429 188.523 135.624 188.567 135.818Z" fill="#3DACFF"/>
<path d="M187.051 135.623C186.962 135.779 186.606 135.857 186.918 136.051C187.23 136.246 187.497 136.557 187.72 136.323C187.943 136.09 188.032 136.012 188.032 135.818C188.006 135.702 187.944 135.595 187.854 135.507C187.586 135.468 187.185 135.429 187.051 135.623Z" fill="#3DACFF"/>
<path d="M184.867 134.963L183.975 135.157C183.975 135.157 183.975 135.468 184.064 135.546C184.153 135.624 184.466 135.546 184.822 135.585C185.179 135.624 184.911 135.896 185.09 136.09C185.268 136.285 185.803 136.207 186.071 136.052C186.338 135.896 186.249 135.818 186.16 135.663C186.13 135.585 186.122 135.501 186.138 135.42C186.154 135.339 186.192 135.262 186.249 135.196C186.332 135.038 186.348 134.859 186.294 134.691C186.249 134.535 185.892 134.574 185.491 134.574C185.235 134.632 185.013 134.771 184.867 134.963V134.963Z" fill="#3DACFF"/>
<path d="M177.243 136.557C177.243 137.023 177.778 136.712 178.09 136.712C178.402 136.712 178.491 136.557 178.803 136.362C179.115 136.168 179.16 136.323 179.338 136.323C179.517 136.323 179.739 136.673 179.561 136.751C179.383 136.829 178.491 137.14 178.58 137.334C178.669 137.529 179.071 137.412 179.472 137.295C179.905 137.116 180.323 136.908 180.72 136.673C181.122 136.401 180.988 136.673 181.567 136.634C182.147 136.595 182.236 136.479 182.37 136.246C182.437 136.184 182.488 136.11 182.518 136.029C182.549 135.949 182.559 135.863 182.548 135.779C182.504 135.546 182.415 135.507 182.192 135.468C181.969 135.429 181.969 135.662 181.567 135.623C181.166 135.585 181.746 135.312 181.701 135.04C181.657 134.768 181.032 134.885 180.676 135.118C180.319 135.351 180.765 135.39 180.988 135.546C181.211 135.701 181.122 135.857 180.899 136.051C180.676 136.246 180.676 136.168 180.23 136.168C179.784 136.168 179.695 135.857 179.561 135.623C179.427 135.39 179.249 135.468 178.759 135.468C178.268 135.468 178.224 135.623 177.688 135.779C177.153 135.934 177.243 136.09 177.243 136.557Z" fill="#3DACFF"/>
<path d="M179.695 133.991L179.873 134.068C180.039 134.04 180.193 133.973 180.319 133.874C180.676 133.68 180.274 133.524 179.962 133.485C179.636 133.475 179.318 133.572 179.07 133.757C178.803 133.913 179.293 134.107 179.695 133.991Z" fill="#3DACFF"/>
<path d="M174.88 136.09H175.058C175.147 136.09 175.236 136.129 175.325 136.09H175.459L175.593 136.012H175.771L175.905 135.857C175.996 135.749 176.071 135.631 176.128 135.507C176.158 135.429 176.202 135.39 176.262 135.39H176.841C176.936 135.346 177.014 135.279 177.064 135.196C177.064 135.118 177.109 135.04 177.109 134.963C177.153 134.924 177.153 134.885 177.198 134.885L177.332 134.963L177.466 134.885L177.778 134.613V134.34C177.733 134.224 177.599 134.263 177.466 134.302H177.243C177.129 134.316 177.021 134.357 176.931 134.418L176.618 134.574L176.395 134.729C176.306 134.807 176.128 134.807 176.039 134.846C175.678 134.953 175.355 135.141 175.102 135.39C175.011 135.44 174.935 135.509 174.881 135.59C174.826 135.671 174.795 135.763 174.79 135.857C174.77 135.9 174.759 135.946 174.759 135.993C174.759 136.04 174.77 136.086 174.79 136.129L174.88 136.09Z" fill="#3DACFF"/>
<path d="M182.949 132.591H183.261C183.44 132.669 183.351 132.669 183.44 132.863C183.503 133.004 183.611 133.125 183.752 133.213C184.075 133.384 184.444 133.478 184.822 133.485C185.446 133.524 185.714 133.096 185.312 132.63C184.911 132.163 184.554 132.28 184.198 132.124C183.814 131.933 183.389 131.814 182.949 131.774C182.905 131.774 182.86 131.774 182.86 131.813H182.816C182.102 131.852 182.503 132.474 182.949 132.591Z" fill="#3DACFF"/>
<path d="M185.491 131.23C185.58 131.191 185.625 131.075 185.491 131.036C185.357 130.997 185.223 130.841 185.09 130.88C185.048 130.88 185.008 130.89 184.972 130.909C184.937 130.928 184.909 130.955 184.89 130.988C184.872 131.02 184.864 131.056 184.868 131.092C184.871 131.128 184.886 131.162 184.911 131.191C184.956 131.386 185.446 131.541 185.491 131.23Z" fill="#3DACFF"/>
<path d="M187.364 131.308H187.988C188.657 131.347 188.255 131.619 187.988 131.619C187.72 131.619 187.854 131.658 187.81 131.735C187.765 131.813 188.79 132.668 189.281 132.591C189.771 132.513 189.861 132.319 190.262 132.046C190.663 131.774 191.02 131.891 191.109 131.502C191.129 131.399 191.115 131.292 191.068 131.195C191.02 131.099 190.942 131.016 190.841 130.958C190.695 130.825 190.56 130.682 190.44 130.53C190.351 130.491 190.396 130.452 190.351 130.375C190.252 130.276 190.131 130.196 189.994 130.141L188.657 129.519C188.299 129.361 187.897 129.294 187.497 129.325C187.462 129.325 187.428 129.337 187.403 129.359C187.378 129.381 187.364 129.411 187.364 129.441C187.225 129.532 187.113 129.649 187.036 129.784C186.958 129.919 186.918 130.068 186.918 130.219C186.962 130.569 187.052 130.219 187.007 130.452H186.873C186.829 130.569 186.74 130.608 186.74 130.763C186.74 130.919 187.007 131.269 187.364 131.308Z" fill="#3DACFF"/>
<path d="M186.828 133.096H187.14C187.23 133.135 187.274 133.096 187.319 133.057L187.408 132.979C187.449 132.883 187.463 132.78 187.447 132.678C187.432 132.576 187.388 132.479 187.319 132.396C187.216 132.331 187.088 132.303 186.962 132.318C186.873 132.279 186.739 132.241 186.65 132.318C186.567 132.397 186.518 132.497 186.51 132.603C186.502 132.709 186.536 132.814 186.605 132.902C186.65 132.988 186.729 133.057 186.828 133.096Z" fill="#3DACFF"/>
<path d="M189.281 133.485C189.325 133.446 189.325 133.407 189.281 133.33C189.253 133.279 189.209 133.237 189.153 133.209C189.097 133.181 189.033 133.169 188.969 133.174H188.79C188.701 133.174 188.656 133.213 188.656 133.252L188.434 133.33H188.121C188.032 133.33 187.943 133.368 187.943 133.446C187.943 133.524 188.3 133.757 188.478 133.757C188.627 133.775 188.779 133.759 188.92 133.711C189.06 133.664 189.184 133.586 189.281 133.485Z" fill="#3DACFF"/>
<path d="M182.95 134.224C182.994 134.379 183.262 134.379 183.217 134.224C183.215 134.092 183.183 133.962 183.121 133.842C183.06 133.722 182.971 133.613 182.86 133.524H182.682C182.612 133.557 182.556 133.609 182.524 133.672C182.492 133.736 182.485 133.807 182.504 133.874C182.548 134.029 182.727 134.107 182.86 134.224H182.95Z" fill="#3DACFF"/>
<path d="M179.606 133.096H179.962C180.001 133.119 180.045 133.135 180.091 133.142C180.137 133.148 180.185 133.146 180.23 133.134H180.408C180.459 133.168 180.518 133.189 180.581 133.196C180.643 133.203 180.707 133.195 180.765 133.173C180.899 133.134 180.943 132.979 180.81 132.94C180.81 132.93 180.805 132.92 180.797 132.913C180.788 132.905 180.777 132.901 180.765 132.901C180.81 132.823 180.72 132.707 180.587 132.707H180.319C180.052 132.668 179.829 132.823 179.561 132.901C179.294 132.979 179.427 133.096 179.606 133.096Z" fill="#3DACFF"/>
<path d="M255.67 128.78C255.733 128.81 255.806 128.822 255.877 128.815C255.949 128.808 256.016 128.783 256.071 128.742H256.205L256.561 128.664H256.74C256.829 128.625 256.874 128.547 256.918 128.508H256.963C256.998 128.508 257.032 128.496 257.057 128.474C257.082 128.452 257.096 128.423 257.096 128.392V128.314C257.091 128.293 257.081 128.274 257.067 128.256C257.053 128.239 257.035 128.224 257.014 128.214C256.993 128.203 256.97 128.196 256.946 128.193C256.921 128.19 256.897 128.192 256.874 128.197L256.695 128.353L256.517 128.469C256.294 128.431 256.205 128.508 256.071 128.625H256.026L255.848 128.547C255.581 128.392 255.447 128.625 255.67 128.78Z" fill="#3DACFF"/>
<path d="M254.198 128.547C254.198 128.703 254.243 128.858 254.421 128.897H255.001C255.135 128.858 255.135 128.742 255.045 128.664C255.081 128.649 255.108 128.621 255.12 128.589C255.133 128.556 255.13 128.52 255.112 128.489C255.095 128.458 255.063 128.435 255.026 128.424C254.988 128.413 254.947 128.415 254.912 128.431L254.778 128.509L254.51 128.392C254.332 128.275 254.243 128.431 254.198 128.547Z" fill="#3DACFF"/>
<path d="M253.262 128.003L253.53 127.886C253.575 127.885 253.619 127.874 253.658 127.853C253.697 127.833 253.73 127.804 253.753 127.77V127.692H254.198C254.377 127.731 254.466 127.498 254.288 127.42C254.085 127.361 253.866 127.361 253.663 127.42L253.262 127.537C253.218 127.42 253.039 127.381 252.995 127.498C252.95 127.614 252.905 127.614 252.905 127.692C252.905 127.77 252.861 127.731 252.861 127.77C252.861 127.809 253.084 128.042 253.262 128.003Z" fill="#3DACFF"/>
<path d="M252.504 128.664H252.861C252.95 128.742 253.128 128.626 253.084 128.509V128.431H252.459C252.326 128.431 252.103 128.548 252.192 128.703C252.281 128.859 252.37 128.664 252.504 128.664Z" fill="#3DACFF"/>
<path d="M253.128 129.015C253.084 129.015 253.039 128.976 252.95 129.015H252.816C252.638 129.015 252.638 129.287 252.816 129.287H253.173C253.307 129.287 253.396 129.17 253.53 129.17C253.663 129.17 253.663 128.859 253.485 128.898C253.307 128.937 253.262 129.015 253.128 129.015Z" fill="#3DACFF"/>
<path d="M247.51 128.703H248.803C248.937 128.781 248.982 128.859 248.759 128.898C248.731 128.911 248.708 128.931 248.691 128.955C248.675 128.979 248.667 129.006 248.667 129.034C248.667 129.062 248.675 129.089 248.691 129.113C248.708 129.137 248.731 129.156 248.759 129.17H249.115L249.249 129.092L249.338 128.976C249.366 128.957 249.388 128.934 249.404 128.907C249.419 128.88 249.428 128.85 249.428 128.82L249.695 128.703H250.052L250.319 128.781C250.297 128.818 250.282 128.857 250.275 128.898C250.408 129.092 250.364 129.131 250.721 129.131H250.854V129.053C250.988 129.209 251.033 129.248 251.389 129.248C251.746 129.248 251.612 128.937 251.389 128.976C251.302 128.98 251.216 128.959 251.144 128.917C251.072 128.875 251.017 128.814 250.988 128.742C250.98 128.724 250.967 128.707 250.949 128.694C250.932 128.681 250.911 128.673 250.889 128.669C250.867 128.665 250.844 128.666 250.822 128.672C250.8 128.678 250.781 128.689 250.765 128.703C250.542 128.898 250.721 128.703 250.587 128.509C250.53 128.413 250.436 128.337 250.323 128.295C250.209 128.252 250.081 128.246 249.963 128.276H248.982C248.892 128.328 248.848 128.366 248.848 128.392C248.67 128.353 248.58 128.237 248.357 128.237C248.134 128.237 247.867 128.431 247.555 128.392C247.243 128.353 247.377 128.664 247.51 128.703Z" fill="#3DACFF"/>
</g>
<path d="M258.66 266.76C235.98 267.57 213.75 260.91 191.43 256.32C179.46 253.8 166.95 252 154.71 252.18C171.035 269.281 193.051 279.819 216.609 281.809C240.167 283.798 263.639 277.101 282.6 262.98C274.797 265.178 266.761 266.447 258.66 266.76V266.76Z" fill="#0092FF"/>
<path d="M154.62 248.85C165.51 248.67 177.39 250.02 192.15 253.08C196.92 253.98 201.69 255.15 206.37 256.14C223.47 260.01 241.11 264.06 258.57 263.43C266.392 263.119 274.153 261.911 281.7 259.83L288.99 257.76C297.925 249.898 305.312 240.436 310.77 229.86C295.145 239.8 277.164 245.421 258.66 246.15C235.98 246.96 213.75 240.3 191.43 235.71C174.69 232.2 156.96 229.95 140.31 232.83C143.582 238.512 147.378 243.875 151.65 248.85H154.62Z" fill="#0060C7"/>
<path d="M131.31 210.78C152.28 204.93 174.78 208.26 192.15 211.86C196.92 212.76 201.69 213.93 206.37 214.92C223.47 218.79 241.11 222.84 258.57 222.21C280.263 221.334 301.108 213.545 318.06 199.98L320.94 197.73C321.484 193.552 321.755 189.343 321.75 185.13C321.75 183.69 321.66 182.25 321.66 180.81C303.856 195.512 281.73 203.983 258.66 204.93C235.98 205.74 213.75 199.08 191.43 194.49C170.55 190.17 148.32 187.74 128.25 194.58C128.771 200.056 129.764 205.476 131.22 210.78H131.31Z" fill="#3DACFF"/>
<path d="M258.66 225.54C235.98 226.35 213.75 219.69 191.43 215.1C171.9 211.05 151.2 208.62 132.21 214.02C133.911 219.405 136.048 224.642 138.6 229.68L139.77 229.5C158.4 226.35 177.57 229.41 192.15 232.47C196.92 233.37 201.69 234.54 206.37 235.53C223.47 239.4 241.11 243.45 258.57 242.82C276.493 242.106 293.91 236.673 309.06 227.07L313.56 224.19C316.584 217.27 318.789 210.021 320.13 202.59C302.617 216.608 281.075 224.651 258.66 225.54V225.54Z" fill="#0092FF"/>
<path d="M254.88 266.76C238.32 266.76 221.76 263.07 205.74 259.47L191.43 256.32C176.94 253.35 165.24 252 154.71 252.18C163.874 261.712 174.862 269.303 187.02 274.5H187.11C199.014 279.535 211.805 282.136 224.73 282.15C237.689 282.188 250.52 279.585 262.44 274.5H262.53C269.621 271.462 276.328 267.595 282.51 262.98C274.745 265.215 266.735 266.484 258.66 266.76H254.88Z" fill="#0049A8"/>
<path d="M338.85 235.26C338.31 237.24 334.44 241.2 334.44 241.2C334.785 241.809 335 242.484 335.07 243.18C336.15 241.47 340.2 238.5 340.2 238.5C340.886 236.442 341.698 234.429 342.63 232.47C344.011 229.833 345.803 227.433 347.94 225.36C348.714 223.339 349.647 221.383 350.73 219.51C350.73 219.51 351 213.75 350.82 212.04C350.64 210.33 350.91 202.5 350.91 201.51C350.88 201.18 350.785 200.859 350.63 200.565C350.476 200.272 350.265 200.012 350.01 199.8C349.38 199.35 346.5 198.36 342.9 201.6C339.3 204.84 341.01 219.6 341.01 219.6C339.12 224.28 339.39 233.37 338.85 235.26Z" fill="#0049A8"/>
<path d="M331.65 223.02C331.191 225.362 330.98 227.745 331.02 230.13C331.11 233.1 331.74 237.96 331.74 237.96C332.528 238.322 333.232 238.843 333.81 239.49C333.81 239.49 336.96 236.88 337.41 234.99C337.86 233.1 338.13 223.38 339.57 219.96L338.49 211.59C338.49 211.59 338.76 204.66 337.05 203.22L336.6 202.77C333.99 202.5 328.23 204.57 329.49 213.12C330.75 221.67 331.65 223.02 331.65 223.02Z" fill="#0049A8"/>
<path d="M330.3 236.61C329.836 232.003 329.806 227.362 330.21 222.75C328.95 220.41 328.14 213.3 328.14 213.3C323.1 215.73 324.36 222.84 324.36 222.84C322.83 225.63 322.47 231.66 322.47 231.66C321.21 233.55 321.57 238.32 321.57 238.32C325.44 235.53 330.3 236.61 330.3 236.61Z" fill="#0049A8"/>
<path d="M99.1798 212.04C98.9998 213.75 99.2698 219.51 99.2698 219.51C100.353 221.383 101.286 223.339 102.06 225.36C104.197 227.433 105.989 229.833 107.37 232.47C108.302 234.429 109.114 236.442 109.8 238.5C109.8 238.5 113.85 241.47 114.93 243.18C115 242.484 115.215 241.809 115.56 241.2C115.56 241.2 111.69 237.24 111.15 235.26C110.61 233.28 110.88 224.28 108.99 219.6C108.99 219.6 110.61 204.84 107.1 201.6C103.59 198.36 100.62 199.35 99.9898 199.8C99.7347 200.012 99.5239 200.272 99.3694 200.565C99.215 200.859 99.12 201.18 99.0898 201.51C99.0898 202.5 99.4498 210.33 99.1798 212.04Z" fill="#0049A8"/>
<path d="M112.59 234.99C113.04 236.88 116.19 239.49 116.19 239.49C116.767 238.843 117.472 238.322 118.26 237.96C118.26 237.96 118.89 233.1 118.98 230.13C119.02 227.744 118.809 225.361 118.35 223.02C118.35 223.02 119.25 221.76 120.51 213.12C121.77 204.48 116.01 202.5 113.4 202.77L112.95 203.22C111.24 204.66 111.51 211.59 111.51 211.59L110.43 219.96C111.87 223.38 112.23 233.01 112.59 234.99Z" fill="#0049A8"/>
<path d="M119.7 236.61C119.7 236.61 124.56 235.53 128.43 238.32C128.43 238.32 128.79 233.55 127.53 231.66C127.53 231.66 127.17 225.63 125.64 222.84C125.64 222.84 126.9 215.73 121.86 213.3C121.86 213.3 121.05 220.41 119.79 222.75C120.194 227.362 120.164 232.003 119.7 236.61V236.61Z" fill="#0049A8"/>
<path d="M157.59 265.14C150.93 263.43 144.45 256.77 140.22 252C135.99 247.23 129.87 237.06 122.58 237.96C115.29 238.86 115.56 244.8 117.72 247.77C119.88 250.74 123.39 253.26 124.74 256.68C126.09 260.1 132.21 264.87 136.35 268.92C140.49 272.97 143.55 279.81 145.89 283.05C145.89 283.05 143.55 280.44 140.94 277.11C138.33 273.78 136.71 270.36 130.77 266.4C124.83 262.44 124.47 259.92 123.21 257.67C121.95 255.42 119.16 251.55 117.09 250.11C115.02 248.67 113.67 243.81 113.67 243.81C112.443 242.34 110.946 241.118 109.26 240.21C109.26 240.21 106.2 230.58 101.34 226.89C101.34 226.89 96.2099 214.02 89.7299 213.66C86.7599 213.57 84.6899 214.83 84.8699 216.27C84.8699 216.27 84.0599 217.53 85.7699 220.32C87.4799 223.11 90.1799 229.05 91.1699 231.03C92.1599 233.01 96.2099 241.92 96.7499 244.8C97.2899 247.68 99.5399 252.72 104.94 257.4C110.081 262.009 114.19 267.653 117 273.96C119.34 279.54 126.45 285.12 133.74 290.07C141.03 295.02 156.96 307.71 155.88 324.27C155.61 328.05 155.07 332.91 154.26 338.22H186.75C186.84 335.34 187.02 332.64 187.29 330.48C188.82 316.35 191.34 298.89 186.66 287.1C181.98 275.31 164.25 266.85 157.59 265.14Z" fill="#0049A8"/>
<path d="M365.13 216.27C365.31 214.83 363.24 213.57 360.27 213.66C353.79 214.02 348.66 226.89 348.66 226.89C343.8 230.58 340.74 240.21 340.74 240.21C339.054 241.118 337.557 242.34 336.33 243.81C336.33 243.81 334.89 248.67 332.91 250.11C330.93 251.55 328.05 255.51 326.79 257.67C325.53 259.83 325.17 262.35 319.23 266.4C313.29 270.45 311.58 273.78 309.06 277.11C306.54 280.44 304.11 283.05 304.11 283.05C306.45 279.81 309.51 272.88 313.65 268.92C317.79 264.96 324 260.1 325.26 256.68C326.52 253.26 330.12 250.83 332.28 247.77C334.44 244.71 334.71 238.77 327.42 237.96C320.13 237.15 314.1 247.32 309.78 252C305.46 256.68 299.07 263.43 292.41 265.14C285.75 266.85 268.11 275.22 263.34 287.1C258.57 298.98 261.18 316.35 262.71 330.48C262.98 332.64 263.16 335.34 263.25 338.22H295.74C294.93 332.91 294.39 328.05 294.12 324.27C293.04 307.71 308.97 295.02 316.26 290.07C323.55 285.12 330.66 279.54 333 273.96C335.81 267.653 339.919 262.009 345.06 257.4C350.46 252.72 352.62 247.68 353.25 244.8C353.88 241.92 357.84 233.01 358.83 231.03C359.82 229.05 362.52 223.02 364.23 220.32C365.94 217.62 365.13 216.27 365.13 216.27Z" fill="#0049A8"/>
<path d="M347.04 361.8H306.27V323.46H347.04L338.94 342.63L347.04 361.8Z" fill="#0060C7"/>
<path d="M102.96 361.8H143.73V323.46H102.96L111.06 342.63L102.96 361.8Z" fill="#0060C7"/>
<path d="M143.73 361.8L119.88 349.38L143.73 323.46V361.8Z" fill="#002B6B"/>
<path d="M306.27 361.8L330.12 349.38L306.27 323.46V361.8Z" fill="#002B6B"/>
<path d="M330.24 311H120V349.304H330.24V311Z" fill="#0092FF"/>
<path d="M176.13 340V329.26H161.4V340H159.96V318.55H161.4V327.97H176.13V318.55H177.57V340H176.13ZM186.618 332.56L183.528 340H181.998L191.028 318.4H191.868L200.928 340H199.308L196.218 332.56H186.618ZM191.358 320.8C191.338 320.82 191.298 320.94 191.238 321.16C190.958 322.02 190.688 322.75 190.428 323.35L187.128 331.33H195.708L192.408 323.38C191.708 321.86 191.358 321 191.358 320.8ZM209.719 334.81L215.929 318.97H216.799L222.229 334.93C222.649 336.19 222.929 337.1 223.069 337.66C223.229 337 223.509 336.1 223.909 334.96L229.429 318.55H230.929L223.459 340.18H222.619L217.069 324.28C216.989 324.02 216.899 323.76 216.799 323.5C216.719 323.24 216.649 323.01 216.589 322.81C216.529 322.61 216.469 322.44 216.409 322.3L216.289 321.94C216.269 321.84 216.259 321.78 216.259 321.76C216.019 322.48 215.709 323.31 215.329 324.25L209.059 340.18H208.219L200.689 318.55H202.279L207.769 334.69C208.029 335.41 208.239 336.06 208.399 336.64C208.579 337.22 208.679 337.54 208.699 337.6C208.799 337.14 209.139 336.21 209.719 334.81ZM236.846 337.15C234.866 335.01 233.876 332.38 233.876 329.26C233.876 326.14 234.866 323.52 236.846 321.4C238.846 319.26 241.366 318.19 244.406 318.19C247.446 318.19 249.966 319.26 251.966 321.4C253.966 323.52 254.966 326.14 254.966 329.26C254.966 331.1 254.586 332.81 253.826 334.39C253.086 335.95 252.056 337.24 250.736 338.26C254.836 340.74 257.996 342.36 260.216 343.12C262.856 344.02 265.236 344.47 267.356 344.47C268.576 344.47 269.966 344.31 271.526 343.99C273.086 343.67 274.206 343.34 274.886 343L275.246 343.84C274.466 344.24 273.266 344.63 271.646 345.01C270.046 345.39 268.616 345.58 267.356 345.58C266.096 345.58 264.756 345.42 263.336 345.1C261.936 344.8 260.726 344.48 259.706 344.14C258.706 343.8 257.456 343.26 255.956 342.52C254.456 341.78 253.376 341.22 252.716 340.84C252.076 340.48 251.026 339.88 249.566 339.04C247.986 339.92 246.266 340.36 244.406 340.36C241.366 340.36 238.846 339.29 236.846 337.15ZM237.926 322.33C236.266 324.19 235.436 326.5 235.436 329.26C235.436 332.02 236.266 334.34 237.926 336.22C239.606 338.1 241.766 339.04 244.406 339.04C245.846 339.04 247.146 338.75 248.306 338.17C245.806 336.47 243.836 335.62 242.396 335.62C241.496 335.62 240.766 335.78 240.206 336.1L239.726 335.23C240.466 334.73 241.376 334.48 242.456 334.48C243.536 334.48 244.616 334.74 245.696 335.26C246.796 335.78 248.056 336.52 249.476 337.48C250.716 336.6 251.676 335.44 252.356 334C253.056 332.56 253.406 330.98 253.406 329.26C253.406 326.5 252.566 324.19 250.886 322.33C249.226 320.45 247.066 319.51 244.406 319.51C241.746 319.51 239.586 320.45 237.926 322.33ZM262.467 332.56L259.377 340H257.847L266.877 318.4H267.717L276.777 340H275.157L272.067 332.56H262.467ZM267.207 320.8C267.187 320.82 267.147 320.94 267.087 321.16C266.807 322.02 266.537 322.75 266.277 323.35L262.977 331.33H271.557L268.257 323.38C267.557 321.86 267.207 321 267.207 320.8ZM281.22 340V318.55H282.66V338.68H292.53V340H281.22Z" fill="white"/>
</g>
<defs>
<clipPath id="clip0_82_141">
<rect width="450" height="450" fill="white"/>
</clipPath>
<clipPath id="clip1_82_141">
<rect x="126.9" y="87.2998" width="195.3" height="195.3" rx="97.65" fill="white"/>
</clipPath>
</defs>
</svg>
